<svg id="Layer_2" data-name="Layer 2" xmlns="http://www.w3.org/2000/svg" width="139.361" height="37.123" viewBox="0 0 139.361 37.123">
  <g id="Layer_1-2" data-name="Layer 1-2">
    <path id="Path_1" data-name="Path 1" d="M101,251.135V228h3.856v23.135Z" transform="translate(-98.737 -217.868)" fill="#231f20"/>
    <path id="Path_2" data-name="Path 2" d="M129.746,251.134a10.887,10.887,0,0,1-4.466-.905,11,11,0,0,1-5.918-6.2,12.746,12.746,0,0,1-.854-4.7,12.336,12.336,0,0,1,.854-4.646,10.243,10.243,0,0,1,2.353-3.578,10.614,10.614,0,0,1,3.565-2.293,12.086,12.086,0,0,1,4.466-.811h5.632a12.347,12.347,0,0,1,4.595.829,10.245,10.245,0,0,1,5.91,5.922,12.378,12.378,0,0,1,.82,4.6,12.809,12.809,0,0,1-.854,4.7,11.22,11.22,0,0,1-2.357,3.736,11,11,0,0,1-3.578,2.481,11.174,11.174,0,0,1-4.535.871Zm5.623-3.873a7.277,7.277,0,0,0,2.916-.57,6.9,6.9,0,0,0,3.8-3.963,8.229,8.229,0,0,0,.541-3.014,8.119,8.119,0,0,0-.541-2.979,6.775,6.775,0,0,0-3.8-3.9,7.483,7.483,0,0,0-2.916-.554h-5.614a7.3,7.3,0,0,0-2.869.554,6.808,6.808,0,0,0-2.269,1.536,7.1,7.1,0,0,0-1.49,2.35,8.148,8.148,0,0,0-.536,3.009,8.331,8.331,0,0,0,.536,3.014,7.167,7.167,0,0,0,1.49,2.392,6.817,6.817,0,0,0,2.269,1.571,7.094,7.094,0,0,0,2.869.57Z" transform="translate(-108.743 -217.867)" fill="#231f20"/>
    <path id="Path_3" data-name="Path 3" d="M196,251.135V231.856h-9V228h21.85v3.856h-9v19.279Z" transform="translate(-147.892 -217.868)" fill="#231f20"/>
    <path id="Path_4" data-name="Path 4" d="M229.567,250.7l13.765-22.868a3.326,3.326,0,0,1,.838-.984,1.865,1.865,0,0,1,1.164-.362,1.946,1.946,0,0,1,1.186.362,3.182,3.182,0,0,1,.851.984L261.105,250.7H256.3L245.4,232.289l-5.349,8.983H247.4l2,3.427H238.172l-3.581,6Z" transform="translate(-172.222 -217.001)" fill="#231f20"/>
    <path id="Path_5" data-name="Path 5" d="M324.633,214A9.624,9.624,0,0,0,315,223.614v23.375h35.781a9.633,9.633,0,0,0,9.633-9.623V214Zm2.791,27.848h-3.856V218.713h3.856Zm24.862-19.279h-9.01v19.279h-3.856V222.569h-9v-3.856h21.85Z" transform="translate(-221.053 -209.866)" fill="#ed1c24"/>
    <circle id="Ellipse_1" data-name="Ellipse 1" cx="3.479" cy="3.479" r="3.479" fill="#fff"/>
    <circle id="Ellipse_2" data-name="Ellipse 2" cx="3.479" cy="3.479" r="3.479" fill="#ed1c24"/>
  </g>
</svg>
