<svg width="18" height="10" viewBox="0 0 18 10" fill="none" xmlns="http://www.w3.org/2000/svg">
<path d="M17.4001 5.29977C17.4004 5.16443 17.3706 5.03071 17.3129 4.90828C17.2552 4.78584 17.171 4.67774 17.0665 4.59177L13.5313 1.06377C13.3625 0.895234 13.1338 0.800565 12.8953 0.800565C12.6568 0.800565 12.428 0.895234 12.2593 1.06377C12.1759 1.14713 12.1098 1.24609 12.0646 1.35501C12.0195 1.46393 11.9963 1.58067 11.9963 1.69857C11.9963 1.81647 12.0195 1.93322 12.0646 2.04214C12.1098 2.15106 12.1759 2.25002 12.2593 2.33337L14.3209 4.39977L1.5001 4.39977C1.2614 4.39977 1.03248 4.4946 0.863701 4.66338C0.694918 4.83216 0.600097 5.06108 0.600097 5.29977C0.600097 5.53847 0.694919 5.76739 0.863701 5.93617C1.03248 6.10495 1.2614 6.19977 1.5001 6.19977L14.3329 6.19977L12.2533 8.26617C12.1697 8.34955 12.1034 8.44859 12.0582 8.55762C12.013 8.66665 11.9897 8.78353 11.9897 8.90157C11.9897 9.01961 12.013 9.1365 12.0582 9.24553C12.1034 9.35456 12.1697 9.4536 12.2533 9.53697C12.3369 9.62061 12.4361 9.68695 12.5453 9.73222C12.6546 9.77748 12.7717 9.80078 12.8899 9.80078C13.0081 9.80078 13.1252 9.77748 13.2344 9.73222C13.3437 9.68695 13.4429 9.62061 13.5265 9.53697L17.1361 5.93217C17.2203 5.84992 17.2871 5.75152 17.3325 5.64286C17.3779 5.5342 17.4009 5.41752 17.4001 5.29977Z" fill="#ED1C24"/>
</svg>
