<?xml version="1.0" encoding="UTF-8"?>
<svg xmlns="http://www.w3.org/2000/svg" width="120" height="120" viewBox="0 0 120 120">
  <g transform="translate(1074 3925)">
    <circle cx="60" cy="60" r="60" transform="translate(-1074 -3925)" fill="#f6faff"></circle>
    <g transform="translate(-1055.458 -3894.689)">
      <g transform="translate(0.063)">
        <path d="M37.545,0h8.594A1.834,1.834,0,0,1,47.65,1.787q.014,8.2,0,16.4c0,.168.017.335.037.5,2.809.045,5.622-.011,8.432.025a1.781,1.781,0,0,1,1.725,1.817c.012,2.518,0,5.038,0,7.557a15.625,15.625,0,0,0,5.341-1.39,11.474,11.474,0,0,1-1.748-6.438,15.585,15.585,0,0,1,3.258-8.8,13.041,13.041,0,0,1,7.121,9.52,16.523,16.523,0,0,1,8.711.634,7.9,7.9,0,0,1,2.32,1.487,10.652,10.652,0,0,1-4.416,5.963,13.939,13.939,0,0,1-8.356,2.118,55.154,55.154,0,0,1-6.2,11.854,36.96,36.96,0,0,1-8.934,8.947,39.8,39.8,0,0,1-13.415,5.952,53.2,53.2,0,0,1-11.088,1.451H27.4a46.27,46.27,0,0,1-11.491-1.708,20.638,20.638,0,0,1-6.157-2.878,20.793,20.793,0,0,1-6.736-8.717A37.922,37.922,0,0,1,.064,31.406,3.268,3.268,0,0,1,2.271,28.3a13.35,13.35,0,0,1,3.268-.178q0-3.732,0-7.464a1.913,1.913,0,0,1,.393-1.287A1.857,1.857,0,0,1,7.49,18.7H15.6c0-2.423,0-4.845,0-7.269a2.059,2.059,0,0,1,.393-1.411A1.838,1.838,0,0,1,17.55,9.35q9.192,0,18.384,0c.007-2.524-.008-5.049.006-7.573A1.8,1.8,0,0,1,37.545,0m.584,1.586a.8.8,0,0,0-.631.9c-.017,1.878.007,3.758-.011,5.638.022.342-.026.763.267,1.008a1.309,1.309,0,0,0,.878.215q3.168-.01,6.335,0a1.278,1.278,0,0,0,.861-.211c.295-.244.253-.661.273-1q-.012-2.695,0-5.388c-.021-.335.019-.744-.267-.982-.313-.278-.765-.19-1.146-.212-2.186.037-4.376-.039-6.558.034M17.736,10.951a.814.814,0,0,0-.57.879c-.011,1.889.007,3.776-.008,5.664.018.331-.023.729.251.974a1.351,1.351,0,0,0,.963.233c1.794-.011,3.589-.007,5.384-.006a9.275,9.275,0,0,0,1.451-.044.82.82,0,0,0,.558-.876c.012-1.883-.008-3.768.008-5.651-.017-.329.032-.719-.233-.969-.24-.274-.628-.237-.956-.252-1.794.01-3.586.007-5.38,0a9.482,9.482,0,0,0-1.467.044m10.2,0a.829.829,0,0,0-.547.893c0,1.978,0,3.957,0,5.935a.823.823,0,0,0,.891.909c2.157.012,4.316-.008,6.475.008.335-.015.73.029.989-.231s.227-.648.244-.98q-.012-2.682,0-5.365c-.015-.332.026-.723-.234-.978a1.13,1.13,0,0,0-.847-.241c-2.116.006-4.231.01-6.347,0a3.268,3.268,0,0,0-.625.051M38,10.965c-.431.135-.526.628-.511,1.024.008,1.926-.007,3.853.006,5.779a.821.821,0,0,0,.548.879,6.826,6.826,0,0,0,1.267.05q2.827-.008,5.655,0a1.267,1.267,0,0,0,.857-.208c.292-.236.256-.648.276-.984q-.01-2.687,0-5.376c-.023-.343.032-.766-.265-1.011a1.247,1.247,0,0,0-.872-.216c-2.067.006-4.133.01-6.2,0a3.368,3.368,0,0,0-.763.062m25.206,7.123a10.284,10.284,0,0,0,.878,7.163c.3.63.776,1.155,1.128,1.754a7.06,7.06,0,0,1-2.766,1.624,18.345,18.345,0,0,1-5.5.982q-26.791,0-53.583,0A1.677,1.677,0,0,0,1.56,31.27a38.413,38.413,0,0,0,.3,4.691,29.814,29.814,0,0,0,5,13.861c.16.189.289.442.528.54a20.3,20.3,0,0,0,13-2.2,4.46,4.46,0,0,1,.9-.441.741.741,0,0,1,.871.773c-.006.262-.216.441-.368.631A21.929,21.929,0,0,1,8.811,52.065c2.7,2.72,6.435,4.064,10.111,4.851a50.705,50.705,0,0,0,14.072.821,42.2,42.2,0,0,0,19.882-6.165,35.171,35.171,0,0,0,9.713-9.294,55.252,55.252,0,0,0,6.5-12.657,14.208,14.208,0,0,0,6.92-.924,9.64,9.64,0,0,0,5.113-5.115,8.951,8.951,0,0,0-2.957-1.134,18.6,18.6,0,0,0-7.7.31,11.307,11.307,0,0,0-.555-3.338,11.883,11.883,0,0,0-4.735-5.994,13.527,13.527,0,0,0-1.967,4.664M7.664,20.3a.821.821,0,0,0-.565.9c-.01,1.887.007,3.775-.007,5.661.014.333-.019.733.265.971a1.179,1.179,0,0,0,.835.212q3.164-.01,6.328,0a1.263,1.263,0,0,0,.941-.24c.259-.244.218-.63.237-.952-.011-1.835-.007-3.67,0-5.507a1.132,1.132,0,0,0-.266-.887,1.352,1.352,0,0,0-.908-.211c-1.788.008-3.578.006-5.368,0a9.283,9.283,0,0,0-1.491.045m10.056,0a.83.83,0,0,0-.554.9q-.006,2.968,0,5.934a.8.8,0,0,0,.781.893c2.211.025,4.422-.007,6.632.014.321-.014.705.029.944-.236.266-.241.234-.624.248-.949q-.012-2.687,0-5.374a1.448,1.448,0,0,0-.219-.977c-.247-.277-.646-.247-.981-.26q-3.1.01-6.2,0a3.441,3.441,0,0,0-.652.055m10.216,0a.828.828,0,0,0-.543.9c0,1.977,0,3.955,0,5.932a.8.8,0,0,0,.751.9c2.213.032,4.428-.007,6.641.018.321-.015.7.03.948-.22.281-.236.245-.631.26-.96q-.012-2.691,0-5.38c-.017-.336.033-.737-.237-.993-.248-.271-.645-.227-.975-.245q-3.1.014-6.208,0a3,3,0,0,0-.638.056m10.054.012c-.424.141-.514.628-.5,1.019,0,1.845.008,3.689,0,5.534.017.338-.014.752.289.981a1.309,1.309,0,0,0,.847.193q3.174-.014,6.347,0a1.266,1.266,0,0,0,.843-.2c.3-.237.269-.653.285-1q-.01-2.684,0-5.372c-.021-.343.026-.758-.26-1.007-.229-.236-.581-.2-.88-.223-2.065.006-4.13.011-6.2,0a3.178,3.178,0,0,0-.776.07m10.2,0a.851.851,0,0,0-.5.887c-.012,1.838.01,3.677-.008,5.516a2.5,2.5,0,0,0,.11.92.913.913,0,0,0,.891.4q3.313-.008,6.627,0a.88.88,0,0,0,.88-.427,3.179,3.179,0,0,0,.1-1.028c-.026-1.839.015-3.68-.018-5.518a.772.772,0,0,0-.813-.8c-2.072-.03-4.144.007-6.216-.017A4.671,4.671,0,0,0,48.186,20.321Z" transform="translate(-0.063)" fill="#2854a1"></path>
        <path d="M283.12,22.838c.256,0,.513,0,.769.006.017,1.339,0,2.678.014,4.017-.041.189.065.464-.121.59a6.332,6.332,0,0,1-.667.006C283.113,25.917,283.1,24.378,283.12,22.838Z" transform="translate(-244.115 -19.691)" fill="#2854a1"></path>
        <path d="M300.121,22.84c.255,0,.512,0,.769.01.012,1.531,0,3.061.007,4.593l-.781.014C300.111,25.918,300.1,24.379,300.121,22.84Z" transform="translate(-258.772 -19.693)" fill="#2854a1"></path>
        <path d="M317.117,22.83c.258,0,.517.01.776.017q.006,2.294,0,4.589c-.259.006-.518.011-.777.014C317.107,25.909,317.1,24.37,317.117,22.83Z" transform="translate(-273.429 -19.685)" fill="#2854a1"></path>
        <path d="M135.554,90.676c.252,0,.5-.006.755,0,.028,1.542.022,3.083,0,4.625-.252.008-.5.011-.754.011C135.527,93.766,135.535,92.22,135.554,90.676Z" transform="translate(-116.873 -78.18)" fill="#2854a1"></path>
        <path d="M152.558,90.63c.251,0,.5.006.751.012q.033,2.308,0,4.619-.378.012-.756.012C152.53,93.726,152.522,92.177,152.558,90.63Z" transform="translate(-131.528 -78.144)" fill="#2854a1"></path>
        <path d="M169.562,90.658c.251,0,.5,0,.752.007.022,1.542.019,3.085,0,4.626-.253,0-.507,0-.76,0C169.539,93.745,169.529,92.2,169.562,90.658Z" transform="translate(-146.191 -78.168)" fill="#2854a1"></path>
        <path d="M209.738,90.67c.252-.007.5-.01.755-.007q.05,2.319,0,4.64c-.253,0-.507-.007-.759-.019C209.714,93.747,209.708,92.208,209.738,90.67Z" transform="translate(-180.833 -78.172)" fill="#2854a1"></path>
        <path d="M226.732,90.671c.253-.01.508-.014.762-.012q.045,2.319,0,4.637c-.252,0-.5,0-.755-.006C226.7,93.751,226.715,92.211,226.732,90.671Z" transform="translate(-195.49 -78.168)" fill="#2854a1"></path>
        <path d="M243.735,90.622c.251-.011.5-.018.751-.022.045,1.549.034,3.1.007,4.646-.252,0-.5,0-.756-.007Q243.693,92.93,243.735,90.622Z" transform="translate(-210.147 -78.118)" fill="#2854a1"></path>
        <path d="M283.118,90.774c.259,0,.519,0,.78,0q.006,2.3,0,4.6l-.778.006Q283.109,93.078,283.118,90.774Z" transform="translate(-244.119 -78.267)" fill="#2854a1"></path>
        <path d="M300.115,90.75l.778.006q.006,2.3,0,4.6l-.777.017C300.106,93.829,300.11,92.29,300.115,90.75Z" transform="translate(-258.772 -78.247)" fill="#2854a1"></path>
        <path d="M317.118,90.76c.259,0,.519,0,.778.006,0,1.535.007,3.07,0,4.6l-.776,0Q317.107,93.065,317.118,90.76Z" transform="translate(-273.433 -78.256)" fill="#2854a1"></path>
        <path d="M62.37,159.267a2.364,2.364,0,0,1,.074-.723c.238-.022.479-.021.719-.023.008,1.55.023,3.1-.01,4.652-.259-.017-.519-.034-.778-.054C62.378,161.835,62.385,160.551,62.37,159.267Z" transform="translate(-53.786 -136.681)" fill="#2854a1"></path>
        <path d="M79.37,158.554l.789-.044c.017,1.551.025,3.1,0,4.654-.26-.017-.521-.036-.781-.054C79.381,161.591,79.385,160.072,79.37,158.554Z" transform="translate(-68.444 -136.672)" fill="#2854a1"></path>
        <path d="M96.37,158.532l.789-.052c.017,1.553.025,3.1-.006,4.657-.259-.014-.517-.029-.776-.045C96.374,161.572,96.389,160.052,96.37,158.532Z" transform="translate(-83.102 -136.646)" fill="#2854a1"></path>
        <path d="M135.552,158.554q.38,0,.76.008c.015,1.542.022,3.083,0,4.624-.251,0-.5.007-.751.007C135.523,161.646,135.533,160.1,135.552,158.554Z" transform="translate(-116.871 -136.709)" fill="#2854a1"></path>
        <path d="M152.555,158.554c.251,0,.5,0,.752,0,.025,1.544.03,3.09,0,4.635-.249,0-.5,0-.747,0C152.526,161.643,152.53,160.1,152.555,158.554Z" transform="translate(-131.529 -136.708)" fill="#2854a1"></path>
        <path d="M169.552,158.53c.254,0,.507.007.76.018.008,1.538.022,3.076-.008,4.614-.249.007-.5.012-.747.017C169.519,161.63,169.528,160.079,169.552,158.53Z" transform="translate(-146.183 -136.689)" fill="#2854a1"></path>
        <path d="M209.738,158.552c.252-.008.506-.012.759-.012.029,1.547.036,3.1,0,4.641-.252,0-.5,0-.754-.008Q209.7,160.863,209.738,158.552Z" transform="translate(-180.836 -136.698)" fill="#2854a1"></path>
        <path d="M226.732,158.567c.253-.007.507-.008.76-.005.025,1.546.039,3.094-.008,4.64-.249,0-.5,0-.745-.008C226.7,161.652,226.712,160.109,226.732,158.567Z" transform="translate(-195.488 -136.715)" fill="#2854a1"></path>
        <path d="M243.734,158.558c.252-.008.5-.011.758-.01.028,1.547.039,3.1-.007,4.643-.249,0-.5,0-.747-.008C243.7,161.641,243.709,160.1,243.734,158.558Z" transform="translate(-210.146 -136.704)" fill="#2854a1"></path>
        <path d="M283.115,158.63c.26,0,.521.007.781.011,0,1.533.007,3.068-.005,4.6-.258,0-.514,0-.77,0C283.105,161.706,283.112,160.168,283.115,158.63Z" transform="translate(-244.116 -136.776)" fill="#2854a1"></path>
        <path d="M300.113,158.66l.783,0c0,1.533.007,3.068,0,4.6-.258,0-.514.01-.77.012C300.1,161.738,300.119,160.2,300.113,158.66Z" transform="translate(-258.774 -136.801)" fill="#2854a1"></path>
        <path d="M317.114,158.63c.259,0,.519,0,.778.008,0,1.535.008,3.068,0,4.6l-.77.007C317.1,161.708,317.109,160.169,317.114,158.63Z" transform="translate(-273.429 -136.776)" fill="#2854a1"></path>
        <path d="M357.049,158.63c.26,0,.524.006.785.011,0,1.531.006,3.061,0,4.593l-.778.014C357.033,161.709,357.042,160.169,357.049,158.63Z" transform="translate(-307.86 -136.776)" fill="#2854a1"></path>
        <path d="M374.051,158.64l.784.007c0,1.533.007,3.065,0,4.6l-.78.01C374.036,161.718,374.044,160.179,374.051,158.64Z" transform="translate(-322.52 -136.784)" fill="#2854a1"></path>
        <path d="M391.048,158.63l.789.014c0,1.531,0,3.061,0,4.592l-.777.015C391.031,161.711,391.044,160.17,391.048,158.63Z" transform="translate(-337.176 -136.776)" fill="#2854a1"></path>
        <path d="M182.109,303.641a1.847,1.847,0,0,1,1.386-.411c-.1.354-.231.8.085,1.087.295.346.77.231,1.134.08a1.91,1.91,0,0,1-.4,1.451,1.562,1.562,0,1,1-2.207-2.207Z" transform="translate(-156.596 -261.454)" fill="#2854a1"></path>
        <path d="M382.709,401.54a1.152,1.152,0,1,1-.011,1.974,1.138,1.138,0,0,1,.011-1.974m.284.142a.917.917,0,0,0-.28,1.516.863.863,0,0,0,1.4-.409A.886.886,0,0,0,382.993,401.682Z" transform="translate(-329.495 -346.087)" fill="#2854a1"></path>
        <path d="M387.27,406.566c0-.389.007-.777.021-1.166.353.023.8-.059.992.321l-.207.276c.073.214.141.428.207.648a.474.474,0,0,1-.426-.451l-.092.09c0-.163-.008-.325-.011-.488l.248.143a.518.518,0,0,0-.449-.375c-.014.339-.017.681-.015,1.021Z" transform="translate(-333.925 -349.548)" fill="#2854a1"></path>
      </g>
      <g transform="translate(1.56 1.551)">
        <path d="M272.342,11.294c2.182-.073,4.371,0,6.558-.034.382.022.834-.066,1.146.212.287.238.247.648.267.982q-.012,2.695,0,5.388c-.019.342.022.759-.273,1a1.278,1.278,0,0,1-.861.211q-3.166-.01-6.335,0a1.309,1.309,0,0,1-.878-.215c-.293-.245-.245-.667-.267-1.008.018-1.879-.006-3.76.011-5.638a.8.8,0,0,1,.631-.9m.94,1.561c-.017,1.54-.007,3.079-.006,4.618a6.333,6.333,0,0,0,.667-.006c.186-.125.08-.4.121-.59-.012-1.339,0-2.678-.014-4.017-.256,0-.512-.007-.769-.006m2.343,0c-.018,1.539-.01,3.078-.006,4.617l.781-.014c0-1.532.006-3.063-.007-4.593-.256-.006-.514-.01-.769-.01m2.339,0c-.012,1.54-.01,3.079,0,4.619.259,0,.518-.008.777-.014q0-2.3,0-4.589Q278.352,12.86,277.964,12.854Z" transform="translate(-235.773 -11.26)" fill="#2496ed"></path>
        <path d="M124.719,79.174a9.482,9.482,0,0,1,1.467-.044c1.794,0,3.586.006,5.38,0,.328.015.716-.022.956.252.265.249.216.639.233.969-.017,1.883,0,3.768-.008,5.651a.82.82,0,0,1-.558.876,9.277,9.277,0,0,1-1.451.044c-1.8,0-3.59-.006-5.384.006a1.351,1.351,0,0,1-.963-.233c-.274-.245-.233-.643-.251-.974.015-1.887,0-3.775.008-5.664a.814.814,0,0,1,.57-.879m1.008,1.544c-.019,1.544-.028,3.09.006,4.635.251,0,.5,0,.754-.011.018-1.542.023-3.083,0-4.625-.251,0-.5,0-.755,0m2.349-.01c-.036,1.547-.028,3.1,0,4.644q.378,0,.756-.012.029-2.31,0-4.619c-.251-.007-.5-.011-.751-.012m2.341,0c-.033,1.543-.023,3.087-.007,4.632.253.006.507.006.76,0,.018-1.542.021-3.085,0-4.626C130.918,80.714,130.668,80.712,130.417,80.713Z" transform="translate(-108.542 -69.774)" fill="#2496ed"></path>
        <path d="M198.952,79.191a3.267,3.267,0,0,1,.625-.051c2.116.011,4.231.007,6.347,0a1.129,1.129,0,0,1,.847.241c.26.255.219.646.234.978q-.017,2.682,0,5.365c-.017.332.025.729-.244.98s-.654.216-.989.231c-2.159-.017-4.318,0-6.475-.008a.823.823,0,0,1-.891-.909c0-1.978,0-3.957,0-5.935a.829.829,0,0,1,.547-.893m1.029,1.544c-.03,1.538-.025,3.076,0,4.614.252.012.506.019.759.019q.045-2.319,0-4.64c-.252,0-.5,0-.755.007m2.337,0c-.017,1.54-.028,3.081.007,4.619.252.007.5.008.755.006q.045-2.319,0-4.637c-.253,0-.508,0-.762.012m2.346,0q-.039,2.308,0,4.617c.252.007.5.008.756.007.028-1.547.039-3.1-.007-4.646C205.164,80.723,204.915,80.73,204.664,80.741Z" transform="translate(-172.572 -69.788)" fill="#2496ed"></path>
        <path d="M272.232,79.2A3.368,3.368,0,0,1,273,79.14c2.065.011,4.132.007,6.2,0a1.248,1.248,0,0,1,.872.216c.3.245.241.668.264,1.011q-.012,2.689,0,5.376c-.019.336.017.748-.276.984a1.267,1.267,0,0,1-.857.208q-2.829-.012-5.655,0a6.826,6.826,0,0,1-1.267-.05.821.821,0,0,1-.548-.879c-.012-1.926,0-3.853-.006-5.779-.015-.4.08-.889.511-1.024m1.061,1.542q-.006,2.3,0,4.608l.778-.006q.006-2.3,0-4.6c-.26,0-.521,0-.78,0m2.343,0c-.006,1.54-.01,3.079,0,4.619l.777-.017q0-2.3,0-4.6l-.778-.006m2.342,0q-.01,2.3,0,4.611l.776,0c.01-1.533,0-3.068,0-4.6C278.5,80.744,278.237,80.741,277.978,80.741Z" transform="translate(-235.789 -69.788)" fill="#2496ed"></path>
        <path d="M72.572,102.1a13.527,13.527,0,0,1,1.967-4.664,11.883,11.883,0,0,1,4.735,5.994,11.307,11.307,0,0,1,.555,3.338,18.6,18.6,0,0,1,7.7-.31,8.951,8.951,0,0,1,2.957,1.134,9.64,9.64,0,0,1-5.113,5.115,14.208,14.208,0,0,1-6.92.924,55.252,55.252,0,0,1-6.5,12.657,35.171,35.171,0,0,1-9.713,9.294,42.2,42.2,0,0,1-19.882,6.165,20.961,20.961,0,0,1-9.808-6.747c-.492-.6-.919-1.251-1.4-1.864.152-.19.362-.369.368-.631a.741.741,0,0,0-.871-.773,4.461,4.461,0,0,0-.9.441,20.3,20.3,0,0,1-13,2.2c-.238-.1-.368-.351-.528-.54a29.814,29.814,0,0,1-5-13.861,38.413,38.413,0,0,1-.3-4.691,1.677,1.677,0,0,1,1.808-1.659q26.791,0,53.583,0a18.345,18.345,0,0,0,5.5-.982,7.06,7.06,0,0,0,2.766-1.624c-.353-.6-.824-1.124-1.128-1.754a10.284,10.284,0,0,1-.878-7.163m-37.341,22.62a2.731,2.731,0,1,0,3.271,1.6A2.735,2.735,0,0,0,35.231,124.724Z" transform="translate(-10.923 -85.567)" fill="#2496ed"></path>
        <path d="M51.652,147.05A9.284,9.284,0,0,1,53.142,147c1.79,0,3.579,0,5.368,0a1.352,1.352,0,0,1,.908.211,1.132,1.132,0,0,1,.266.887c-.006,1.836-.01,3.672,0,5.507-.019.322.022.708-.237.952a1.263,1.263,0,0,1-.941.24q-3.164-.017-6.328,0a1.179,1.179,0,0,1-.835-.212c-.284-.238-.251-.638-.265-.971.014-1.886,0-3.774.007-5.661a.821.821,0,0,1,.565-.9m.984,2.281c.015,1.284.008,2.568.006,3.852.259.019.519.037.778.054.033-1.551.018-3.1.01-4.652-.24,0-.481,0-.719.023a2.364,2.364,0,0,0-.074.723m2.342-.7c.015,1.518.011,3.036,0,4.556.26.018.521.037.781.054.029-1.551.021-3.1,0-4.654l-.789.044m2.342,0c.019,1.52,0,3.039.008,4.559.259.017.517.032.776.045.03-1.553.022-3.1.006-4.657Z" transform="translate(-45.548 -128.297)" fill="#2496ed"></path>
        <path d="M124.729,147.065a3.441,3.441,0,0,1,.652-.055q3.1.017,6.2,0c.335.014.734-.017.981.26a1.448,1.448,0,0,1,.219.977q-.014,2.687,0,5.374c-.014.325.018.708-.248.949-.238.265-.623.222-.944.236-2.21-.021-4.421.011-6.632-.014a.8.8,0,0,1-.781-.893q-.012-2.966,0-5.934a.83.83,0,0,1,.554-.9m1.025,1.536c-.019,1.547-.029,3.093.007,4.639.249,0,.5,0,.751-.007.025-1.54.018-3.082,0-4.624q-.38-.012-.76-.008m2.345,0c-.025,1.544-.029,3.089,0,4.633.249,0,.5,0,.747,0,.034-1.544.029-3.09,0-4.635-.251,0-.5-.006-.752,0m2.342-.006c-.023,1.549-.033,3.1.006,4.648.249,0,.5-.01.747-.017.03-1.538.017-3.076.008-4.614C130.948,148.6,130.694,148.6,130.441,148.6Z" transform="translate(-108.569 -128.308)" fill="#2496ed"></path>
        <path d="M198.953,147.068a3,3,0,0,1,.638-.056q3.1.012,6.208,0c.331.018.727-.026.975.245.27.256.22.657.237.993q-.017,2.691,0,5.38c-.015.329.021.725-.26.96-.248.251-.627.205-.948.22-2.213-.025-4.428.014-6.641-.018a.8.8,0,0,1-.751-.9c0-1.977,0-3.955,0-5.932a.828.828,0,0,1,.543-.9m1.031,1.543q-.035,2.31,0,4.621c.251.006.5.008.754.008.04-1.546.033-3.094,0-4.641-.253,0-.507,0-.759.012m2.342,0c-.021,1.542-.032,3.085.007,4.626.248,0,.5.007.745.008.047-1.546.033-3.094.008-4.64-.254,0-.507,0-.76.005m2.343,0c-.025,1.542-.03,3.083,0,4.625.248,0,.5.007.747.008.045-1.547.034-3.1.007-4.643C205.173,148.6,204.921,148.6,204.669,148.61Z" transform="translate(-172.577 -128.308)" fill="#2496ed"></path>
        <path d="M272.211,147.08a3.178,3.178,0,0,1,.776-.07c2.065.012,4.13.007,6.2,0,.3.021.652-.012.88.223.287.249.24.664.26,1.007q-.014,2.687,0,5.372c-.017.343.015.759-.285,1a1.266,1.266,0,0,1-.843.2q-3.172-.014-6.347,0a1.309,1.309,0,0,1-.847-.193c-.3-.229-.273-.643-.289-.981.01-1.845,0-3.689,0-5.534-.014-.391.076-.879.5-1.02m1.073,1.531c0,1.538-.01,3.076.005,4.614.256,0,.513,0,.77,0,.012-1.533,0-3.068.005-4.6-.26,0-.521-.01-.781-.011m2.339,0c.006,1.539-.011,3.078.01,4.617.256,0,.512-.008.77-.012.01-1.533,0-3.068,0-4.6l-.783,0m2.346,0c-.006,1.539-.011,3.078,0,4.617l.77-.007c.012-1.533.005-3.067,0-4.6C278.49,148.615,278.229,148.612,277.97,148.611Z" transform="translate(-235.781 -128.308)" fill="#2496ed"></path>
        <path d="M346.2,147.078a4.671,4.671,0,0,1,1.057-.068c2.072.023,4.144-.014,6.216.017a.772.772,0,0,1,.813.8c.033,1.838-.008,3.678.018,5.518a3.18,3.18,0,0,1-.1,1.028.88.88,0,0,1-.88.427q-3.315,0-6.627,0a.913.913,0,0,1-.891-.4,2.5,2.5,0,0,1-.11-.92c.018-1.839,0-3.678.008-5.516a.851.851,0,0,1,.5-.887m1.066,1.533c-.007,1.539-.017,3.079.005,4.618l.778-.014c.007-1.532,0-3.063,0-4.593-.262-.006-.525-.008-.785-.011m2.342,0c-.007,1.539-.015,3.078,0,4.615l.78-.01c.007-1.533,0-3.065,0-4.6l-.784-.007m2.341,0c0,1.54-.017,3.081.008,4.621l.777-.015c.008-1.531,0-3.061,0-4.592Z" transform="translate(-299.578 -128.308)" fill="#2496ed"></path>
      </g>
      <g transform="translate(8.811 40.598)">
        <path d="M175.059,294.79a2.738,2.738,0,1,1-1.963,2.556,2.729,2.729,0,0,1,1.963-2.556m-.291,1.478a1.562,1.562,0,1,0,2.207,2.207,1.911,1.911,0,0,0,.4-1.451c-.364.152-.839.266-1.134-.08-.317-.291-.182-.733-.085-1.087A1.847,1.847,0,0,0,174.768,296.269Z" transform="translate(-158.003 -294.68)" fill="#fff"></path>
        <path d="M63.56,359.519a21.929,21.929,0,0,0,12.979-2.939c.477.613.9,1.262,1.4,1.864a20.961,20.961,0,0,0,9.808,6.747,50.7,50.7,0,0,1-14.072-.821C70,363.583,66.263,362.238,63.56,359.519Z" transform="translate(-63.56 -348.052)" fill="#fff"></path>
      </g>
    </g>
  </g>
</svg>
