<?xml version="1.0" encoding="UTF-8"?>
<svg xmlns="http://www.w3.org/2000/svg" width="102" height="102" viewBox="0 0 102 102">
  <g transform="translate(-163 -165)">
    <circle cx="51" cy="51" r="51" transform="translate(163 165)" fill="#f6faff"></circle>
    <g transform="translate(132.448 150.448)">
      <g transform="translate(56.345 37.552)">
        <path d="M66.241,39.379a66.942,66.942,0,0,1,18.435-1.746,71.492,71.492,0,0,1,15.884,2.708,8.4,8.4,0,0,1,5.757,7.365,78.536,78.536,0,0,1,.348,11.152A38.543,38.543,0,0,1,99.751,79.3,40.43,40.43,0,0,1,90.9,88.306a39.667,39.667,0,0,1-9.35,5.246,41.174,41.174,0,0,1-12.549-7.883,38.355,38.355,0,0,1-8.6-11.3,39.093,39.093,0,0,1-3.863-13.942,63.628,63.628,0,0,1,.4-13.312,8.272,8.272,0,0,1,5.188-6.622c1.345-.461,2.735-.768,4.114-1.108m-2.353,4.956A4.018,4.018,0,0,0,61.012,47.7a78.334,78.334,0,0,0-.44,7.9,38.374,38.374,0,0,0,1.343,10.858,33.3,33.3,0,0,0,7.158,13.211,37.8,37.8,0,0,0,12.485,9.243,34.61,34.61,0,0,0,20.967-31.823,80.6,80.6,0,0,0-.386-8.923,4.526,4.526,0,0,0-1.832-3.307,7.255,7.255,0,0,0-2.408-.866,70.1,70.1,0,0,0-14.86-2.2A67.228,67.228,0,0,0,63.887,44.336Z" transform="translate(-56.345 -37.552)" fill="#4caf50"></path>
        <path d="M225.863,94.34a12.472,12.472,0,0,1,1.495,1.431,26.008,26.008,0,0,1,6.456,12.283,19.928,19.928,0,0,1,.168,7.5,19.086,19.086,0,0,1-6.7,10.883c-.394-1.352-.877-2.676-1.322-4.01a5.151,5.151,0,0,1-.107-1.541C225.863,112.037,225.846,103.188,225.863,94.34Z" transform="translate(-200.665 -85.903)" fill="#4caf50"></path>
      </g>
      <g transform="translate(60.567 41.769)">
        <path d="M88.085,68.5a67.228,67.228,0,0,1,19.151-2.547,70.1,70.1,0,0,1,14.86,2.2,7.255,7.255,0,0,1,2.408.866,4.526,4.526,0,0,1,1.832,3.307,80.6,80.6,0,0,1,.386,8.923,34.609,34.609,0,0,1-20.967,31.823,37.8,37.8,0,0,1-12.485-9.243,33.3,33.3,0,0,1-7.158-13.211A38.373,38.373,0,0,1,84.77,79.764a78.329,78.329,0,0,1,.44-7.9A4.018,4.018,0,0,1,88.085,68.5M98.491,81.234A19.866,19.866,0,0,0,98.1,93.26a20.241,20.241,0,0,0,6.221,9.039q0,2.1,0,4.208h2.856c-.007-1.419.025-2.839-.015-4.255a19.086,19.086,0,0,0,6.7-10.883,19.928,19.928,0,0,0-.168-7.5,26.008,26.008,0,0,0-6.456-12.283,12.476,12.476,0,0,0-1.495-1.431v-.046A26.692,26.692,0,0,0,98.491,81.234Z" transform="translate(-84.765 -65.937)" fill="#5d4037"></path>
      </g>
      <g transform="translate(73.142 45.943)">
        <path d="M170.552,105.154A26.692,26.692,0,0,1,177.8,94.03v.046c-.018,8.848,0,17.7-.009,26.544a5.153,5.153,0,0,0,.107,1.541c.446,1.334.929,2.658,1.322,4.01.04,1.416.007,2.836.015,4.255h-2.856q-.007-2.1,0-4.208a20.241,20.241,0,0,1-6.221-9.039A19.865,19.865,0,0,1,170.552,105.154Z" transform="translate(-169.4 -94.03)" fill="#87ca89"></path>
      </g>
    </g>
  </g>
</svg>
