<?xml version="1.0" encoding="UTF-8"?>
<svg xmlns="http://www.w3.org/2000/svg" width="102" height="102" viewBox="0 0 102 102" fill="none">
  <g clip-path="url(#clip0_2466_7583)">
    <path d="M51 102C79.1665 102 102 79.1665 102 51C102 22.8335 79.1665 0 51 0C22.8335 0 0 22.8335 0 51C0 79.1665 22.8335 102 51 102Z" fill="#F6FAFF"></path>
    <g clip-path="url(#clip1_2466_7583)">
      <path d="M50.6848 68.2404C50.4953 68.2404 50.3183 68.1898 50.154 68.1014L48.473 67.1029C48.2201 66.9638 48.3466 66.9133 48.4225 66.888C48.7637 66.7743 48.8269 66.7489 49.1808 66.5468C49.2187 66.5214 49.2693 66.5341 49.3072 66.5594L50.5964 67.3304C50.647 67.3556 50.7102 67.3556 50.748 67.3304L55.7912 64.4107C55.8417 64.3854 55.8671 64.3348 55.8671 64.2717V58.4449C55.8671 58.3816 55.8417 58.3312 55.7912 58.3058L50.748 55.3988C50.6975 55.3734 50.6343 55.3734 50.5964 55.3988L45.5533 58.3058C45.5028 58.3311 45.4774 58.3943 45.4774 58.4448V64.2716C45.4774 64.3222 45.5028 64.3853 45.5533 64.4107L46.931 65.2069C47.6767 65.5861 48.1444 65.1437 48.1444 64.7013V58.9504C48.1444 58.8746 48.2076 58.7987 48.296 58.7987H48.9406C49.0165 58.7987 49.0923 58.8619 49.0923 58.9504V64.7013C49.0923 65.6998 48.5488 66.2813 47.6008 66.2813C47.3102 66.2813 47.0827 66.2813 46.438 65.9652L45.1109 65.2069C44.7823 65.0174 44.5801 64.6634 44.5801 64.2842V58.4575C44.5801 58.0784 44.7823 57.7244 45.1109 57.5348L50.154 54.6151C50.47 54.4382 50.8998 54.4382 51.2157 54.6151L56.2588 57.5348C56.5874 57.7244 56.7897 58.0784 56.7897 58.4575V64.2842C56.7897 64.6634 56.5874 65.0174 56.2588 65.2069L51.2157 68.1266C51.0514 68.2025 50.8617 68.2404 50.6848 68.2404ZM52.2395 64.2337C50.0277 64.2337 49.5726 63.2226 49.5726 62.3631C49.5726 62.2872 49.6358 62.2114 49.7243 62.2114H50.3815C50.4573 62.2114 50.5205 62.2619 50.5205 62.3378C50.6217 63.0077 50.9124 63.3363 52.2522 63.3363C53.3138 63.3363 53.769 63.0961 53.769 62.5274C53.769 62.1987 53.6425 61.9587 51.9867 61.7943C50.609 61.6552 49.7496 61.352 49.7496 60.2523C49.7496 59.2285 50.6091 58.6218 52.0499 58.6218C53.6677 58.6218 54.4641 59.178 54.5652 60.3912C54.5652 60.4293 54.5526 60.4671 54.5273 60.5051C54.5019 60.5303 54.4641 60.5556 54.4261 60.5556H53.7689C53.7057 60.5556 53.6425 60.5051 53.6299 60.4419C53.4782 59.7468 53.0864 59.5192 52.0499 59.5192C50.8871 59.5192 50.748 59.9237 50.748 60.227C50.748 60.5935 50.9124 60.7073 52.4796 60.9095C54.0343 61.1118 54.7674 61.4025 54.7674 62.4894C54.7548 63.6017 53.8448 64.2337 52.2395 64.2337Z" fill="#539E43"></path>
      <path d="M35.0368 45.4514C35.0368 45.2239 34.9103 45.0089 34.7081 44.8952L29.349 41.8112C29.2604 41.7606 29.1594 41.7353 29.0583 41.7226H29.0077C28.9067 41.7226 28.8055 41.7606 28.717 41.8112L23.3579 44.8952C23.1556 45.0089 23.0293 45.2238 23.0293 45.4514L23.042 53.7428C23.042 53.8565 23.1052 53.9702 23.2062 54.0209C23.3074 54.0841 23.4337 54.0841 23.5223 54.0209L26.7074 52.2008C26.9096 52.0871 27.036 51.8722 27.036 51.6447V47.7644C27.036 47.5369 27.1624 47.322 27.3647 47.2083L28.717 46.4246C28.8182 46.3614 28.9319 46.336 29.0457 46.336C29.1594 46.336 29.2731 46.3614 29.3617 46.4246L30.7141 47.2083C30.9164 47.322 31.0427 47.5368 31.0427 47.7644V51.6447C31.0427 51.8722 31.1691 52.0871 31.3713 52.2008L34.5564 54.0209C34.6576 54.0841 34.7839 54.0841 34.8851 54.0209C34.9862 53.9702 35.0494 53.8565 35.0494 53.7428L35.0368 45.4514ZM60.7959 34.038C60.6948 33.9873 60.5684 33.9873 60.4798 34.038C60.3788 34.1012 60.3155 34.2022 60.3155 34.316V42.5317C60.3155 42.6075 60.2777 42.6833 60.2018 42.7339C60.126 42.7717 60.0501 42.7717 59.9743 42.7339L58.6346 41.9629C58.5363 41.907 58.4253 41.8776 58.3122 41.8776C58.1992 41.8776 58.0881 41.907 57.9899 41.9629L52.6308 45.0595C52.4286 45.1733 52.3022 45.3882 52.3022 45.6156V51.7963C52.3022 52.0237 52.4286 52.2387 52.6308 52.3525L57.9899 55.4491C58.0881 55.5051 58.1992 55.5345 58.3122 55.5345C58.4253 55.5345 58.5363 55.5051 58.6346 55.4491L63.9937 52.3525C64.1959 52.2387 64.3223 52.0238 64.3223 51.7963V36.3889C64.3223 36.1487 64.1959 35.934 63.9937 35.8201L60.7959 34.038ZM60.303 49.7614C60.303 49.8246 60.2777 49.8751 60.2271 49.9004L58.3944 50.9621C58.3688 50.9745 58.3407 50.981 58.3122 50.981C58.2837 50.981 58.2556 50.9745 58.23 50.9621L56.3974 49.9004C56.3467 49.8751 56.3215 49.8119 56.3215 49.7614V47.6379C56.3215 47.5747 56.3467 47.5242 56.3974 47.4989L58.23 46.4372C58.2556 46.4247 58.2837 46.4182 58.3122 46.4182C58.3407 46.4182 58.3688 46.4247 58.3944 46.4372L60.2271 47.4989C60.2777 47.5241 60.303 47.5874 60.303 47.6379V49.7614ZM78.63 47.5874C78.8324 47.4737 78.9461 47.2588 78.9461 47.0312V45.5272C78.9461 45.2997 78.8197 45.0848 78.63 44.9711L73.3089 41.8871C73.2107 41.8312 73.0996 41.8018 72.9866 41.8018C72.8736 41.8018 72.7625 41.8312 72.6643 41.8871L67.3052 44.9837C67.1029 45.0974 66.9766 45.3123 66.9766 45.5399V51.7205C66.9766 51.9479 67.1029 52.1628 67.3052 52.2766L72.6264 55.31C72.8287 55.4238 73.0687 55.4238 73.2584 55.31L76.4813 53.5154C76.5825 53.4648 76.6457 53.351 76.6457 53.2373C76.6457 53.1236 76.5825 53.0098 76.4813 52.9592L71.097 49.8626C70.9959 49.7995 70.9327 49.6983 70.9327 49.5846V47.6507C70.9327 47.537 70.9959 47.4233 71.097 47.3726L72.778 46.412C72.8273 46.381 72.8842 46.3646 72.9424 46.3646C73.0005 46.3646 73.0575 46.381 73.1067 46.412L74.7877 47.3726C74.8888 47.4358 74.952 47.5369 74.952 47.6507V49.1675C74.952 49.2812 75.0152 49.3949 75.1163 49.4454C75.2174 49.5087 75.3438 49.5087 75.4449 49.4454L78.63 47.5874Z" fill="#333333"></path>
      <path d="M72.9054 47.2963C72.9242 47.2839 72.9461 47.2773 72.9686 47.2773C72.991 47.2773 73.013 47.2839 73.0317 47.2963L74.0555 47.8903C74.0935 47.9155 74.1188 47.9534 74.1188 48.0041V49.1921C74.1188 49.2427 74.0935 49.2806 74.0555 49.3059L73.0317 49.8999C73.013 49.9123 72.991 49.9189 72.9686 49.9189C72.9461 49.9189 72.9242 49.9123 72.9054 49.8999L71.8816 49.3059C71.8436 49.2806 71.8184 49.2427 71.8184 49.1921V48.0041C71.8184 47.9534 71.8436 47.9155 71.8816 47.8903L72.9054 47.2963Z" fill="#539E43"></path>
      <path d="M43.9986 41.9125C43.9004 41.8565 43.7893 41.8271 43.6763 41.8271C43.5633 41.8271 43.4522 41.8565 43.354 41.9125L38.0328 44.9836C37.8305 45.0974 37.7168 45.3123 37.7168 45.5397V51.6952C37.7168 51.9227 37.8432 52.1376 38.0328 52.2513L43.354 55.3227C43.4522 55.3786 43.5633 55.408 43.6763 55.408C43.7893 55.408 43.9004 55.3786 43.9986 55.3227L49.3198 52.2513C49.522 52.1376 49.6359 51.9227 49.6359 51.6952V45.5398C49.6359 45.3124 49.5094 45.0975 49.3198 44.9837L43.9986 41.9125Z" fill="url(#paint0_linear_2466_7583)"></path>
    </g>
  </g>
  <defs>
    <linearGradient id="paint0_linear_2466_7583" x1="45.8442" y1="44.202" x2="40.0117" y2="53.3666" gradientUnits="userSpaceOnUse">
      <stop stop-color="#41873F"></stop>
      <stop offset="0.3288" stop-color="#418B3D"></stop>
      <stop offset="0.6352" stop-color="#419637"></stop>
      <stop offset="0.9319" stop-color="#3FA92D"></stop>
      <stop offset="1" stop-color="#3FAE2A"></stop>
    </linearGradient>
    <clipPath id="clip0_2466_7583">
      <rect width="102" height="102" fill="white"></rect>
    </clipPath>
    <clipPath id="clip1_2466_7583">
      <rect width="56" height="34.3392" fill="white" transform="translate(23 34)"></rect>
    </clipPath>
  </defs>
</svg>
