<?xml version="1.0" encoding="UTF-8"?>
<svg xmlns="http://www.w3.org/2000/svg" width="120" height="120" viewBox="0 0 120 120">
  <g transform="translate(889 3925)">
    <circle cx="60" cy="60" r="60" transform="translate(-889 -3925)" fill="#f6faff"></circle>
    <g transform="translate(-855.161 -3894.689)">
      <path d="M2.561,0H9.48A2.613,2.613,0,0,1,11.96,2.618q-.018,9.664-.038,19.327a1.823,1.823,0,0,0,1.826,1.843l6.132-.029a1.824,1.824,0,0,0,1.8-1.858q0-9.641,0-19.281A2.607,2.607,0,0,1,22.434.777,2.644,2.644,0,0,1,24.149,0h6.934a2.678,2.678,0,0,1,1.145.334A2.616,2.616,0,0,1,33.5,2.062a4.435,4.435,0,0,1,.058.981q0,9.521,0,19.043a1.7,1.7,0,0,0,1.669,1.664q9.335,0,18.669,0a2.314,2.314,0,0,1,2.335,2.313q0,15.487,0,30.973a2.317,2.317,0,0,1-2.334,2.34H2.937a3.647,3.647,0,0,1-1.285-.126A2.323,2.323,0,0,1,.09,57.089q0-27.234,0-54.469A2.606,2.606,0,0,1,.923.7,2.64,2.64,0,0,1,2.561,0M36.687,35.9A3.048,3.048,0,0,0,34,37.941a5.331,5.331,0,0,0-.166,1.835q0,2.221,0,4.441a3.035,3.035,0,0,0,2.356,2.937,5.531,5.531,0,0,0,1.284.078H41.5a5.294,5.294,0,0,0,1.4-.1,3.049,3.049,0,0,0,2.161-2.15,6.512,6.512,0,0,0,.1-1.65q0-2.2,0-4.4a3.036,3.036,0,0,0-2.382-2.965,6.64,6.64,0,0,0-1.38-.07C39.831,35.9,38.258,35.89,36.687,35.9Z" fill="#f60"></path>
    </g>
  </g>
</svg>
