<?xml version="1.0" encoding="UTF-8"?>
<svg xmlns="http://www.w3.org/2000/svg" width="102" height="102" viewBox="0 0 102 102">
  <g transform="translate(-290 -165)">
    <circle cx="51" cy="51" r="51" transform="translate(290 165)" fill="#f6faff"></circle>
    <g transform="translate(312.558 190.374)">
      <g transform="translate(0 1.35)">
        <path d="M26.824,1.833a8.549,8.549,0,0,1,3.265-.459,14.275,14.275,0,0,1,3.683,1.034c7.15,2.746,14.251,5.619,21.408,8.346a4.719,4.719,0,0,1,1.393.8,1.013,1.013,0,0,1,.311.574V12.3c-.029.064-.086.192-.115.256a6.1,6.1,0,0,1-1.979,1.452c-1.341.7-2.736,1.285-4.116,1.9-3.882,1.7-7.781,3.356-11.668,5.038-2.175.961-4.372,1.879-6.5,2.95a9.573,9.573,0,0,1-4.547,1.33,8.7,8.7,0,0,1-3.722-1.095c-3.067-1.354-6.175-2.612-9.268-3.906C11.245,18.678,7.509,17.15,3.8,15.552A18.145,18.145,0,0,1,.884,14.08,2.986,2.986,0,0,1,.1,13.33c-.025-.053-.075-.161-.1-.215v-.13a1.448,1.448,0,0,1,.807-1.032,15.191,15.191,0,0,1,2.327-1.035C9.65,8.37,16.163,5.813,22.7,3.315c1.369-.513,2.729-1.052,4.126-1.482M24.948,4.345c.412.779.84,1.55,1.257,2.327-1.387.5-2.779,1-4.164,1.508,1.862.2,3.734.339,5.6.52q.879,1.47,1.767,2.937c.367-.877.727-1.756,1.1-2.632,1.629-.168,3.257-.341,4.887-.5-1.262-.48-2.528-.946-3.791-1.424l1-2.407c-1.235.4-2.472.8-3.7,1.214-1.321-.5-2.631-1.032-3.951-1.538M39.414,9.905c-2.257.9-4.526,1.78-6.778,2.7,2.4.981,4.826,1.909,7.235,2.873a1.894,1.894,0,0,0,.5.155c.309-.086.6-.223.9-.329,2.228-.906,4.472-1.77,6.7-2.66a5.5,5.5,0,0,0,.889-.389q-3.838-1.5-7.663-3.026c-.613.179-1.191.46-1.791.68m-24.953.167a11.405,11.405,0,0,0-3.328.845,3.579,3.579,0,0,0-1.385,1,1.165,1.165,0,0,0-.222,1.055,2.284,2.284,0,0,0,1.111,1.187,9.51,9.51,0,0,0,3.215,1.019,17.456,17.456,0,0,0,4.9.049,11.02,11.02,0,0,0,3.035-.806,3.492,3.492,0,0,0,1.43-1.058,1.144,1.144,0,0,0,.16-1.073,2.438,2.438,0,0,0-1.14-1.147,9.613,9.613,0,0,0-3.106-.978,17.606,17.606,0,0,0-4.672-.094m5.555,7.412c3.022,1.287,6.066,2.523,9.1,3.787q1.9-2.775,3.793-5.557a2.217,2.217,0,0,0,.124-.23Q26.524,16.485,20.016,17.484Z" transform="translate(0 -1.35)" fill="#c6302b"></path>
        <path d="M43.673,201.627c3.516-1.526,7.06-2.993,10.528-4.627a9.7,9.7,0,0,1,2.114.962,1.2,1.2,0,0,1,.569.782v.18l-.112.249a6.544,6.544,0,0,1-2.176,1.558c-1.5.751-3.048,1.417-4.587,2.091-5.423,2.377-10.9,4.636-16.285,7.1-1.742.836-3.488,1.891-5.477,1.942a8.694,8.694,0,0,1-4.077-1.14c-3.987-1.738-8.018-3.371-12.032-5.047-3.18-1.332-6.378-2.626-9.527-4.031A6.407,6.407,0,0,1,.1,199.951l-.1-.224v-.177a1.473,1.473,0,0,1,.751-.939,10.153,10.153,0,0,1,1.911-.878c3.717,1.654,7.488,3.177,11.242,4.744,3.429,1.432,6.876,2.825,10.278,4.322a9.588,9.588,0,0,0,3.5,1.115,8.211,8.211,0,0,0,4.108-.974c2.008-1.028,4.08-1.924,6.144-2.833Q40.8,202.865,43.673,201.627Z" transform="translate(0 -178.326)" fill="#c6302b"></path>
        <path d="M44.945,300.251c3.229-1.41,6.489-2.751,9.663-4.281a11.276,11.276,0,0,1,1.321.578c.416.233.911.534.955,1.062v.139c0,.047-.008.141-.01.188a9.649,9.649,0,0,1-3.138,2.038c-2.892,1.343-5.832,2.577-8.756,3.846-3.6,1.551-7.209,3.077-10.776,4.7a23.423,23.423,0,0,1-4.9,2.043,6.649,6.649,0,0,1-4.112-.553c-1.936-.9-3.911-1.7-5.876-2.533-5-2.089-10.023-4.139-15.01-6.266a28.066,28.066,0,0,1-3.048-1.444,4.1,4.1,0,0,1-1.142-.955c-.04-.1-.078-.2-.115-.3v-.132a1.19,1.19,0,0,1,.492-.762,6.9,6.9,0,0,1,1.766-.9c.4.191.809.372,1.216.555,6.543,2.823,13.163,5.46,19.714,8.262,1.033.426,2.017.973,3.089,1.3a6.294,6.294,0,0,0,3.214.115,24.936,24.936,0,0,0,4.683-1.99C37.739,303.329,41.348,301.8,44.945,300.251Z" transform="translate(0 -267.85)" fill="#c6302b"></path>
      </g>
      <g transform="translate(9.479 4.345)">
        <path d="M233.837,32.73c1.32.506,2.63,1.036,3.951,1.538,1.232-.412,2.469-.813,3.7-1.214l-1,2.407c1.263.478,2.529.944,3.791,1.424-1.629.164-3.257.337-4.887.5-.369.876-.729,1.755-1.1,2.632q-.885-1.467-1.767-2.937c-1.866-.181-3.738-.316-5.6-.52,1.385-.513,2.777-1,4.164-1.508C234.677,34.28,234.249,33.509,233.837,32.73Z" transform="translate(-218.369 -32.73)" fill="#fff"></path>
        <path d="M104.3,91.676a17.606,17.606,0,0,1,4.672.094,9.613,9.613,0,0,1,3.106.978,2.438,2.438,0,0,1,1.14,1.147,1.145,1.145,0,0,1-.16,1.073,3.492,3.492,0,0,1-1.43,1.058,11.02,11.02,0,0,1-3.035.806,17.456,17.456,0,0,1-4.9-.049,9.51,9.51,0,0,1-3.215-1.019,2.284,2.284,0,0,1-1.111-1.187,1.165,1.165,0,0,1,.222-1.055,3.579,3.579,0,0,1,1.385-1A11.405,11.405,0,0,1,104.3,91.676Z" transform="translate(-99.321 -85.949)" fill="#fff"></path>
        <path d="M209.72,151.45q6.507-1,13.015-2a2.222,2.222,0,0,1-.124.23q-1.9,2.776-3.793,5.557C215.786,153.972,212.742,152.736,209.72,151.45Z" transform="translate(-199.183 -138.31)" fill="#fff"></path>
      </g>
      <g transform="translate(32.636 9.226)">
        <path d="M348.718,84.55c.6-.22,1.178-.5,1.791-.68,0,1.883.012,3.766,0,5.649a1.955,1.955,0,0,0,.065.426c-.3.106-.594.243-.9.329a1.894,1.894,0,0,1-.5-.155c-2.409-.964-4.833-1.892-7.235-2.873C344.192,86.33,346.461,85.452,348.718,84.55Z" transform="translate(-341.94 -83.87)" fill="#9a2928"></path>
      </g>
      <g transform="translate(41.204 9.226)">
        <path d="M431.717,83.87q3.828,1.522,7.663,3.026a5.5,5.5,0,0,1-.889.389c-2.233.89-4.477,1.754-6.7,2.66a1.953,1.953,0,0,1-.065-.426C431.729,87.636,431.714,85.753,431.717,83.87Z" transform="translate(-431.716 -83.87)" fill="#621b1c"></path>
      </g>
      <g transform="translate(56.769 12.302)">
        <path d="M594.79,116.356c.03-.064.087-.192.115-.256v5.771l-.076-.036C594.758,120.009,594.867,118.181,594.79,116.356Z" transform="translate(-594.79 -116.1)" fill="#7e2020" opacity="0.88"></path>
        <path d="M594.83,217.409l.112-.249v5.787l-.062-.081C594.776,221.05,594.912,219.226,594.83,217.409Z" transform="translate(-594.826 -207.514)" fill="#7e2020" opacity="0.88"></path>
      </g>
      <g transform="translate(0.031 12.558)">
        <path d="M55.287,120.232a6.1,6.1,0,0,0,1.98-1.452c.077,1.825-.032,3.654.039,5.478a1.5,1.5,0,0,1-.573.765,10.766,10.766,0,0,1-2.034,1.222c-3.468,1.634-7.012,3.1-10.528,4.627q-2.875,1.231-5.743,2.481c-2.063.909-4.136,1.8-6.144,2.833a8.211,8.211,0,0,1-4.108.974,9.588,9.588,0,0,1-3.5-1.115c-3.4-1.5-6.849-2.89-10.278-4.322-3.754-1.567-7.526-3.09-11.242-4.744a12.124,12.124,0,0,1-1.773-.95,2.286,2.286,0,0,1-.836-.865,5.037,5.037,0,0,0,.043-.634c-.007-1.66,0-3.32.006-4.978a2.986,2.986,0,0,0,.783.75,18.145,18.145,0,0,0,2.92,1.472c3.706,1.6,7.442,3.127,11.169,4.678,3.092,1.293,6.2,2.551,9.268,3.906a8.7,8.7,0,0,0,3.722,1.095,9.573,9.573,0,0,0,4.547-1.33c2.125-1.071,4.322-1.989,6.5-2.95,3.887-1.683,7.786-3.341,11.668-5.038C52.55,121.516,53.946,120.929,55.287,120.232Z" transform="translate(-0.529 -118.78)" fill="#912626"></path>
        <path d="M54.895,221.328a6.544,6.544,0,0,0,2.176-1.558c.082,1.817-.054,3.641.05,5.457a1.465,1.465,0,0,1-.533.748,9.583,9.583,0,0,1-1.682,1.068c-3.173,1.53-6.434,2.871-9.663,4.281-3.6,1.55-7.206,3.078-10.773,4.7a24.936,24.936,0,0,1-4.683,1.99,6.294,6.294,0,0,1-3.214-.115c-1.072-.324-2.056-.871-3.089-1.3-6.551-2.8-13.171-5.438-19.714-8.262-.407-.182-.813-.364-1.216-.555a8.593,8.593,0,0,1-1.7-1.009,1.3,1.3,0,0,1-.526-.758,1.748,1.748,0,0,0,.068-.5c-.012-1.657-.009-3.314,0-4.971a6.407,6.407,0,0,0,2.51,1.694c3.149,1.4,6.347,2.7,9.527,4.031,4.013,1.676,8.045,3.309,12.032,5.047a8.694,8.694,0,0,0,4.077,1.14c1.988-.052,3.735-1.106,5.477-1.942,5.386-2.462,10.861-4.721,16.285-7.1C51.847,222.745,53.392,222.079,54.895,221.328Z" transform="translate(-0.33 -210.131)" fill="#912626"></path>
        <path d="M54.1,318.628a9.649,9.649,0,0,0,3.138-2.038q0,2.6,0,5.2c.029.628-.531,1.04-.984,1.372a21.964,21.964,0,0,1-3.274,1.7c-5.3,2.37-10.663,4.6-15.974,6.938-1.533.68-3.069,1.354-4.558,2.126a8.374,8.374,0,0,1-4.7,1.09,15.813,15.813,0,0,1-4.162-1.516c-6.374-2.724-12.809-5.3-19.178-8.031A23.29,23.29,0,0,1,1.4,324,2.4,2.4,0,0,1,.4,323a10.245,10.245,0,0,0,.054-1.787c.017-1.246-.022-2.495.023-3.741a4.1,4.1,0,0,0,1.142.955,28.043,28.043,0,0,0,3.048,1.444c4.988,2.127,10.007,4.177,15.01,6.266,1.965.829,3.941,1.635,5.876,2.533a6.65,6.65,0,0,0,4.112.553,23.424,23.424,0,0,0,4.9-2.043c3.567-1.624,7.176-3.15,10.776-4.7C48.267,321.2,51.206,319.971,54.1,318.628Z" transform="translate(-0.393 -297.71)" fill="#912626"></path>
      </g>
      <g transform="translate(0 13.115)">
        <path d="M0,124.62c.026.053.076.161.1.215C.1,126.494.089,128.153.1,129.813a5.037,5.037,0,0,1-.043.634L0,130.339Z" transform="translate(0 -124.62)" fill="#832222" opacity="0.91"></path>
        <path d="M0,225.57l.1.224c-.011,1.657-.015,3.314,0,4.971a1.748,1.748,0,0,1-.068.5L0,231.358Z" transform="translate(0 -215.935)" fill="#832222" opacity="0.91"></path>
      </g>
      <g transform="translate(0 32.011)">
        <path d="M0,322.6c.037.1.075.2.115.3C.071,324.15.11,325.4.093,326.645a10.245,10.245,0,0,1-.054,1.787l-.038-.1Z" transform="translate(0 -322.6)" fill="#842222" opacity="0.91"></path>
      </g>
    </g>
  </g>
</svg>
