<svg width="32" height="32" viewBox="0 0 32 32" fill="none" xmlns="http://www.w3.org/2000/svg">
<path d="M32 16C32 7.16344 24.8366 0 16 0C7.16344 0 0 7.16344 0 16C0 24.8366 7.16344 32 16 32C24.8366 32 32 24.8366 32 16Z" fill="#4386D1" fill-opacity="0.04"/>
<g clip-path="url(#clip0_1138_12465)">
<path d="M9.19435 9.78488C8.83142 9.78488 8.53776 9.49121 8.53776 9.12828C8.53776 8.76535 8.83142 8.47168 9.19435 8.47168C9.55728 8.47168 9.85095 8.76535 9.85095 9.12828C9.85095 9.49121 9.55451 9.78488 9.19435 9.78488ZM9.19435 8.93989C9.08908 8.93989 9.00319 9.02577 9.00319 9.13105C9.00319 9.23633 9.08908 9.32221 9.19435 9.32221C9.3024 9.32221 9.38552 9.2391 9.38552 9.13105C9.38552 9.023 9.29963 8.93989 9.19435 8.93989Z" fill="#4386D1"/>
<path d="M8.46573 7.41016H21.9634C22.4759 7.41016 22.8943 7.82849 22.8943 8.34103V9.76227H23.8196C24.3321 9.76227 24.7505 10.1806 24.7505 10.6931V22.3651C24.7505 22.8776 24.3321 23.2959 23.8196 23.2959H17.6332V24.6424C17.6332 24.7698 17.5279 24.8751 17.4004 24.8751H13.0287C12.9012 24.8751 12.7959 24.7698 12.7959 24.6424V23.2959H10.3219C9.8094 23.2959 9.39106 22.8776 9.39106 22.3651V20.9438H8.46573C7.95319 20.9438 7.53485 20.5255 7.53485 20.013V8.34103C7.53485 7.82849 7.95319 7.41016 8.46573 7.41016ZM22.4288 8.34103C22.4288 8.08338 22.2183 7.87559 21.9634 7.87559H8.46573C8.20807 7.87559 8.00029 8.08615 8.00029 8.34103V10.3829H16.8325L17.8714 9.30515C17.9518 9.22203 18.0626 9.17494 18.1762 9.17494H20.4646C20.6973 9.17494 20.8884 9.3661 20.8884 9.59882V10.3829H22.4288V8.34103ZM23.8196 22.8333C24.0772 22.8333 24.285 22.6227 24.285 22.3678V10.6931C24.285 10.4355 24.0745 10.2277 23.8196 10.2277H22.8943V20.0157C22.8943 20.5283 22.4759 20.9466 21.9634 20.9466H16.9101C16.8186 21.1239 16.7771 21.3234 16.7937 21.5284H17.1539C17.4198 21.5284 17.6332 21.7445 17.6332 22.0077V22.8333H23.8196ZM15.4445 17.96C15.3974 17.8769 15.3115 17.8243 15.2146 17.8243C15.0705 17.8243 14.9541 17.9407 14.9541 18.0847C14.9541 18.1789 15.004 18.2648 15.0843 18.3119C15.173 18.3645 15.2783 18.359 15.3863 18.298C15.4002 18.2897 15.414 18.2786 15.4196 18.2648C15.5082 18.1235 15.4722 18.0127 15.4445 17.96ZM15.4473 17.4032C15.6163 17.4614 15.7603 17.575 15.849 17.7356C15.982 17.9739 15.9653 18.2648 15.8102 18.5141C15.7603 18.5917 15.6938 18.6554 15.6135 18.7025C15.4861 18.7746 15.3475 18.8133 15.2118 18.8133C15.0843 18.8133 14.9597 18.7801 14.8489 18.7164C14.6272 18.5862 14.4887 18.3451 14.4887 18.0875C14.4887 17.7689 14.6965 17.5002 14.9818 17.4032V16.2063L12.9234 19.9215C12.9262 19.9243 12.9289 19.9298 12.9372 19.9326C13.6659 20.121 14.1424 20.8025 14.1036 21.5284H16.3227C16.2812 20.7998 16.7605 20.1182 17.5029 19.9104L15.4473 16.2063V17.4032ZM13.2614 24.4097H17.1677L17.1539 21.9911H13.2752C13.2669 21.9911 13.2614 21.9966 13.2614 22.0049V24.4097ZM9.85649 22.3651C9.85649 22.6227 10.067 22.8305 10.3219 22.8305H12.7959V22.0049C12.7959 21.7389 13.012 21.5256 13.2752 21.5256H13.6354C13.652 21.3206 13.6077 21.1211 13.519 20.9438H9.85649V22.3651ZM8.46573 20.4812H13.0675C12.9926 20.4396 12.9123 20.4036 12.8237 20.3814C12.6768 20.3426 12.5577 20.2401 12.4967 20.1016C12.4386 19.9659 12.4469 19.8135 12.5189 19.6833L14.9015 15.3918C14.9624 15.2782 15.0816 15.2062 15.2118 15.2062C15.3448 15.209 15.4639 15.2755 15.5276 15.3891L17.913 19.6833C17.985 19.8135 17.9905 19.9686 17.9324 20.1044C17.8742 20.2429 17.7551 20.3426 17.6082 20.3814C17.5196 20.4036 17.442 20.4396 17.3644 20.4812H21.9634C22.221 20.4812 22.4288 20.2706 22.4288 20.0157V10.8483H20.8497C20.6169 10.8483 20.4258 10.6571 20.4258 10.4244V9.64037H18.1956L17.1566 10.7181C17.0763 10.8012 16.9655 10.8483 16.8519 10.8483H8.00029V20.013C8.00029 20.2706 8.20807 20.4812 8.46573 20.4812Z" fill="#4386D1"/>
<path d="M10.779 9.78488C10.4161 9.78488 10.1224 9.49121 10.1224 9.12828C10.1224 8.76535 10.4161 8.47168 10.779 8.47168C11.142 8.47168 11.4356 8.76535 11.4356 9.12828C11.4356 9.49121 11.142 9.78488 10.779 9.78488ZM10.779 8.93989C10.6738 8.93989 10.5879 9.02577 10.5879 9.13105C10.5879 9.23633 10.6738 9.32221 10.779 9.32221C10.8871 9.32221 10.9702 9.2391 10.9702 9.13105C10.9702 9.023 10.8843 8.93989 10.779 8.93989Z" fill="#4386D1"/>
<path d="M12.3665 9.78488C12.0036 9.78488 11.7099 9.49121 11.7099 9.12828C11.7099 8.76535 12.0036 8.47168 12.3665 8.47168C12.7295 8.47168 13.0231 8.76535 13.0231 9.12828C13.0231 9.49121 12.7295 9.78488 12.3665 9.78488ZM12.3665 8.93989C12.2613 8.93989 12.1754 9.02577 12.1754 9.13105C12.1754 9.23633 12.2613 9.32221 12.3665 9.32221C12.4746 9.32221 12.5577 9.2391 12.5577 9.13105C12.5577 9.023 12.4718 8.93989 12.3665 8.93989Z" fill="#4386D1"/>
<path d="M10.7292 12.8767C10.8649 13.0125 10.9508 13.1842 10.9841 13.3671H14.2394V13.0014C14.2394 12.752 14.4416 12.5498 14.6909 12.5498H15.7409C15.9903 12.5498 16.1925 12.752 16.1925 13.0014V13.3671H19.445C19.4755 13.187 19.5614 13.0152 19.6999 12.8739C20.0518 12.5276 20.653 12.5332 20.9965 12.8767C21.171 13.0513 21.2652 13.2812 21.2652 13.525C21.2652 13.7716 21.1683 14.0043 20.9965 14.1733C20.822 14.3534 20.5892 14.4448 20.3482 14.4448C20.1958 14.4448 20.0407 14.4088 19.8939 14.334C19.7359 14.2536 19.6057 14.1207 19.5282 13.9572C19.5088 13.9156 19.4921 13.8741 19.4783 13.8325H17.2204C18.4477 14.4309 19.373 15.5557 19.6944 16.9133H20.0545C20.3039 16.9133 20.5061 17.1155 20.5061 17.3649V18.4149C20.5061 18.6642 20.3039 18.8664 20.0545 18.8664H19.0045C18.7552 18.8664 18.553 18.6642 18.553 18.4149V17.3649C18.553 17.1155 18.7552 16.9133 19.0045 16.9133H19.2151C18.8272 15.4505 17.6553 14.3035 16.1842 13.9489V14.0486C16.1842 14.298 15.982 14.5002 15.7326 14.5002H14.6826C14.4333 14.5002 14.231 14.298 14.231 14.0486V13.9489C12.7627 14.3035 11.5908 15.4505 11.2002 16.9133H11.3913C11.6407 16.9133 11.8429 17.1155 11.8429 17.3649V18.4149C11.8429 18.6642 11.6407 18.8664 11.3913 18.8664H10.3413C10.092 18.8664 9.88974 18.6642 9.88974 18.4149V17.3649C9.88974 17.1155 10.092 16.9133 10.3413 16.9133H10.7209C11.045 15.5557 11.9704 14.4282 13.1949 13.8325H10.9314C10.8871 13.96 10.8151 14.0763 10.7181 14.1733C10.5436 14.3534 10.3109 14.4448 10.0698 14.4448C9.91745 14.4448 9.7623 14.4088 9.61547 14.334C9.45755 14.2536 9.32734 14.1207 9.24977 13.9572C9.06969 13.5776 9.13341 13.1648 9.41876 12.8739C9.78169 12.5304 10.3829 12.5332 10.7292 12.8767ZM19.952 13.7605C19.9853 13.827 20.0407 13.8852 20.1072 13.9184C20.3482 14.0403 20.556 13.9627 20.6696 13.8436C20.7555 13.7605 20.8026 13.6469 20.8026 13.525C20.8026 13.4059 20.7555 13.2923 20.6696 13.2036C20.5837 13.1177 20.4701 13.0706 20.3482 13.0706C20.2291 13.0706 20.1127 13.1177 20.0296 13.2009C19.8855 13.3505 19.8578 13.5582 19.952 13.7605ZM19.0101 18.401L20.0462 18.4149L20.0601 17.3787H19.0239L19.0101 18.401ZM10.3496 18.401L11.3858 18.4149L11.3996 17.3787H10.3635L10.3496 18.401ZM15.7243 14.0514L15.7299 13.7023C15.7243 13.6774 15.7243 13.6524 15.7271 13.6247V13.622C15.7271 13.6137 15.7215 13.6081 15.7215 13.5998C15.7215 13.586 15.7271 13.5749 15.7299 13.5638L15.7382 13.018H14.702L14.6937 13.5638C14.6965 13.5776 14.702 13.5887 14.702 13.6026C14.702 13.6109 14.6993 13.6164 14.6965 13.6247V13.6275C14.702 13.6635 14.6993 13.6968 14.6909 13.7272L14.6854 14.0403L15.7243 14.0514ZM9.68196 13.7605C9.7152 13.827 9.77061 13.8852 9.8371 13.9184C10.0781 14.0403 10.2859 13.9627 10.3995 13.8436C10.4854 13.7605 10.5325 13.6469 10.5325 13.525C10.5325 13.4059 10.4854 13.2923 10.3995 13.2036C10.3136 13.1177 10.2 13.0706 10.0781 13.0706C9.959 13.0706 9.84264 13.1177 9.75953 13.2009C9.61547 13.3505 9.58776 13.5582 9.68196 13.7605Z" fill="#4386D1"/>
</g>
<defs>
<clipPath id="clip0_1138_12465">
<rect width="18.285" height="18.285" fill="white" transform="matrix(-1 0 0 1 25.2852 7)"/>
</clipPath>
</defs>
</svg>
