<svg width="94" height="94" viewBox="0 0 94 94" fill="none" xmlns="http://www.w3.org/2000/svg">
<g clip-path="url(#clip0_275_252)">
<path d="M20.2687 71.8708L20.3177 70.8427V69.7656V24.4792V22.2761H22.5208H71.0875H72.9479H73.3396V22.7167C77.3542 27.4167 93.7062 46.2167 94 47C94 41.3208 92.9719 35.5438 90.7687 29.9136C81.2708 5.72814 54.05 -6.21769 29.8646 3.23126C5.72811 12.6802 -6.21772 39.95 3.23124 64.1354C8.9104 78.725 21.15 88.7615 35.201 92.4333C35.0542 92.0906 22.1781 74.3188 20.4156 71.8708H20.2687Z" fill="#AECCC6"/>
<path d="M94.0002 46.9511C93.7065 46.1677 77.3544 27.3677 73.3398 22.6677V24.4792V69.7167V70.7938V71.8708H20.4159C22.1784 74.3188 35.0544 92.0906 35.2013 92.4333C35.2502 92.4333 35.2992 92.4333 35.3482 92.4823C35.8377 92.6292 36.3763 92.7271 36.8659 92.825C36.9638 92.825 37.0127 92.874 37.1107 92.874C37.6002 92.9719 38.0409 93.0698 38.5304 93.1677C38.6284 93.1677 38.7263 93.2167 38.8242 93.2167C39.3138 93.3146 39.8523 93.4125 40.3909 93.4615C40.4888 93.4615 40.6357 93.5104 40.7336 93.5104C41.2232 93.5594 41.7617 93.6573 42.2513 93.7063C42.3002 93.7063 42.3002 93.7063 42.3492 93.7063C42.8877 93.7552 43.4263 93.8042 43.9648 93.8531C44.0627 93.8531 44.2096 93.8531 44.3075 93.8531C44.8461 93.9021 45.3846 93.9021 45.8742 93.9021C45.9232 93.9021 46.0211 93.9021 46.07 93.9021C46.5596 93.9021 47.0492 93.9021 47.5388 93.9021C47.6367 93.9021 47.7346 93.9021 47.8815 93.9021C48.42 93.9021 48.9586 93.8531 49.4482 93.8531C49.5461 93.8531 49.644 93.8531 49.7909 93.8531C50.2804 93.8042 50.77 93.8042 51.2596 93.7552C51.3086 93.7552 51.4065 93.7552 51.4554 93.7552C51.994 93.7063 52.5325 93.6573 53.0711 93.5594C53.169 93.5594 53.3159 93.5104 53.4138 93.5104C53.9523 93.4125 54.4909 93.3636 55.0294 93.2656C55.0784 93.2656 55.1273 93.2656 55.1273 93.2656C55.6169 93.1677 56.1554 93.0698 56.645 92.9719C56.7429 92.9719 56.8898 92.9229 56.9877 92.9229C57.5263 92.825 58.0648 92.6781 58.5544 92.5313C58.6523 92.4823 58.7502 92.4823 58.8482 92.4333C59.3377 92.2865 59.8273 92.1886 60.3169 92.0417C60.4148 91.9927 60.4638 91.9927 60.5617 91.9438C61.1002 91.7969 61.6388 91.6011 62.1284 91.4542C62.2263 91.4052 62.3731 91.3563 62.4711 91.3563C63.0096 91.1604 63.5482 90.9646 64.0867 90.7688C64.6252 90.5729 65.1148 90.3771 65.6044 90.1323C65.7023 90.0834 65.8492 90.0344 65.9471 89.9854C66.4367 89.7896 66.9263 89.5448 67.4159 89.3C67.4648 89.3 67.5138 89.2511 67.5627 89.2511C68.0034 89.0552 68.444 88.8104 68.8846 88.5656C68.9825 88.5167 69.1294 88.4677 69.2273 88.3698C69.7169 88.125 70.1575 87.8802 70.5982 87.5865C70.6471 87.5375 70.745 87.4886 70.794 87.4886C71.1857 87.2438 71.6263 86.999 72.0179 86.7542C72.1159 86.7052 72.2138 86.6073 72.3117 86.5583C72.7523 86.2646 73.1929 85.9708 73.6336 85.6771C73.7315 85.6281 73.7804 85.5792 73.8784 85.5302C74.27 85.2854 74.6127 84.9917 75.0044 84.7469C75.1023 84.6979 75.2002 84.6 75.2492 84.5511C75.6409 84.2573 76.0815 83.9146 76.4732 83.6208C76.5711 83.5719 76.62 83.474 76.7179 83.425C77.0607 83.1313 77.4034 82.8375 77.7461 82.5438C77.795 82.4948 77.8929 82.4458 77.9419 82.3479C78.3336 82.0052 78.7252 81.6625 79.0679 81.3198C79.1659 81.2219 79.2148 81.1729 79.3127 81.075C79.6554 80.7323 79.9982 80.4386 80.2919 80.0959C80.3409 80.0469 80.3898 79.9979 80.4388 79.949C80.7815 79.6063 81.1242 79.2146 81.5159 78.8229C81.6138 78.725 81.6627 78.6271 81.7607 78.5292C82.1034 78.1865 82.3971 77.7948 82.7398 77.4521C82.7398 77.4031 82.7888 77.4031 82.7888 77.3542C83.1315 76.9625 83.4252 76.5709 83.7679 76.1792C83.8659 76.0813 83.9148 75.9833 84.0127 75.8854C84.3065 75.4938 84.6492 75.0531 84.9429 74.6615C84.9429 74.6615 84.9429 74.6615 84.9429 74.6125C85.2367 74.2208 85.5304 73.7802 85.8242 73.3886C85.8732 73.2906 85.9711 73.1927 86.02 73.0948C86.3138 72.6542 86.5586 72.2625 86.8523 71.8219C86.9013 71.7729 86.9013 71.724 86.9502 71.675C87.195 71.2833 87.4398 70.8917 87.6846 70.4511C87.7336 70.3531 87.7825 70.2552 87.8804 70.1573C88.1252 69.7167 88.37 69.2761 88.6148 68.8354C88.6638 68.7865 88.6638 68.6886 88.7127 68.6396C88.9086 68.2479 89.1044 67.8563 89.3002 67.4156C89.3492 67.3177 89.3982 67.2198 89.4471 67.1219C89.6429 66.6813 89.8877 66.1917 90.0836 65.7511C90.1325 65.6531 90.1815 65.5552 90.1815 65.4573C90.3773 65.0656 90.5242 64.625 90.6711 64.2333C90.72 64.1354 90.769 64.0375 90.769 63.9396C90.9648 63.45 91.1117 63.0094 91.3075 62.5198C91.3565 62.4219 91.3565 62.324 91.4054 62.2261C91.5523 61.7854 91.6992 61.3938 91.8461 60.9531C91.895 60.8552 91.895 60.8063 91.944 60.7083C92.0909 60.2188 92.2377 59.7292 92.3846 59.2396C92.4336 59.1417 92.4336 58.9948 92.4825 58.8969C92.5804 58.4563 92.7273 58.0156 92.8252 57.575C92.8252 57.5261 92.8742 57.4771 92.8742 57.3792C92.9721 56.8896 93.07 56.4 93.1679 55.8615C93.1679 55.7636 93.2169 55.6167 93.2169 55.5188C93.3148 55.0292 93.4127 54.5396 93.4617 54.05C93.4617 54.0011 93.4617 54.0011 93.4617 53.9521C93.5596 53.4625 93.6086 52.924 93.6575 52.4344C93.6575 52.3365 93.7065 52.1896 93.7065 52.0427C93.7554 51.5531 93.8044 51.0146 93.8534 50.525C93.8534 50.4761 93.8534 50.4761 93.8534 50.4271C93.9023 49.9375 93.9023 49.4479 93.9513 48.9584C93.9513 48.8115 93.9513 48.7136 93.9513 48.5667C93.9513 48.0771 94.0002 47.5386 94.0002 46.9511C94.0002 47 94.0002 47 94.0002 46.9511C94.0002 47 94.0002 47 94.0002 46.9511Z" fill="#94AFA8"/>
<path d="M22.5204 69.7167H71.087V24.4792H22.5204V69.7167ZM35.2495 48.0282H32.9485V38.0407H47.8808V40.1949H35.2495V48.0282ZM31.2349 32.4595V36.4251H28.787V30.1584H48.0276V36.3761H41.4183V34.0751H45.6287V32.4105H39.6068V36.3761H37.1099V32.4105H35.2495V36.3761H32.9485V32.4105H31.2349V32.4595ZM37.012 44.1115V41.9084H39.7537V44.1115H37.012ZM37.2079 53.6584H43.7683V56.0084H37.2079V53.6584ZM39.7537 68.0032H37.012V65.7511H39.7537V68.0032ZM52.1401 68.0032H41.5162V64.0376H37.2079V57.5261H41.5162H42.2016H43.7193V65.7511H45.4329V53.6584H48.0276V65.7511H49.8881V53.6584H52.0912L52.1401 68.0032ZM56.5464 67.9053H53.9026V53.7074H56.5464V67.9053ZM56.5464 52.1407H53.9026V41.8595H56.5464V52.1407ZM64.9183 59.974H62.8131V61.9324H64.9183V68.0032H62.6172H58.4068V61.9324H60.4141V59.974H58.4068V49.6928H60.561V57.9667H62.6662V49.6928H64.9183V59.974ZM69.0797 68.0032H66.7787V49.7417H69.0797V68.0032ZM69.0797 48.1751H66.7787V45.923H69.0797V48.1751ZM49.937 30.1584H58.3089V28.347H49.937V26.1438H60.6589V28.249H62.5683V26.2907H64.6735H69.0797V32.3126H64.6735H64.4776H62.5193V30.3542H60.7079V32.5084H49.937V30.1584ZM49.937 34.124H69.0797V36.4251H49.937V34.124ZM49.937 38.0407H69.0797V44.1115H64.8693V47.9792H62.4704H58.4068V41.9084H62.4704H63.3516H66.7787V40.2438H49.937V38.0407ZM49.937 49.9376V41.9084H52.1401V52.1897H42.2016H41.5162H37.2079V45.874H41.5162V41.9084H43.7193V49.9376H45.4329V41.9084H48.1745V49.9376H49.937ZM24.5766 26.1438H48.0766V28.3959H26.9756V36.3761H24.5766V26.1438ZM24.5766 38.0407H31.2349V40.1949H24.5766V38.0407ZM24.5766 58.848V57.9667V51.9449V50.9167V41.9084H26.9266V45.874H28.836V41.9084H31.2839V48.1751H26.9266V49.8886H31.2839V51.6022V51.9449V56.0574H26.9266V58.0157H32.9974V49.9376H35.2006V59.8761H26.9266V63.8417H28.836V61.9324H30.4026H30.9412H35.2006V68.0032H30.9412H30.4026H28.836V65.9959H26.8287V67.9053H24.5766V58.848Z" fill="#97B7C1"/>
<path d="M62.4704 44.1604H60.7079V45.8739H62.4704V44.1604Z" fill="#97B7C1"/>
<path d="M41.5166 48.0281H39.6073V49.6437H41.5166V48.0281Z" fill="#97B7C1"/>
<path d="M41.5169 59.9736H39.5096V61.932H41.5169V59.9736Z" fill="#97B7C1"/>
<path d="M33.1933 63.8906H30.9413V65.751H33.1933V63.8906Z" fill="#97B7C1"/>
<path d="M28.8361 51.9448H26.8778V54.099H28.8361V51.9448Z" fill="#97B7C1"/>
<path d="M61.051 64.0376H60.6104V65.7511H62.5687V64.0376H61.6385H61.051Z" fill="#97B7C1"/>
<path d="M66.8278 28.2H64.6737V30.3541H66.8278V28.2Z" fill="#97B7C1"/>
<path d="M26.976 28.3959H48.0771V26.1438H24.5771V36.3761H26.976V28.3959Z" fill="#F6F5EE"/>
<path d="M35.2503 36.3762V32.4595H37.1107V36.3762H39.6076V32.4595H45.6295V34.1241H41.4191V36.3762H48.0774V30.1584H28.8368V36.3762H31.2357V32.4595H32.9493V36.3762H35.2503Z" fill="#F6F5EE"/>
<path d="M60.7083 30.3542H62.5198V32.3125H64.4781H64.674H69.0802V26.2907H64.674H62.5688V28.249H60.6594V26.1438H49.9375V28.3469H58.3094V30.1584H49.9375V32.4594H60.7083V30.3542ZM64.674 28.2H66.8281V30.3542H64.674V28.2Z" fill="#F6F5EE"/>
<path d="M69.0802 34.124H49.9375V36.4251H69.0802V34.124Z" fill="#F6F5EE"/>
<path d="M31.2354 38.0405H24.5771V40.1947H31.2354V38.0405Z" fill="#F6F5EE"/>
<path d="M47.9302 38.0405H32.9979V48.028H35.25V40.2437H47.9302V38.0405Z" fill="#F6F5EE"/>
<path d="M66.7792 41.9082H63.3521H62.4708H58.4073V48.028H62.4708H64.8698V44.1603H69.0802V38.0405H49.9375V40.1947H66.7792V41.9082ZM62.4708 45.8249H60.7083V44.1114H62.4708V45.8249Z" fill="#F6F5EE"/>
<path d="M69.0802 45.874H66.7791V48.1261H69.0802V45.874Z" fill="#F6F5EE"/>
<path d="M39.7541 41.9084H37.0125V44.1116H39.7541V41.9084Z" fill="#F6F5EE"/>
<path d="M56.5958 41.9084H53.9521V52.1897H56.5958V41.9084Z" fill="#F6F5EE"/>
<path d="M45.4329 41.9083V49.9375H43.7193V41.9083H41.5162V45.874H37.2079V52.1406H41.5162H42.2016H52.1401V41.8594H49.937V49.9375H48.2235V41.9083H45.4329ZM41.5162 49.6438H39.6068V48.0281H41.5162V49.6438Z" fill="#F6F5EE"/>
<path d="M43.7683 53.6582H37.2079V56.0082H43.7683V53.6582Z" fill="#F6F5EE"/>
<path d="M69.0802 49.7417H66.7791V68.0032H69.0802V49.7417Z" fill="#F6F5EE"/>
<path d="M56.5958 53.6584H53.9521V67.8564H56.5958V53.6584Z" fill="#F6F5EE"/>
<path d="M39.7541 65.751H37.0125V68.0031H39.7541V65.751Z" fill="#F6F5EE"/>
<path d="M26.8292 65.996H28.8365V68.0032H30.4031H30.9417H35.201V61.9324H30.9417H30.4031H28.8365V63.8418H26.9271V59.8762H35.201V49.9376H32.9979V57.9668H26.9271V56.0084H31.2354V51.8959V51.5532V49.8397H26.8781V48.1262H31.2354V41.9084H28.7875V45.8741H26.9271V41.9084H24.5771V50.9168V51.9449V57.9668V58.848V67.8564H26.8292V65.996ZM30.9417 63.8907H33.1938V65.7512H30.9417V63.8907ZM26.8781 51.9449H28.8365V54.0991H26.8781V51.9449Z" fill="#F6F5EE"/>
<path d="M49.937 65.7509H48.0766V53.6582H45.4818V65.7509H43.7683V57.5259H42.2506H41.5651H37.2079V64.0374H41.5162V68.003H52.1401V53.6582H49.937V65.7509ZM41.5162 61.9322H39.5089V59.9738H41.5162V61.9322Z" fill="#F6F5EE"/>
<path d="M62.6667 57.9666H60.5615V49.6926H58.4073V59.9739H60.4146V61.9322H58.4073V68.003H62.6177H64.9187V61.9322H62.8135V59.9739H64.9187V49.6926H62.6667V57.9666ZM62.5687 65.751H60.6104V64.0374H61.051H61.6385H62.5687V65.751Z" fill="#F6F5EE"/>
<path d="M72.9476 22.2761H71.0872H22.5205H20.2684V24.4792V69.7167V70.7938V71.8709H20.4642H73.2903V70.7938V69.7167V24.4792V22.7167V22.2761H72.9476ZM71.0872 69.7167H22.5205V24.4792H71.0872V69.7167Z" fill="#F6F5EE"/>
</g>
<defs>
<clipPath id="clip0_275_252">
<rect width="94" height="94" fill="white"/>
</clipPath>
</defs>
</svg>
