<svg width="94" height="94" viewBox="0 0 94 94" fill="none" xmlns="http://www.w3.org/2000/svg">
<g clip-path="url(#clip0_275_189)">
<path d="M47.1469 94C73.1043 94 94.1469 72.9574 94.1469 47C94.1469 21.0426 73.1043 0 47.1469 0C21.1895 0 0.146881 21.0426 0.146881 47C0.146881 72.9574 21.1895 94 47.1469 94Z" fill="#EAC0B1"/>
<path fill-rule="evenodd" clip-rule="evenodd" d="M94.1469 47C94.1469 65.7511 82.7885 83.5229 64.2823 90.7688C57.575 93.4125 50.6229 94.3917 43.9156 93.9021C43.8667 93.6573 31.5292 79.6552 23.3042 69.7657C23.3042 65.6532 30.6969 39.3136 24.1365 26.9761C27.4167 26.9761 64.4292 29.424 70.2062 26.9761C70.1573 26.9761 94 46.7552 94.1469 47Z" fill="#DCB3A7"/>
<path fill-rule="evenodd" clip-rule="evenodd" d="M22.5698 36.5229H71.1365C71.1365 36.5229 71.1365 33.2427 71.1365 29.8156C71.1365 26.3885 69.4719 25.7031 65.0167 25.7031C60.5615 25.7031 31.2354 25.7031 27.6125 25.7031C23.9896 25.7031 22.5698 26.8781 22.5698 28.9833C22.5698 31.0885 22.5698 36.5229 22.5698 36.5229Z" fill="#F16F67"/>
<path fill-rule="evenodd" clip-rule="evenodd" d="M28.8365 24.4302C28.8365 24.4302 28.8365 28.7385 28.8365 29.8645C28.8365 30.9906 29.375 31.0885 30.0604 31.0885C30.7458 31.0885 31.2354 31.0395 31.2354 29.326C31.2354 27.6125 31.2354 25.4583 31.2354 24.4302C31.2354 23.402 31.2354 23.0593 30.0115 23.0593C28.8365 23.1083 28.8365 23.451 28.8365 24.4302Z" fill="#F6F8EE"/>
<path fill-rule="evenodd" clip-rule="evenodd" d="M62.6177 24.4302C62.6177 24.4302 62.6177 28.7385 62.6177 29.8645C62.6177 30.9906 63.1562 31.0885 63.8417 31.0885C64.5271 31.0885 65.0167 31.0395 65.0167 29.326C65.0167 27.6125 65.0167 25.4583 65.0167 24.4302C65.0167 23.402 65.0167 23.0593 63.7927 23.0593C62.6177 23.1083 62.6177 23.451 62.6177 24.4302Z" fill="#F6F8EE"/>
<path fill-rule="evenodd" clip-rule="evenodd" d="M22.5698 36.5229C22.5698 36.5229 22.5698 65.4573 22.5698 67.4157C22.5698 69.374 22.8146 70.0594 25.5073 70.0594C28.2 70.0594 65.0656 70.0594 67.6115 70.0594C70.1573 70.0594 71.1365 69.9615 71.1365 67.4157C71.1365 64.8698 71.1365 36.5229 71.1365 36.5229H22.5698Z" fill="#F6F5EE"/>
<path d="M61.3937 41.0271H55.5187V46.9021H61.3937V41.0271Z" fill="#9EBDB7"/>
<path d="M61.3937 50.4761H55.5187V56.3511H61.3937V50.4761Z" fill="#9EBDB7"/>
<path d="M61.3937 59.729H55.5187V65.604H61.3937V59.729Z" fill="#9EBDB7"/>
<path d="M50.2802 41.0271H44.4052V46.9021H50.2802V41.0271Z" fill="#9EBDB7"/>
<path d="M50.2802 50.4761H44.4052V56.3511H50.2802V50.4761Z" fill="#9EBDB7"/>
<path d="M50.2802 59.729H44.4052V65.604H50.2802V59.729Z" fill="#9EBDB7"/>
<path d="M39.2156 41.0271H33.3406V46.9021H39.2156V41.0271Z" fill="#9EBDB7"/>
<path d="M39.2156 50.4761H33.3406V56.3511H39.2156V50.4761Z" fill="#9EBDB7"/>
<path d="M39.2156 59.729H33.3406V65.604H39.2156V59.729Z" fill="#9EBDB7"/>
</g>
<defs>
<clipPath id="clip0_275_189">
<rect width="94" height="94" fill="white"/>
</clipPath>
</defs>
</svg>
