<svg width="94" height="94" viewBox="0 0 94 94" fill="none" xmlns="http://www.w3.org/2000/svg">
<g clip-path="url(#clip0_275_516)">
<path d="M28.2979 36.8656C28.249 36.5719 28.249 36.2292 28.249 35.8865C27.7104 26.2417 36.3271 18.5552 41.9083 17.2823C47 16.1563 56.4 15.8136 62.7646 23.6469C62.9115 23.7448 63.0583 23.8427 63.1562 23.9406C63.1562 23.9406 89.4469 65.849 89.9854 66.0938C94.8812 55.0292 95.5667 42.1042 90.8177 29.9136C81.3688 5.77709 54.099 -6.16874 29.9625 3.28022C5.82604 12.7292 -6.07084 39.999 3.37812 64.1354C11.0156 83.6208 30.1583 95.1261 49.9865 93.9021C49.399 93.2167 38.5792 67.5625 31.1375 48.6156C29.2281 43.8177 28.3958 39.95 28.2979 36.8656Z" fill="#EA6F6C"/>
<path d="M63.2052 23.9407C63.0583 23.8428 62.9604 23.7449 62.8135 23.647C63.45 24.4303 64.0375 25.3116 64.625 26.2418C70.8917 36.6699 64.7719 46.9511 61.2469 49.8886C57.6729 52.8261 57.3792 54.8824 57.3792 56.8407C57.3792 58.7991 57.3792 63.1563 57.3792 63.1563H49.8885C49.8885 63.1563 49.8885 53.8543 49.8885 52.2876C49.8885 50.7209 49.7906 50.2803 46.4125 47.7345C46.4125 47.7345 42.3979 44.6011 41.076 43.4751C39.7542 42.3491 39.5094 41.272 40.2437 40.3907C40.9781 39.5095 42.251 39.6074 43.6708 40.7334C45.1885 41.9574 44.9437 42.0063 46.2656 42.7407C47.5875 43.4751 48.6156 43.2303 49.1052 43.1324C49.5948 42.9855 51.5042 41.3209 51.5042 41.3209C53.4135 39.4605 54.5396 39.5095 55.3719 40.2928C56.2042 41.0761 56.0573 42.1532 54.8823 43.4261C53.7073 44.6991 50.3781 48.1751 50.3781 48.1751L53.2177 50.7699C53.2177 50.7699 56.449 47.4897 58.1625 45.7272C59.974 43.8668 60.1698 40.8803 59.2396 39.0688C57.9667 36.7189 56.2042 35.8866 53.7562 35.8866C51.3083 35.8866 49.6927 37.8449 48.8115 38.5793C47.9302 39.3136 47.1958 38.873 46.0208 37.747C44.8458 36.572 39.95 34.7116 37.3552 38.1876C34.9073 41.4678 36.7677 44.8949 40.5375 47.9793C42.4469 49.5949 45.7271 52.2386 45.7271 52.2386L45.874 63.1563H38.0406C38.0406 63.1563 38.0406 60.3657 38.0406 56.5959C38.0406 52.8261 35.5927 50.9168 34.075 49.5459C32.6062 48.2241 29.0323 45.7272 28.2979 36.8657C28.3958 39.9501 29.2281 43.7689 31.1375 48.6157C38.5302 67.5626 49.399 93.2657 49.9865 93.9022H50.0354C50.0844 93.9022 50.1333 93.9022 50.2312 93.9022C50.7208 93.8532 51.1615 93.8532 51.651 93.8043C52.1406 93.7553 52.6302 93.7064 53.0708 93.6574C53.2177 93.6574 53.3646 93.6084 53.4625 93.6084C53.8542 93.5595 54.2458 93.5105 54.6375 93.4126C54.7354 93.4126 54.8333 93.3636 54.9802 93.3636C55.4698 93.2657 55.9104 93.2168 56.4 93.1188C56.449 93.1188 56.449 93.1188 56.4979 93.1188C56.5469 93.1188 56.5958 93.0699 56.6448 93.0699C57.1833 92.972 57.7708 92.8251 58.3094 92.6782C58.3583 92.6782 58.4073 92.6782 58.4562 92.6293C59.0437 92.4824 59.6313 92.3355 60.1698 92.1397C60.2677 92.0907 60.3656 92.0907 60.5125 92.0418C61.051 91.8949 61.6385 91.6991 62.1771 91.5032C62.275 91.4543 62.3729 91.4543 62.4708 91.4053C63.0583 91.2095 63.6458 91.0136 64.2333 90.7688C64.9677 90.4751 65.7021 90.1814 66.4365 89.8386C67.1708 89.4959 67.8562 89.1532 68.5417 88.8105C68.5417 88.8105 68.5417 88.8105 68.5906 88.8105C69.276 88.4678 69.9615 88.0761 70.5979 87.7334C70.5979 87.7334 70.6469 87.7334 70.6469 87.6845C71.2833 87.2928 71.9687 86.9011 72.5562 86.5095L72.6052 86.4605C73.2417 86.0689 73.8292 85.6282 74.4656 85.1876C74.5146 85.1876 74.5146 85.1386 74.5635 85.1386C75.151 84.698 75.7385 84.2574 76.326 83.8168C76.375 83.8168 76.375 83.7678 76.424 83.7678C77.0115 83.3272 77.55 82.8376 78.0885 82.348C78.1375 82.2991 78.1375 82.2991 78.1865 82.2501C78.725 81.7605 79.2635 81.2709 79.7531 80.7813C79.8021 80.7324 79.8021 80.7324 79.851 80.6834C80.3406 80.1938 80.8792 79.7043 81.3198 79.1657C81.3687 79.1168 81.3687 79.1168 81.4177 79.0678C81.9073 78.5293 82.3479 78.0397 82.8375 77.5011C82.8865 77.4522 82.8865 77.4032 82.9354 77.4032C83.376 76.8647 83.8167 76.3261 84.2573 75.7876C84.3062 75.7386 84.3062 75.6897 84.3552 75.6407C84.7958 75.1022 85.1875 74.5147 85.5792 73.9761C85.6281 73.9272 85.6281 73.8782 85.6771 73.8293C86.0687 73.2418 86.4604 72.7032 86.8031 72.1157C86.8521 72.0668 86.8521 72.0178 86.901 71.9688C87.2437 71.3813 87.6354 70.7938 87.9292 70.2063C87.9781 70.1574 87.9781 70.1084 88.0271 70.0595C88.3698 69.472 88.6635 68.8845 89.0062 68.248C89.0552 68.1991 89.0552 68.1501 89.1042 68.0522C89.3979 67.4647 89.6917 66.8282 89.9854 66.1918C89.9854 66.1428 90.0344 66.0938 90.0344 66.0938C89.4469 65.8001 63.2052 23.9407 63.2052 23.9407ZM47.7344 76.8647C42.9854 76.8647 41.7125 72.8991 41.7125 71.0876H54.1479C54.1479 71.0876 52.924 76.8647 47.7344 76.8647ZM55.9104 69.0803H39.901V65.0657H55.9104V69.0803Z" fill="#CE6565"/>
<path d="M55.9104 65.0657H39.901V69.0803H55.9104V65.0657Z" fill="#D9A25F"/>
<path d="M41.9083 17.2822C36.2781 18.5551 27.6615 26.2905 28.249 35.8864C28.249 36.2291 28.2979 36.5228 28.2979 36.8655C29.0323 45.678 32.6063 48.2239 34.075 49.5457C35.5927 50.9166 38.0406 52.826 38.0406 56.5958C38.0406 60.3655 38.0406 63.1562 38.0406 63.1562H45.825L45.6781 52.2385C45.6781 52.2385 42.4469 49.5457 40.4885 47.9791C36.7677 44.8458 34.9073 41.4676 37.3063 38.1874C39.901 34.7114 44.7969 36.6208 45.9719 37.7468C47.1469 38.9218 47.8813 39.3135 48.7625 38.5791C49.6438 37.8447 51.2594 35.8864 53.7073 35.8864C56.1552 35.8864 57.9667 36.6697 59.1906 39.0687C60.1698 40.8801 59.925 43.8666 58.1135 45.727C56.4 47.4895 53.1688 50.7697 53.1688 50.7697L50.3292 48.1749C50.3292 48.1749 53.6583 44.6989 54.8333 43.426C56.0083 42.153 56.1552 41.076 55.3229 40.2926C54.4906 39.5093 53.3646 39.4603 51.4552 41.3208C51.4552 41.3208 49.4969 42.9853 49.0563 43.1322C48.5667 43.2791 47.5385 43.5239 46.2167 42.7405C44.8948 42.0062 45.1396 41.9572 43.6219 40.7332C42.251 39.6072 40.9292 39.5093 40.1948 40.3905C39.4604 41.2718 39.7052 42.3489 41.0271 43.4749C42.349 44.601 46.3635 47.7343 46.3635 47.7343C49.7417 50.2801 49.8396 50.6718 49.8396 52.2874C49.8396 53.8541 49.8396 63.1562 49.8396 63.1562H57.3302C57.3302 63.1562 57.3302 58.7499 57.3302 56.8405C57.3302 54.8822 57.624 52.826 61.1979 49.8885C64.7719 46.951 70.8427 36.6697 64.576 26.2416C63.9885 25.3114 63.401 24.4301 62.7646 23.6468C56.4 15.8624 47 16.1562 41.9083 17.2822Z" fill="#D9A25F"/>
<path d="M47.7348 76.8645C52.9733 76.8645 54.1483 71.0874 54.1483 71.0874H41.6639C41.6639 72.8989 42.9858 76.8645 47.7348 76.8645Z" fill="#D9A25F"/>
</g>
<defs>
<clipPath id="clip0_275_516">
<rect width="94" height="94" fill="white"/>
</clipPath>
</defs>
</svg>
