<svg width="94" height="94" viewBox="0 0 94 94" fill="none" xmlns="http://www.w3.org/2000/svg">
<g clip-path="url(#clip0_275_286)">
<path d="M85.3836 74.0742C85.1878 74.368 84.943 74.7107 84.7472 75.0044C84.943 74.7107 85.1878 74.4169 85.3836 74.0742Z" fill="#F6F5EE"/>
<path d="M90.0837 65.7021C89.8879 66.1428 89.692 66.5344 89.4962 66.9751C89.741 66.5834 89.8879 66.1428 90.0837 65.7021Z" fill="#F6F5EE"/>
<path d="M52.1411 93.7061C51.7494 93.755 51.3088 93.804 50.9171 93.804C51.3088 93.804 51.7004 93.755 52.1411 93.7061Z" fill="#F6F5EE"/>
<path d="M50.5245 93.853C50.035 93.902 49.5454 93.902 49.0558 93.9509C49.5454 93.9509 50.035 93.902 50.5245 93.853Z" fill="#F6F5EE"/>
<path d="M92.6292 58.2605C92.5313 58.7011 92.3844 59.1417 92.2865 59.6313C92.3844 59.1417 92.5313 58.7011 92.6292 58.2605Z" fill="#F6F5EE"/>
<path d="M86.3625 72.6543C86.1177 73.046 85.824 73.4376 85.5792 73.8293C85.824 73.4376 86.1177 73.046 86.3625 72.6543Z" fill="#F6F5EE"/>
<path d="M43.7687 93.902C43.2792 93.853 42.7896 93.8041 42.3 93.7551C42.7896 93.8041 43.2792 93.853 43.7687 93.902Z" fill="#F6F5EE"/>
<path d="M20.6604 71.3323C20.1708 70.8427 20.0729 70.1083 20.3667 69.5208C20.0729 68.9333 20.1708 68.199 20.6604 67.7094L21.3948 66.975C21.3458 64.2823 21.2479 60.7084 21.1011 56.6938L20.8563 56.449C20.3667 55.9594 20.2688 55.225 20.5625 54.6375C20.2688 54.05 20.3667 53.3156 20.8563 52.8261L20.9542 52.7281C20.7094 46.7552 20.4156 40.1948 20.1219 34.5156C19.9261 34.2708 19.8281 33.9281 19.8281 33.5854V32.2146V31.3823V30.0115C19.8281 29.9136 19.8281 29.7667 19.8771 29.6688C19.8771 29.5708 19.8771 29.5219 19.8771 29.424C19.8771 29.424 19.9261 29.424 19.975 29.424C20.2198 28.8365 20.8073 28.3958 21.4927 28.3958H28.1511V23.1083V21.7375C28.1511 20.8563 28.8854 20.1219 29.7667 20.1219H31.8719C32.7531 20.1219 33.5365 20.8563 33.5365 21.7375V23.1083V28.3958H40.1458C40.6844 28.3958 41.174 28.6896 41.4677 29.1302C45.2865 29.1302 49.35 29.1792 53.1688 29.2281C53.4625 28.7386 53.9521 28.4448 54.5396 28.4448H73.2906C74.1719 28.4448 74.9063 29.1792 74.9063 30.0604V30.1094C81.075 37.3552 93.8531 51.7 93.8042 51.9448C94.5875 44.699 93.6573 37.1594 90.8177 29.9136C81.3198 5.72814 54.05 -6.21769 29.8646 3.23126C5.67918 12.6802 -6.21769 39.95 3.23126 64.1354C9.20418 79.4594 22.374 89.8386 37.3552 93.0208C37.0125 92.6781 22.1781 73.1927 21.2479 71.9198L20.6604 71.3323Z" fill="#F6F5EE"/>
<path d="M92.9226 56.8408C92.8247 57.2325 92.7758 57.5752 92.6779 57.9669C92.7758 57.5752 92.8737 57.2325 92.9226 56.8408Z" fill="#F6F5EE"/>
<path d="M40.4393 93.5103C39.9497 93.4613 39.5091 93.3634 39.0685 93.3145C39.5091 93.4124 39.9497 93.4613 40.4393 93.5103Z" fill="#F6F5EE"/>
<path d="M87.1462 71.4302C86.9504 71.7729 86.7545 72.0666 86.5587 72.4093C86.7545 72.0666 86.9504 71.7729 87.1462 71.4302Z" fill="#F6F5EE"/>
<path d="M38.9708 93.3145C38.4812 93.2166 37.9917 93.1187 37.5021 93.0208C37.9917 93.1187 38.4812 93.2166 38.9708 93.3145Z" fill="#F6F5EE"/>
<path d="M83.6209 76.4729C83.3271 76.8156 83.0334 77.2073 82.7396 77.55C83.0334 77.2073 83.3271 76.8156 83.6209 76.4729Z" fill="#F6F5EE"/>
<path d="M93.5104 53.6584C93.4615 54.148 93.3635 54.5887 93.2656 55.0782C93.3635 54.5887 93.4615 54.148 93.5104 53.6584Z" fill="#F6F5EE"/>
<path d="M82.4456 77.8438C82.2008 78.1375 81.956 78.4312 81.6622 78.676C81.956 78.4312 82.2008 78.1375 82.4456 77.8438Z" fill="#F6F5EE"/>
<path d="M90.6712 64.3799C90.5243 64.7226 90.3775 65.0653 90.2306 65.408C90.3775 65.1143 90.5243 64.7226 90.6712 64.3799Z" fill="#F6F5EE"/>
<path d="M88.0273 69.9126C87.7825 70.3043 87.5867 70.6959 87.3419 71.0876C87.5867 70.6959 87.7825 70.3043 88.0273 69.9126Z" fill="#F6F5EE"/>
<path d="M48.7625 93.9512C48.3219 93.9512 47.9302 94.0001 47.4896 94.0001C47.9302 94.0001 48.3709 94.0001 48.7625 93.9512Z" fill="#F6F5EE"/>
<path d="M84.5025 75.3467C84.2087 75.7383 83.915 76.0811 83.6212 76.4727C83.915 76.0811 84.2087 75.6894 84.5025 75.3467Z" fill="#F6F5EE"/>
<path d="M92.1885 59.925C92.0906 60.2678 91.9927 60.6594 91.8458 61.0021C91.9437 60.6594 92.0906 60.2678 92.1885 59.925Z" fill="#F6F5EE"/>
<path d="M91.2583 62.7646C91.1114 63.2053 90.9646 63.5969 90.7687 64.0376C90.9646 63.5969 91.1114 63.1563 91.2583 62.7646Z" fill="#F6F5EE"/>
<path d="M91.7484 61.3447C91.6015 61.7854 91.4546 62.226 91.3077 62.6666C91.4546 62.2749 91.6015 61.8343 91.7484 61.3447Z" fill="#F6F5EE"/>
<path d="M93.2657 55.1272C93.1677 55.5678 93.1188 56.0084 93.0209 56.4491C93.1188 56.0084 93.2167 55.5678 93.2657 55.1272Z" fill="#F6F5EE"/>
<path d="M74.1229 85.3833C73.8292 85.6281 73.4864 85.8239 73.1437 86.0198C73.4864 85.8239 73.8292 85.5791 74.1229 85.3833Z" fill="#F6F5EE"/>
<path d="M69.9618 87.978C69.6191 88.1739 69.2764 88.3697 68.9337 88.5655C69.2764 88.3697 69.6191 88.1739 69.9618 87.978Z" fill="#F6F5EE"/>
<path d="M67.0235 89.4961C66.6808 89.643 66.2891 89.8388 65.9464 89.9857C66.2891 89.8388 66.6318 89.6919 67.0235 89.4961Z" fill="#F6F5EE"/>
<path d="M68.6396 88.7124C68.199 88.9572 67.7584 89.153 67.3177 89.3489C67.7584 89.153 68.199 88.9572 68.6396 88.7124Z" fill="#F6F5EE"/>
<path d="M71.5767 87.0479C71.1851 87.2926 70.7445 87.5374 70.3038 87.7822C70.7445 87.5374 71.1851 87.2926 71.5767 87.0479Z" fill="#F6F5EE"/>
<path d="M72.85 86.2646C72.4583 86.5094 72.0177 86.8032 71.626 87.048C72.0177 86.8032 72.4094 86.5094 72.85 86.2646Z" fill="#F6F5EE"/>
<path d="M93.7066 52.1406C93.6576 52.5323 93.6087 52.875 93.5597 53.2667C93.6087 52.924 93.6576 52.5323 93.7066 52.1406Z" fill="#F6F5EE"/>
<path d="M75.5423 84.3062C75.1506 84.5999 74.759 84.8937 74.3673 85.1384C74.8079 84.8937 75.1996 84.5999 75.5423 84.3062Z" fill="#F6F5EE"/>
<path d="M58.8969 92.4824C58.4563 92.5803 58.0646 92.6783 57.624 92.7762C58.0156 92.6783 58.4563 92.5803 58.8969 92.4824Z" fill="#F6F5EE"/>
<path d="M60.757 91.9438C60.2674 92.0907 59.7778 92.2376 59.2882 92.3845C59.7778 92.2376 60.2674 92.0907 60.757 91.9438Z" fill="#F6F5EE"/>
<path d="M65.5059 90.1812C65.0652 90.377 64.5756 90.5728 64.0861 90.7687C64.5756 90.5728 65.0652 90.377 65.5059 90.1812Z" fill="#F6F5EE"/>
<path d="M64.1359 90.7686C63.6463 90.9644 63.1567 91.1602 62.6671 91.3071C63.1567 91.1113 63.6463 90.9644 64.1359 90.7686Z" fill="#F6F5EE"/>
<path d="M62.275 91.4541C61.8344 91.601 61.3938 91.7478 60.9531 91.8947C61.3448 91.7478 61.7854 91.601 62.275 91.4541Z" fill="#F6F5EE"/>
<path d="M79.1661 81.2705C78.8234 81.6132 78.4807 81.907 78.089 82.2497C78.4807 81.907 78.8234 81.5643 79.1661 81.2705Z" fill="#F6F5EE"/>
<path d="M45.4333 93.9511C44.9927 93.9511 44.5521 93.9021 44.1604 93.9021C44.601 93.9511 45.0417 93.9511 45.4333 93.9511Z" fill="#F6F5EE"/>
<path d="M89.3979 67.2688C89.251 67.6115 89.0552 67.9542 88.9083 68.2969C89.0552 67.9542 89.2021 67.6115 89.3979 67.2688Z" fill="#F6F5EE"/>
<path d="M53.9521 93.4614C53.4625 93.5593 52.9729 93.6083 52.4833 93.6573C52.9729 93.6083 53.4625 93.5593 53.9521 93.4614Z" fill="#F6F5EE"/>
<path d="M88.7129 68.6396C88.517 69.0803 88.2723 69.4719 88.0275 69.8636C88.2723 69.4719 88.4681 69.0803 88.7129 68.6396Z" fill="#F6F5EE"/>
<path d="M55.5188 93.2168C55.1271 93.3147 54.6865 93.3637 54.2948 93.4126C54.6865 93.3637 55.0781 93.3147 55.5188 93.2168Z" fill="#F6F5EE"/>
<path d="M42.2021 93.7553C41.7614 93.7063 41.2719 93.6574 40.8312 93.6084C41.2719 93.6574 41.7614 93.7063 42.2021 93.7553Z" fill="#F6F5EE"/>
<path d="M57.3792 92.825C56.8896 92.9229 56.4 93.0208 55.9104 93.1187C56.351 93.0697 56.8406 92.9718 57.3792 92.825Z" fill="#F6F5EE"/>
<path d="M78.0889 82.25C77.7462 82.5438 77.3545 82.8865 77.0118 83.1802C77.4035 82.8375 77.7462 82.5438 78.0889 82.25Z" fill="#F6F5EE"/>
<path d="M76.7174 83.4248C76.4237 83.6696 76.1299 83.9144 75.7872 84.1592C76.1299 83.9144 76.4237 83.6696 76.7174 83.4248Z" fill="#F6F5EE"/>
<path d="M81.5157 78.9209C81.173 79.2636 80.8792 79.6063 80.5365 79.949C80.8302 79.6063 81.173 79.2636 81.5157 78.9209Z" fill="#F6F5EE"/>
<path d="M80.2914 80.1938C80.0466 80.4876 79.7529 80.7324 79.4591 80.9772C79.7529 80.7324 79.9976 80.4386 80.2914 80.1938Z" fill="#F6F5EE"/>
<path d="M21.1007 56.6938C21.2476 60.7084 21.3455 64.2824 21.3945 66.9751L26.3882 61.9813L21.1007 56.6938Z" fill="#EAE9E5"/>
<path d="M19.8281 29.4729C19.8281 29.5708 19.8281 29.6198 19.8281 29.7177C19.8281 29.6198 19.8771 29.5708 19.926 29.4729C19.8771 29.4729 19.8771 29.4729 19.8281 29.4729Z" fill="#EAE9E5"/>
<path d="M82.4461 77.8437C82.5441 77.7458 82.642 77.6478 82.6909 77.5499C82.9847 77.2072 83.2784 76.8645 83.5722 76.4728C83.5722 76.4728 83.5722 76.4729 83.5722 76.4239C83.8659 76.0322 84.1597 75.6895 84.4534 75.2979C84.5514 75.1999 84.6003 75.102 84.6982 75.0041C84.943 74.7103 85.1389 74.4166 85.3347 74.0739C85.3837 73.976 85.4816 73.8781 85.5305 73.8291C85.7753 73.4374 86.0691 73.0458 86.3139 72.6541C86.3628 72.5562 86.4118 72.4583 86.4607 72.4093C86.6566 72.0666 86.8524 71.7728 87.0482 71.4301C87.0972 71.3322 87.1951 71.1853 87.2441 71.0874C87.4889 70.6958 87.6847 70.3041 87.9295 69.9124C87.9295 69.9124 87.9295 69.8635 87.9784 69.8635C88.2232 69.4718 88.4191 69.0312 88.6639 68.6395C88.7128 68.5416 88.7618 68.3947 88.8597 68.2968C89.0066 67.9541 89.2024 67.6114 89.3493 67.2687C89.3982 67.1708 89.4472 67.0728 89.4962 66.9749C89.692 66.5343 89.8878 66.1426 90.0836 65.702C90.1326 65.6041 90.1816 65.5062 90.1816 65.4083C90.3284 65.0656 90.4753 64.7228 90.6222 64.3801C90.6712 64.2333 90.7201 64.1353 90.7691 63.9885C90.9159 63.5478 91.1118 63.1562 91.2586 62.7156V62.6666C91.4055 62.226 91.5524 61.7854 91.6993 61.3447C91.7482 61.1978 91.7972 61.0999 91.7972 60.9531C91.8951 60.6103 91.993 60.2187 92.1399 59.876C92.1889 59.7781 92.1889 59.6801 92.2378 59.5822C92.3847 59.1416 92.4826 58.701 92.5805 58.2114C92.5805 58.1135 92.6295 58.0156 92.6295 57.9176C92.7274 57.526 92.8253 57.1833 92.8743 56.7916C92.9232 56.6447 92.9232 56.5468 92.9722 56.3999C93.0701 55.9593 93.168 55.5187 93.217 55.0781V55.0291C93.3149 54.5885 93.3639 54.0989 93.4618 53.6093C93.4618 53.4624 93.5107 53.3645 93.5107 53.2176C93.5597 52.826 93.6087 52.4833 93.6576 52.0916C93.6576 51.9937 93.6576 51.9447 93.7066 51.8468C93.7555 51.602 81.0264 37.2572 74.8087 30.0114V31.3333V32.1656V33.5364C74.8087 34.4176 74.0743 35.152 73.193 35.152H54.442C53.5607 35.152 52.8264 34.4176 52.8264 33.5364V32.1656V31.3333V29.9624C52.8264 29.6687 52.9243 29.3749 53.0712 29.1301C49.2524 29.0812 45.2378 29.0812 41.4191 29.0322C41.6149 29.277 41.7618 29.6197 41.7618 29.9624V31.3333V32.1656V33.5364C41.7618 34.4176 41.0274 35.152 40.1462 35.152L33.4878 35.201L33.4389 40.4395V41.8104C33.4389 42.6916 32.8024 43.426 31.9212 43.426H29.718C28.8368 43.426 28.1024 42.6916 28.1024 41.8104V40.4395V35.201H21.4441C20.9055 35.201 20.4159 34.9072 20.1222 34.5156C20.4159 40.1947 20.7097 46.7062 20.9545 52.7281L22.4232 51.2593C23.0597 50.6229 24.0878 50.6229 24.7243 51.2593L30.942 57.477L37.2087 51.2104C37.8451 50.5739 38.8732 50.7208 39.5097 51.3572L41.0764 52.9239C41.5659 53.4135 41.5659 54.0499 41.2722 54.6374C41.5659 55.2249 41.4191 55.9593 40.9295 56.4489L35.3972 62.0301L41.0274 67.6603C41.517 68.1499 41.5659 68.8843 41.2722 69.4718C41.5659 70.0593 41.2722 70.7447 40.7826 71.2343L39.3139 72.6051C38.6774 73.2416 37.7962 73.3885 37.1597 72.752L30.942 66.5343L24.5284 72.9478C23.892 73.5843 22.8639 73.5843 22.2274 72.9478L21.2482 71.9687C22.1784 73.1926 37.0128 92.6781 37.3555 93.0697C37.4045 93.0697 37.4534 93.0697 37.5024 93.1187C37.992 93.2166 38.4816 93.3145 38.9712 93.4124H39.0201C39.4607 93.5103 39.9503 93.5593 40.3909 93.6083C40.5378 93.6083 40.6357 93.6572 40.7826 93.6572C41.2232 93.7062 41.7128 93.7551 42.1534 93.8041C42.2024 93.8041 42.2024 93.8041 42.2514 93.8041C42.7409 93.8531 43.2305 93.902 43.7201 93.951C43.867 93.951 43.9649 93.951 44.1118 93.951C44.5524 93.9999 44.993 93.9999 45.3847 93.9999C45.4337 93.9999 45.5316 93.9999 45.5805 93.9999C46.0701 93.9999 46.5597 93.9999 47.0493 93.9999C47.1962 93.9999 47.2941 93.9999 47.4409 93.9999C47.8816 93.9999 48.2732 93.9999 48.7139 93.951C48.8118 93.951 48.9097 93.951 49.0076 93.951C49.4972 93.951 49.9868 93.902 50.4764 93.8531C50.5743 93.8531 50.7212 93.8531 50.8191 93.8041C51.2107 93.7551 51.6514 93.7062 52.043 93.7062C52.1409 93.7062 52.2878 93.7062 52.3857 93.6572C52.8753 93.6083 53.3649 93.5103 53.8545 93.4614C53.9524 93.4614 54.0503 93.4124 54.1482 93.4124C54.5399 93.3635 54.9805 93.2656 55.3722 93.2166C55.4701 93.2166 55.617 93.1676 55.7149 93.1676C56.2045 93.0697 56.6941 92.9718 57.1837 92.8739C57.2816 92.8739 57.3305 92.8249 57.4284 92.8249C57.8691 92.727 58.2607 92.6291 58.7014 92.5312C58.8482 92.4822 58.9462 92.4822 59.093 92.4333C59.5826 92.2864 60.0722 92.1395 60.5618 91.9926C60.6107 91.9926 60.6597 91.9437 60.7087 91.9437C61.1493 91.7968 61.5899 91.6499 62.0305 91.5031C62.1774 91.4541 62.2753 91.4051 62.4222 91.3562C62.9118 91.1604 63.4014 91.0135 63.8909 90.8176C64.3805 90.6218 64.8211 90.426 65.3107 90.2301C65.4576 90.1812 65.5555 90.1322 65.7024 90.0833C66.0451 89.9364 66.4368 89.7406 66.7795 89.5937C66.8774 89.5447 66.9753 89.4958 67.0732 89.4468C67.5139 89.251 67.9545 89.0062 68.3951 88.8103C68.493 88.7614 68.5909 88.7124 68.6889 88.6635C69.0316 88.4676 69.3743 88.2718 69.717 88.076C69.8149 88.027 69.9618 87.9291 70.0597 87.8801C70.5003 87.6353 70.892 87.3906 71.3326 87.1458C71.7732 86.901 72.1649 86.6072 72.5566 86.3624C72.6545 86.2645 72.8014 86.2156 72.8993 86.1176C73.242 85.9218 73.5357 85.677 73.8784 85.4812C73.9764 85.4322 74.0743 85.3343 74.1722 85.2853C74.5639 84.9916 74.9555 84.6978 75.3472 84.4531C75.4451 84.4041 75.4941 84.3062 75.592 84.2572C75.8857 84.0124 76.1795 83.7676 76.5222 83.5229C76.6201 83.4249 76.718 83.376 76.8159 83.2781C77.1586 82.9843 77.5503 82.6906 77.893 82.3478C78.2357 82.0541 78.6274 81.7114 78.9701 81.3687C79.068 81.2708 79.1659 81.1729 79.2639 81.0749C79.5576 80.8301 79.8024 80.5364 80.0962 80.2916C80.1941 80.1937 80.243 80.1447 80.3409 80.0468C80.6837 79.7041 80.9774 79.3614 81.3201 79.0187C81.3691 78.9208 81.467 78.8718 81.5159 78.7739C81.9566 78.4312 82.2014 78.1374 82.4461 77.8437ZM61.0024 51.651C61.0024 50.1333 62.2753 48.8604 63.793 48.8604C65.3107 48.8604 66.5837 50.1333 66.5837 51.651C66.5837 51.8958 66.5347 52.0916 66.4857 52.3364C66.5347 52.5322 66.5837 52.777 66.5837 53.0218C66.5837 54.5395 65.3107 55.8124 63.793 55.8124C62.2753 55.8124 61.0024 54.5395 61.0024 53.0218C61.0024 52.777 61.0514 52.5812 61.1003 52.3364C61.0024 52.1406 61.0024 51.8958 61.0024 51.651ZM66.5837 69.5208C66.5837 71.0385 65.3107 72.3114 63.793 72.3114C62.2753 72.3114 61.0024 71.0385 61.0024 69.5208C61.0024 69.276 61.0514 69.0801 61.1003 68.8354C61.0514 68.6395 61.0024 68.3947 61.0024 68.1499C61.0024 66.6322 62.2753 65.3593 63.793 65.3593C65.3107 65.3593 66.5837 66.6322 66.5837 68.1499C66.5837 68.3947 66.5347 68.5906 66.4857 68.8354C66.5347 69.0312 66.5837 69.276 66.5837 69.5208ZM74.8576 60.0718V60.9041V62.2749C74.8576 63.1562 74.1232 63.8906 73.242 63.8906H54.4909C53.6097 63.8906 52.8753 63.1562 52.8753 62.2749V60.9041V60.0718V58.701C52.8753 57.8197 53.6097 57.0854 54.4909 57.0854H73.242C74.1232 57.0854 74.8576 57.8197 74.8576 58.701V60.0718Z" fill="#EAE9E5"/>
<path d="M31.8716 41.9084L29.7174 42.1043C28.8362 42.1043 28.0529 41.3209 28.0529 40.4397V41.8105C28.0529 42.6918 28.8362 43.4751 29.7174 43.4751H31.9206C32.8018 43.4751 33.4872 42.7407 33.4872 41.8595V40.4887C33.4872 41.3699 32.7529 41.9084 31.8716 41.9084Z" fill="#CE6565"/>
<path d="M40.1458 33.8305H33.4875V35.2013H40.1948C41.076 35.2013 41.7614 34.4669 41.7614 33.5857V32.2148C41.7614 33.0961 41.0271 33.8305 40.1458 33.8305Z" fill="#CE6565"/>
<path d="M21.4437 33.8305C20.5625 33.8305 19.8281 33.0961 19.8281 32.2148V33.5857C19.8281 33.9284 19.926 34.2221 20.1219 34.5159C20.4156 34.9565 20.9052 35.2013 21.4437 35.2013H28.1021V33.8305H21.4437Z" fill="#CE6565"/>
<path d="M73.2417 33.8305H54.4906C53.6094 33.8305 52.875 33.0961 52.875 32.2148V33.5857C52.875 34.4669 53.6094 35.2013 54.4906 35.2013H73.2417C74.1229 35.2013 74.8573 34.4669 74.8573 33.5857V32.2148C74.8573 33.0961 74.1229 33.8305 73.2417 33.8305Z" fill="#EAE9E5"/>
<path opacity="0.45" d="M73.2417 33.8305H54.4906C53.6094 33.8305 52.875 33.0961 52.875 32.2148V33.5857C52.875 34.4669 53.6094 35.2013 54.4906 35.2013H73.2417C74.1229 35.2013 74.8573 34.4669 74.8573 33.5857V32.2148C74.8573 33.0961 74.1229 33.8305 73.2417 33.8305Z" fill="#95A3A0"/>
<path d="M73.2417 62.5199H54.4906C53.6094 62.5199 52.875 61.7855 52.875 60.9043V62.2751C52.875 63.1564 53.6094 63.8908 54.4906 63.8908H73.2417C74.1229 63.8908 74.8573 63.1564 74.8573 62.2751V60.9043C74.8573 61.7855 74.1229 62.5199 73.2417 62.5199Z" fill="#CB9355"/>
<path fill-rule="evenodd" clip-rule="evenodd" d="M34.7609 61.2962L35.4463 61.9816L41.0275 56.4003C41.5171 55.9107 41.615 55.1764 41.3213 54.5889C41.2234 54.7357 41.1254 54.9316 41.0275 55.0295L34.7609 61.2962Z" fill="#17281A"/>
<path fill-rule="evenodd" clip-rule="evenodd" d="M27.0743 61.296L20.8566 55.0783C20.7097 54.9314 20.6118 54.7846 20.5628 54.6377C20.2691 55.2252 20.367 55.9596 20.8566 56.4492L21.1014 56.6939L26.3889 61.9814L27.0743 61.296Z" fill="#17281A"/>
<path fill-rule="evenodd" clip-rule="evenodd" d="M39.1667 71.2834C38.5302 71.9199 37.7469 71.8219 37.1104 71.1855L30.9417 64.9678L23.9406 71.2834C23.3042 71.9199 23.2062 71.0876 22.5698 70.4511L21.15 68.7865C21.0031 68.6397 20.4646 69.423 20.3177 69.6678C20.024 70.2553 20.1219 70.9897 20.6114 71.4792L21.15 72.0178L22.1292 72.9969C22.7656 73.6334 23.7937 73.6334 24.4302 72.9969L30.8437 66.4855L37.0614 72.7032C37.6979 73.3397 38.726 73.3397 39.3625 72.7032L40.9292 71.1365C41.4187 70.6469 41.5167 69.9126 41.2229 69.3251C41.125 69.4719 41.0271 69.6678 40.9292 69.7657L39.1667 71.2834Z" fill="#17281A"/>
<path d="M63.7927 55.8125C65.3104 55.8125 66.5833 54.5396 66.5833 53.0218C66.5833 52.7771 66.5344 52.5812 66.4854 52.3364C66.1917 53.5604 65.0656 54.4416 63.7927 54.4416C62.4708 54.4416 61.3937 53.5604 61.1 52.3364C61.051 52.5323 61.0021 52.7771 61.0021 53.0218C61.0021 54.5885 62.226 55.8125 63.7927 55.8125Z" fill="#CB9355"/>
<path d="M63.7927 70.9407C62.4708 70.9407 61.3937 70.0594 61.1 68.8354C61.051 69.0313 61.0021 69.2761 61.0021 69.5209C61.0021 71.0386 62.275 72.3115 63.7927 72.3115C65.3104 72.3115 66.5833 71.0386 66.5833 69.5209C66.5833 69.2761 66.5344 69.0802 66.4854 68.8354C66.1917 70.0104 65.0656 70.9407 63.7927 70.9407Z" fill="#CB9355"/>
<path d="M40.1948 28.3958H33.5365V23.1083V21.7375C33.5365 20.8562 32.8021 20.1218 31.9208 20.1218H29.7177C28.8365 20.1218 28.1021 20.8562 28.1021 21.7375V23.1083V28.3958H21.4438C20.7583 28.3958 20.1708 28.8364 19.926 29.4239C19.8771 29.5218 19.8771 29.5708 19.8281 29.6687C19.8281 29.7666 19.7792 29.9135 19.7792 30.0114V31.3822V32.2145C19.7792 33.0958 20.5135 33.8302 21.3948 33.8302H28.0531V35.201V40.4885C28.0531 41.3697 28.7875 42.1041 29.6688 42.1041H31.8719C32.7531 42.1041 33.4875 41.3697 33.4875 40.4885V35.201V33.8302H40.1458C41.0271 33.8302 41.7615 33.0958 41.7615 32.2145V31.3822V30.0114C41.7615 29.6687 41.6635 29.375 41.4677 29.0812C41.2229 28.6895 40.7333 28.3958 40.1948 28.3958Z" fill="#F16F67"/>
<path d="M73.2417 28.3958H54.4906C53.9031 28.3958 53.3646 28.7385 53.1198 29.1791C52.9729 29.4239 52.875 29.7176 52.875 30.0114V31.3822V32.2145C52.875 33.0958 53.6094 33.8301 54.4906 33.8301H73.2417C74.1229 33.8301 74.8573 33.0958 74.8573 32.2145V31.3822V30.0603V30.0114C74.8573 29.1301 74.1229 28.3958 73.2417 28.3958Z" fill="#9EBDB7"/>
<path d="M73.2417 57.0854H54.4906C53.6094 57.0854 52.875 57.8198 52.875 58.7011V60.0719V60.9042C52.875 61.7855 53.6094 62.5198 54.4906 62.5198H73.2417C74.1229 62.5198 74.8573 61.7855 74.8573 60.9042V60.0719V58.7011C74.8573 57.8198 74.1229 57.0854 73.2417 57.0854Z" fill="#E9A64A"/>
<path d="M20.5135 54.6376C20.6115 54.7845 20.7094 54.9803 20.8073 55.0782L27.025 61.2959L26.3396 61.9813L21.3458 66.9751L20.6114 67.7095C20.1219 68.199 20.024 68.9334 20.3177 69.5209C20.4156 69.6678 20.5135 69.8636 20.6114 69.9615L22.1781 71.5282C22.8146 72.1647 23.8427 72.1647 24.4792 71.5282L30.8927 65.1147L37.1104 71.3324C37.7469 71.9688 38.775 71.9688 39.4114 71.3324L40.9781 69.7657C41.125 69.6188 41.2229 69.472 41.2719 69.3251C41.5656 68.7376 41.4677 68.0032 40.9781 67.5136L35.4458 61.9813L34.7604 61.2959L41.0271 55.0292C41.174 54.8824 41.2719 54.7355 41.3208 54.5886C41.6146 54.0011 41.5167 53.2668 41.0271 52.7772L39.4604 51.2105C38.8239 50.574 37.7958 50.574 37.1594 51.2105L30.8927 57.4772L24.675 51.2595C24.0385 50.623 23.0104 50.623 22.374 51.2595L20.9052 52.7282L20.8073 52.8261C20.3667 53.2667 20.2198 54.0011 20.5135 54.6376Z" fill="#223927"/>
<path d="M63.7927 54.4416C65.1146 54.4416 66.1917 53.5604 66.4854 52.3364C66.5344 52.1406 66.5833 51.8958 66.5833 51.651C66.5833 50.1333 65.3104 48.8604 63.7927 48.8604C62.275 48.8604 61.0021 50.1333 61.0021 51.651C61.0021 51.8958 61.051 52.0916 61.1 52.3364C61.3937 53.5604 62.4708 54.4416 63.7927 54.4416Z" fill="#E9A64A"/>
<path d="M63.7927 65.3594C62.275 65.3594 61.0021 66.6323 61.0021 68.15C61.0021 68.3948 61.051 68.5906 61.1 68.8354C61.3937 70.0594 62.5198 70.9406 63.7927 70.9406C65.1146 70.9406 66.1917 70.0594 66.4854 68.8354C66.5344 68.6396 66.5833 68.3948 66.5833 68.15C66.5833 66.5833 65.3104 65.3594 63.7927 65.3594Z" fill="#E9A64A"/>
</g>
<defs>
<clipPath id="clip0_275_286">
<rect width="94" height="94" fill="white"/>
</clipPath>
</defs>
</svg>
