<svg width="94" height="94" viewBox="0 0 94 94" fill="none" xmlns="http://www.w3.org/2000/svg">
<g clip-path="url(#clip0_275_390)">
<path d="M89.5938 66.8282C89.7406 66.4855 89.8875 66.1428 90.0833 65.8C89.9365 66.1428 89.7406 66.4855 89.5938 66.8282Z" fill="#E9A64A"/>
<path d="M87.9781 69.9614C88.076 69.7656 88.2229 69.5697 88.3208 69.325C88.2229 69.5697 88.125 69.7656 87.9781 69.9614Z" fill="#E9A64A"/>
<path d="M88.5656 68.9332C88.7125 68.6884 88.8104 68.4436 88.9083 68.2478C88.8104 68.4926 88.6635 68.7374 88.5656 68.9332Z" fill="#E9A64A"/>
<path d="M82.5927 77.6969C82.7396 77.55 82.8865 77.3542 83.0333 77.2073C82.8865 77.3542 82.7396 77.501 82.5927 77.6969Z" fill="#E9A64A"/>
<path d="M80.4875 79.9978C80.5365 79.9489 80.5365 79.9489 80.5854 79.8999C80.4385 80.0957 80.2427 80.2426 80.0469 80.4384C80.1938 80.2916 80.3406 80.1447 80.4875 79.9978Z" fill="#E9A64A"/>
<path d="M84.1104 75.8364C84.2573 75.6406 84.3552 75.4937 84.5021 75.2979C84.3552 75.4937 84.2083 75.6895 84.1104 75.8364Z" fill="#E9A64A"/>
<path d="M84.7958 74.9062C84.9427 74.7104 85.0406 74.5635 85.1875 74.3677C85.0896 74.5635 84.9427 74.7104 84.7958 74.9062Z" fill="#E9A64A"/>
<path d="M81.3198 79.1166C81.3688 79.0676 81.4177 79.0187 81.4667 78.9697C81.3198 79.1656 81.124 79.3124 80.9771 79.5083C81.075 79.3614 81.2219 79.2145 81.3198 79.1166Z" fill="#E9A64A"/>
<path d="M83.376 76.7667C83.5229 76.6198 83.6698 76.424 83.7677 76.2771C83.6208 76.424 83.5229 76.6198 83.376 76.7667Z" fill="#E9A64A"/>
<path d="M85.4813 73.927C85.6281 73.7311 85.726 73.5843 85.8729 73.3884C85.726 73.5843 85.6281 73.7801 85.4813 73.927Z" fill="#E9A64A"/>
<path d="M89.0552 67.9052C89.251 67.5625 89.3979 67.2198 89.5448 66.8281C89.3979 67.2198 89.251 67.5625 89.0552 67.9052Z" fill="#E9A64A"/>
<path d="M86.8031 71.9688C86.901 71.773 87.0479 71.5772 87.1458 71.3813C87.0479 71.6261 86.901 71.822 86.8031 71.9688Z" fill="#E9A64A"/>
<path d="M86.1667 72.9968C86.2646 72.801 86.4114 72.6541 86.5094 72.4583C86.4114 72.6051 86.2646 72.801 86.1667 72.9968Z" fill="#E9A64A"/>
<path d="M87.3906 70.9896C87.4885 70.7938 87.6354 70.5979 87.7333 70.4021C87.6354 70.5979 87.5375 70.7938 87.3906 70.9896Z" fill="#E9A64A"/>
<path d="M81.8094 78.5782C81.9073 78.4313 82.0542 78.3334 82.1521 78.1865C82.2011 78.1376 82.2011 78.1376 82.25 78.0886C82.1031 78.2355 81.9563 78.4313 81.8094 78.5782Z" fill="#E9A64A"/>
<path d="M73.3396 85.9219C73.5354 85.7751 73.6823 85.6771 73.8781 85.5303C73.6823 85.6771 73.5354 85.7751 73.3396 85.9219Z" fill="#E9A64A"/>
<path d="M75.2979 84.502C75.3469 84.4531 75.3958 84.4531 75.4448 84.4041C75.5917 84.3062 75.6896 84.2083 75.8364 84.1104C75.6406 84.2572 75.4937 84.4041 75.2979 84.502Z" fill="#E9A64A"/>
<path d="M19.1917 84.1104C19.2896 79.4104 17.576 76.1792 15.4708 72.6052C13.3656 69.0312 11.9948 63.0583 11.9948 63.0583C11.1135 58.2115 11.2604 53.0708 10.9667 50.4271C10.624 47.7344 9.9875 47.5875 12.0927 43.9646C14.1979 40.3417 14.1979 37.649 14.4427 35.9354C14.6875 34.2219 16.1562 32.5083 18.0167 34.7115C18.2125 34.9563 18.4083 35.25 18.5552 35.5927C18.849 35.1521 19.0938 34.7115 19.3385 34.2219C19.4854 33.3896 20.2198 32.2635 21.5417 30.3052C22.7656 28.2 23.9406 26.3885 25.3115 25.6052C29.1792 22.8146 35.201 23.549 39.0198 26.2906C39.2646 26.2906 39.3135 26.8781 39.5583 27.074C39.8521 27.2698 39.8031 28.0042 39.8521 28.3958C40.8802 29.6688 41.125 30.7458 40.9292 32.851C41.174 33.1448 42.4469 33.3896 42.5938 33.9771L49.6927 47.7833C49.6437 47.049 49.5948 46.5104 49.5948 46.3146C49.4969 45.0906 48.4687 34.7115 48.7625 32.7042C48.9094 31.774 49.2031 31.0885 49.5458 30.7948C49.7906 29.326 50.1333 27.8083 50.7208 26.4865C50.7208 25.801 50.9167 25.2135 51.3083 24.9198C51.4552 24.8219 51.6021 24.724 51.7979 24.675C52.4344 23.8917 53.1687 23.3531 54.099 23.1573C58.4073 22.2271 62.324 23.0594 65.7021 24.626C66.0937 24.8219 66.5344 25.1646 67.0729 25.6052C67.6115 26.0458 68.199 26.6823 68.7865 27.4167C70.2552 29.1792 71.9198 32.2635 73.7802 35.0542C73.8292 35.0052 73.8292 34.9563 73.8781 34.9073C75.7385 32.7042 76.326 36.2781 76.5708 37.9917C76.8156 39.7052 76.4729 40.6844 78.5781 44.3073C79.2146 45.4333 81.4177 65.5063 81.6625 66.1427C87.0479 75.151 91.0625 63.45 91.0625 63.5479C92.9719 58.5052 94 53.1688 94.049 47.6854C94.049 47.4896 94.049 47.2938 94.049 47.049C94.049 46.9021 94.049 46.7552 94.049 46.6083C94.049 46.3635 94.049 46.1187 94.049 45.874C94.049 45.6781 94.049 45.4823 94.049 45.2375C94.049 45.0417 94.049 44.8948 94.049 44.699C94.049 44.4052 94 44.0625 94 43.7688C94 43.7198 94 43.6219 94 43.5729C93.6573 38.9708 92.6292 34.3198 90.8667 29.8156C89.251 25.6542 87.0969 21.8844 84.5021 18.5063C84.3063 18.2125 84.0615 17.9677 83.8656 17.674C83.8167 17.625 83.7677 17.5271 83.7188 17.4781C83.5229 17.2823 83.376 17.0375 83.1802 16.8417C83.0823 16.7438 82.9844 16.6458 82.9354 16.5479C82.7885 16.3521 82.6417 16.2052 82.4948 16.0094C82.3969 15.9115 82.299 15.7646 82.1521 15.6667C82.0052 15.5198 81.8583 15.3729 81.7114 15.1771C81.6135 15.0302 81.4667 14.9323 81.3687 14.7854C81.2219 14.6385 81.075 14.4917 80.9281 14.3448C80.8302 14.2469 80.7323 14.1 80.5854 14.0021C80.4385 13.8552 80.2427 13.6594 80.0958 13.5125C79.9979 13.4146 79.9 13.3167 79.8021 13.2677C79.6062 13.0719 79.4104 12.876 79.2146 12.6802C79.1656 12.6313 79.1167 12.5823 79.0677 12.5333C78.8229 12.2885 78.5781 12.0927 78.3333 11.8479C69.7656 4.40625 58.9458 0.195833 47.6854 0C47.4896 0 47.2937 0 47.049 0C46.9021 0 46.7552 0 46.6083 0C46.3635 0 46.1187 0 45.874 0C45.6781 0 45.4823 0 45.2375 0C45.0417 0 44.8948 0 44.699 0C44.4052 0 44.0625 0.0489583 43.7687 0.0489583C43.7198 0.0489583 43.6219 0.0489583 43.5729 0.0489583C39.0198 0.440625 34.4177 1.46875 29.8646 3.23125C25.7031 4.84688 21.9333 7.00104 18.5552 9.59583C18.2615 9.79167 18.0167 10.0365 17.7229 10.2323C17.674 10.2812 17.576 10.3302 17.5271 10.3792C17.3312 10.575 17.0865 10.7219 16.8906 10.9177C16.7927 11.0156 16.6948 11.1135 16.5969 11.1625C16.401 11.3094 16.2542 11.4563 16.0583 11.6031C15.9604 11.701 15.8135 11.799 15.7156 11.9458C15.5687 12.0927 15.4219 12.2396 15.226 12.3865C15.0792 12.4844 14.9812 12.6313 14.8344 12.7292C14.6875 12.876 14.5406 13.0229 14.3937 13.1698C14.2958 13.2677 14.149 13.3656 14.051 13.5125C13.9042 13.6594 13.7083 13.8552 13.5615 14.0021C13.4635 14.1 13.3656 14.1979 13.3167 14.2469C13.1208 14.4427 12.925 14.6385 12.7292 14.8344C12.6802 14.8833 12.6312 14.9323 12.5823 14.9813C12.3375 15.226 12.1417 15.4708 11.8969 15.7156C4.40625 24.2344 0.146875 35.0542 0 46.3635C0 46.5594 0 46.7552 0 46.951C0 47.0979 0 47.2448 0 47.4406C0 47.6854 0 47.9302 0 48.126C0 48.3219 0 48.5177 0 48.7625C0 48.9583 0 49.1052 0 49.301C0 49.5948 0.0489583 49.9375 0.0489583 50.2313C0.0489583 50.2802 0.0489583 50.3781 0.0489583 50.4271C0.391667 55.0292 1.41979 59.6802 3.18229 64.1844C4.79792 68.3458 6.95208 72.1156 9.54688 75.4938C9.74271 75.7875 9.9875 76.0323 10.1833 76.326C10.2323 76.375 10.2812 76.4729 10.3302 76.5219C10.526 76.7177 10.6729 76.9625 10.8687 77.1583C10.9667 77.2563 11.0646 77.3542 11.1135 77.4521C11.2604 77.6479 11.4073 77.7948 11.5542 77.9906C11.6521 78.0885 11.75 78.2354 11.8969 78.3333C12.0437 78.4802 12.1906 78.6271 12.3375 78.8229C12.4354 78.9698 12.5823 79.0677 12.6802 79.2146C12.8271 79.3615 12.974 79.5083 13.1208 79.6552C13.2187 79.7531 13.3167 79.9 13.4635 79.9979C13.6104 80.1448 13.8062 80.3406 13.9531 80.4875C14.051 80.5854 14.149 80.6833 14.2469 80.7323C14.4427 80.9281 14.6385 81.124 14.8344 81.3198C14.8833 81.3688 14.9323 81.4177 14.9812 81.4667C15.226 81.7115 15.4708 81.9073 15.7156 82.1521C16.7927 83.0823 17.8698 83.9635 19.0448 84.8448C19.1917 84.4531 19.1917 84.1594 19.1917 84.1104Z" fill="#E9A64A"/>
<path d="M49.5458 93.9511C49.7417 93.9511 49.9865 93.9511 50.1823 93.9021C50.2313 93.9021 50.3292 93.9021 50.3781 93.9021C50.476 93.9021 50.525 93.9021 50.6229 93.9021C50.2802 93.9021 49.8885 93.9021 49.5458 93.9511Z" fill="#E9A64A"/>
<path d="M45.1396 93.9509C45.4823 93.9509 45.776 93.9509 46.1188 93.9999C45.825 93.9999 45.4823 93.9509 45.1396 93.9509Z" fill="#E9A64A"/>
<path d="M90.2302 65.4084C90.3281 65.1637 90.4261 64.9189 90.524 64.6741C90.4261 64.9678 90.3281 65.2126 90.2302 65.4084Z" fill="#E9A64A"/>
<path d="M79.1656 81.2708C79.3125 81.124 79.4594 80.9771 79.6062 80.8302C79.6062 80.8302 79.6062 80.8302 79.6552 80.7812C79.5083 80.9281 79.3125 81.124 79.1656 81.2708Z" fill="#E9A64A"/>
<path d="M76.2281 83.7678C76.2771 83.7678 76.2771 83.7678 76.2281 83.7678C76.326 83.6699 76.424 83.6209 76.4729 83.5719C76.5708 83.474 76.6687 83.4251 76.7667 83.3271C76.6198 83.474 76.424 83.6209 76.2281 83.7678Z" fill="#E9A64A"/>
<path d="M78.2354 82.1032C78.2844 82.1032 78.2844 82.0543 78.3333 82.0543C78.4802 81.9074 78.6271 81.8095 78.725 81.6626C78.5781 81.8095 78.4312 81.9563 78.2354 82.1032Z" fill="#E9A64A"/>
<path d="M77.2563 82.9354C77.3052 82.8864 77.3542 82.8375 77.4031 82.7885C77.501 82.6906 77.599 82.5927 77.6969 82.5437C77.599 82.6906 77.4521 82.7885 77.2563 82.9354Z" fill="#E9A64A"/>
<path d="M74.3188 85.2364C74.5146 85.0895 74.6615 84.9916 74.8573 84.8447C74.7104 84.9916 74.5146 85.0895 74.3188 85.2364Z" fill="#E9A64A"/>
<path d="M42.1042 93.7551C42.4958 93.8041 42.8875 93.853 43.3281 93.853C42.9364 93.8041 42.4958 93.8041 42.1042 93.7551Z" fill="#E9A64A"/>
<path d="M43.426 93.853C43.8667 93.902 44.3073 93.902 44.7479 93.9509C44.3073 93.902 43.8667 93.902 43.426 93.853Z" fill="#E9A64A"/>
<path d="M40.7823 93.5593C41.076 93.6083 41.4187 93.6572 41.7125 93.6572C41.3698 93.6572 41.076 93.6083 40.7823 93.5593Z" fill="#E9A64A"/>
<path d="M40.3417 93.5104C40.0479 93.4614 39.8031 93.4125 39.5094 93.3635C39.8031 93.4125 40.0479 93.4614 40.3417 93.5104Z" fill="#E9A64A"/>
<path d="M90.6708 64.2822C90.7688 64.0864 90.8667 63.8416 90.9156 63.6458C90.8667 63.8416 90.7688 64.0864 90.6708 64.2822Z" fill="#E9A64A"/>
<path d="M51.9448 93.7551C51.651 93.8041 51.3573 93.8041 51.0635 93.853C51.3573 93.8041 51.651 93.7551 51.9448 93.7551Z" fill="#E9A64A"/>
<path d="M50.7698 31.7249C51.4063 33.8301 54.5886 43.9645 54.7354 46.5593C54.8823 49.1541 55.0781 49.6436 55.4698 49.4968C55.8615 49.3499 55.4698 46.6572 54.9802 44.3072C54.4906 41.9572 52.9729 35.5436 52.1406 32.9488C51.5531 31.0884 50.574 28.2488 50.6719 26.3884C50.0844 27.7103 49.7417 29.228 49.4969 30.6968C49.9375 30.3541 50.4271 30.5499 50.7698 31.7249Z" fill="#E29542"/>
<path d="M54.05 23.1082C53.1198 23.304 52.3365 23.8426 51.749 24.6259C53.0219 24.2343 54.099 25.9478 55.0781 28.1999C56.2042 30.6968 58.3094 35.103 59.7781 40.0478C61.2469 44.9926 61.2469 47.1957 61.8833 47.0978C62.5198 46.9999 61.5406 42.7405 60.9042 40.6843C60.2677 38.677 58.5542 33.2915 57.0365 30.1582C55.5188 26.9759 53.7073 24.8707 56.0083 23.4999C58.2604 22.129 61.1979 26.6822 63.6948 31.0395C66.1917 35.3968 67.8073 39.4603 68.7865 44.0134C69.7656 48.5665 70.6469 49.0561 70.0594 46.2165C69.4719 43.377 67.9542 36.5718 65.4573 32.6061C62.9604 28.6405 61.7365 25.5561 63.1073 24.6749C64.0375 24.0874 65.4083 24.2343 67.024 25.6051C66.5344 25.1155 66.0448 24.7728 65.6531 24.6259C62.275 22.9613 58.3583 22.178 54.05 23.1082Z" fill="#E29542"/>
<path d="M69.374 28.2979C71.9688 32.1166 72.9479 33.5854 72.5073 34.5156C72.1156 35.4948 70.8917 40.0479 71.4792 42.5448C72.0667 45.0416 73.6823 52.6791 70.7448 54.8823C70.7448 54.8823 63.8906 59.4354 60.8063 64.625C57.7219 69.8146 57.1833 73.3885 57.2323 73.7802C57.3302 74.1718 57.8688 74.5635 58.3583 72.8989C58.3583 72.8989 60.6104 63.6458 66.1917 59.4354C71.7729 55.225 72.4094 55.3229 72.7521 52.9729C73.0948 50.6229 73.3396 47.2937 72.7521 45.0416C72.2136 42.8385 72.0177 36.7187 73.7802 34.4177C71.9198 31.6271 70.1573 29.1791 68.6396 27.3677C68.9333 27.6614 69.1292 27.9552 69.374 28.2979Z" fill="#E29542"/>
<path d="M41.174 26.2417C41.5167 28.0042 40.3906 31.2844 39.7542 33.3896C38.9219 35.9844 37.4042 42.398 36.9146 44.748C36.425 47.098 36.0333 49.7907 36.425 49.9375C36.8167 50.0844 37.0125 49.5948 37.1594 47C37.3063 44.4052 40.4885 34.2709 41.125 32.1657C41.5167 30.8927 42.1042 30.7459 42.5448 31.2844C42.6917 29.1792 42.1531 27.5146 41.174 26.2417Z" fill="#E29542"/>
<path d="M80.5365 79.9C80.6344 79.8021 80.6833 79.7532 80.7813 79.6553C80.8302 79.6063 80.8792 79.5573 80.9771 79.4594C81.124 79.2636 81.3198 79.1167 81.4667 78.9209C81.5156 78.8719 81.5156 78.8719 81.5646 78.823C81.6625 78.725 81.7115 78.6271 81.8094 78.5782C81.9563 78.4313 82.1031 78.2355 82.25 78.0396C82.3479 77.8928 82.4948 77.7948 82.5927 77.648C82.7396 77.5011 82.8865 77.3053 83.0333 77.1584C83.1313 77.0115 83.2781 76.9136 83.3761 76.7667C83.5229 76.6198 83.6698 76.424 83.7677 76.2771C83.8656 76.1303 83.9636 75.9834 84.1104 75.8855C84.2573 75.7386 84.3552 75.5428 84.5021 75.3469C84.6 75.2 84.6979 75.0532 84.7958 74.9063C84.9427 74.7105 85.0406 74.5636 85.1875 74.3678C85.2854 74.2209 85.3833 74.074 85.4813 73.9271C85.6281 73.7313 85.726 73.5844 85.8729 73.3886C85.9708 73.2417 86.0688 73.0948 86.1667 72.948C86.2646 72.7521 86.4115 72.6053 86.5094 72.4094C86.6073 72.2625 86.7052 72.1157 86.8031 71.9688C86.9011 71.773 87.0479 71.5771 87.1458 71.3813C87.2438 71.2344 87.3417 71.0875 87.3906 70.9407C87.4886 70.7448 87.6354 70.549 87.7333 70.3532C87.8313 70.2063 87.8802 70.0594 87.9781 69.9125C88.0761 69.7167 88.2229 69.5209 88.3208 69.2761C88.3698 69.1292 88.4677 68.9823 88.5167 68.8844C88.6636 68.6396 88.7615 68.3948 88.8594 68.199C88.9083 68.1011 88.9573 67.9542 89.0552 67.8563C89.2511 67.5136 89.3979 67.1709 89.5448 66.7792C89.6917 66.4365 89.8386 66.0938 90.0344 65.7511C90.0833 65.6532 90.1323 65.5063 90.1813 65.4084C90.2792 65.1636 90.3771 64.9188 90.475 64.674C90.524 64.5271 90.5729 64.3803 90.6219 64.2334C90.7198 64.0375 90.8177 63.7928 90.8667 63.5969C90.8667 63.548 90.9156 63.548 90.9156 63.499C90.9156 63.4011 86.3625 54.9803 80.9771 45.9719C81.4667 47.4407 81.124 48.0771 80.8792 49.9375C80.5365 52.6303 80.7323 57.7219 79.8511 62.5688C79.8511 62.5688 78.4802 68.5417 76.375 72.1157C74.2698 75.6896 72.5563 78.9209 72.6542 83.6209C72.6542 83.9636 72.7521 84.9917 72.85 86.1667C72.9969 86.0688 73.1438 85.9709 73.2906 85.873C73.4865 85.7261 73.6333 85.6282 73.8292 85.4813C73.9761 85.3834 74.1229 85.2855 74.2698 85.1875C74.4656 85.0407 74.6125 84.9428 74.8083 84.7959C74.9552 84.698 75.1021 84.6 75.249 84.5021C75.4448 84.3553 75.5917 84.2084 75.7875 84.1105C75.9344 84.0125 76.0813 83.9146 76.1792 83.7678C76.375 83.6209 76.5219 83.474 76.7177 83.3271C76.8156 83.2782 76.8646 83.1803 76.9625 83.1313C77.0604 83.0823 77.1094 82.9844 77.2073 82.9355C77.3542 82.7886 77.5011 82.6907 77.6969 82.5438C77.7458 82.4948 77.7948 82.4459 77.8927 82.3969C77.9906 82.299 78.0886 82.2011 78.2354 82.1032C78.3823 81.9563 78.5781 81.8094 78.725 81.6625L78.774 81.6136C78.8719 81.5157 79.0188 81.4178 79.1167 81.2709C79.3125 81.124 79.4594 80.9282 79.6552 80.7813C79.7531 80.6834 79.8511 80.5855 79.949 80.4875L79.9979 80.4386C80.1938 80.2428 80.3896 80.0959 80.5365 79.9Z" fill="#E29542"/>
<path d="M25.2625 25.5563C23.9406 26.3396 22.7167 28.151 21.4927 30.2563C21.7865 29.8156 22.1292 29.326 22.5208 28.7875C25.1156 24.9688 27.4656 24.1854 28.8365 25.0667C30.2073 25.9479 28.9833 29.0323 26.4865 32.9979C23.9896 36.9635 22.4229 43.7688 21.8844 46.6083C21.2969 49.4479 22.2271 48.9583 23.1573 44.4052C24.1365 39.8521 25.7521 35.8375 28.249 31.4313C30.7458 27.074 33.6833 22.5208 35.9354 23.8917C38.1875 25.2625 36.425 27.3677 34.9073 30.55C33.3896 33.7323 31.676 39.0688 31.0396 41.076C30.3542 43.1323 29.375 47.3917 30.0115 47.4896C30.6479 47.5875 30.6479 45.3844 32.1167 40.4396C33.5854 35.4948 35.6906 31.1375 36.8167 28.5917C37.7469 26.5354 38.726 24.9688 39.8031 24.9688C36.0333 22.276 29.1302 22.7656 25.2625 25.5563Z" fill="#E29542"/>
<path d="M19.0938 45.4824C18.5063 47.7344 18.751 51.0636 19.0938 53.4136C19.4365 55.7636 20.0729 55.6657 25.6542 59.8761C31.2354 64.0865 33.4875 73.3397 33.4875 73.3397C33.9771 75.0532 34.5156 74.6126 34.6135 74.2209C34.7115 73.8292 34.124 70.2553 31.0396 65.0657C27.9552 59.8761 21.101 55.323 21.101 55.323C18.2125 53.1199 19.8281 45.5313 20.3667 42.9855C20.9542 40.4886 19.7302 35.9355 19.3385 34.9563C19.2406 34.7115 19.2406 34.4667 19.2896 34.124C19.0448 34.5646 18.751 35.0542 18.5063 35.4949C19.7792 38.1876 19.5833 43.4261 19.0938 45.4824Z" fill="#E29542"/>
<path d="M50.6229 93.8531C50.7698 93.8531 50.9167 93.8531 51.0636 93.8041C51.3573 93.7552 51.6511 93.7552 51.9448 93.7062C52.924 82.7885 47.1469 73.2416 48.7625 66.6322C50.3781 59.925 49.9375 51.2593 49.6927 47.6854L43.0833 32.6062C43.1323 32.7531 43.1323 32.9 43.1813 33.0468C43.475 35.0541 42.3979 45.4333 42.349 46.6572C42.2511 47.8812 41.2229 58.9947 43.1813 67.0729C44.65 73.2906 39.8521 84.4531 39.5583 93.3635C39.8521 93.4124 40.0969 93.4614 40.3906 93.5104C40.5375 93.5104 40.6844 93.5593 40.8313 93.5593C41.125 93.6083 41.4677 93.6572 41.7615 93.6572C41.9083 93.6572 42.0552 93.7062 42.1531 93.7062C42.5448 93.7552 42.9365 93.8041 43.3771 93.8041C43.4261 93.8041 43.475 93.8041 43.524 93.8041C43.9646 93.8531 44.4052 93.8531 44.8458 93.902H44.8948C44.9438 93.902 45.0417 93.902 45.0906 93.902C45.1396 93.902 45.1886 93.902 45.2375 93.902C45.5802 93.902 45.874 93.902 46.2167 93.951C46.2167 93.951 46.2167 93.951 46.2656 93.951C46.4125 93.951 46.5594 93.951 46.7063 93.951C47 93.951 47.3427 93.951 47.6365 93.951C47.7833 93.951 47.9302 93.951 48.0771 93.951C48.5177 93.951 48.9094 93.951 49.35 93.902H49.399C49.4479 93.902 49.5458 93.902 49.5948 93.902C49.8886 93.902 50.2802 93.902 50.6229 93.8531Z" fill="#E29542"/>
<path d="M39.5094 93.4126C39.8031 84.5022 44.601 73.3397 43.1323 67.122C41.174 58.9949 42.251 47.9303 42.3 46.7064C42.3979 45.4824 43.426 35.1032 43.1323 33.096C43.1323 32.9491 43.0833 32.8022 43.0344 32.6553C42.8875 32.0678 42.6917 31.6272 42.4958 31.3335C42.0552 30.7949 41.4677 30.9418 41.076 32.2147C40.4396 34.3199 37.2573 44.4543 37.1104 47.0491C36.9635 49.6439 36.7677 50.1335 36.376 49.9866C35.9844 49.8397 36.376 47.147 36.8656 44.797C37.3552 42.447 38.8729 36.0335 39.7052 33.4387C40.3417 31.3335 41.4677 28.0532 41.125 26.2907C41.0271 25.8501 40.8802 25.5564 40.5865 25.3116C40.2927 25.1157 40.0479 25.0178 39.8031 25.0178C38.6771 24.9689 37.6979 26.5845 36.8167 28.6407C35.6906 31.1376 33.5854 35.5439 32.1167 40.4887C30.6479 45.4335 30.6479 47.6366 30.0115 47.5387C29.375 47.4407 30.3542 43.1814 30.9906 41.1251C31.6271 39.1178 33.3406 33.7324 34.8583 30.5991C36.376 27.4168 38.1875 25.3116 35.8865 23.9407C33.6344 22.5699 30.6969 27.123 28.2 31.4803C25.7031 35.8376 24.0875 39.9012 23.1083 44.4543C22.1292 49.0074 21.2479 49.497 21.8354 46.6574C22.4229 43.8178 23.9406 37.0126 26.4375 33.047C28.9344 29.0814 30.1583 25.997 28.7875 25.1157C27.4167 24.1366 25.0667 24.9689 22.5208 28.7876C22.1292 29.3262 21.8354 29.8157 21.4927 30.2564C20.1708 32.2147 19.4854 33.3897 19.2896 34.173C19.2406 34.4668 19.2406 34.7605 19.3385 35.0053C19.7302 35.9845 20.9542 40.5376 20.3667 43.0345C19.7792 45.5314 18.1635 53.1689 21.101 55.372C21.101 55.372 27.9552 59.9251 31.0396 65.1147C34.124 70.3043 34.6625 73.8782 34.6135 74.2699C34.5156 74.6616 33.9771 75.0532 33.4875 73.3887C33.4875 73.3887 31.2354 64.1355 25.6542 59.9251C20.0729 55.7147 19.4365 55.8126 19.0938 53.4626C18.751 51.1126 18.5063 47.7835 19.0938 45.5314C19.5833 43.5241 19.7792 38.2855 18.5063 35.5928C18.3594 35.2501 18.1635 34.9564 17.9677 34.7116C16.1073 32.5085 14.6385 34.222 14.3938 35.9355C14.149 37.6491 14.149 40.2928 12.0438 43.9647C9.93854 47.5876 10.575 47.7835 10.9177 50.4272C11.2604 53.1199 11.0646 58.2116 11.9458 63.0585C11.9458 63.0585 13.3167 69.0314 15.4219 72.6053C17.5271 76.1793 19.2406 79.4105 19.1427 84.1105C19.1427 84.1595 19.1427 84.4532 19.0938 84.8449C25.0177 89.2022 31.9698 92.1887 39.5094 93.4126Z" fill="#F7E7CE"/>
<path d="M72.7031 83.6699C72.6052 78.9699 74.3187 75.7386 76.424 72.1647C78.5292 68.5907 79.9 62.6178 79.9 62.6178C80.7812 57.7709 80.6344 52.6303 80.9281 49.9865C81.1729 48.1261 81.5156 47.4897 81.026 46.0209C80.8302 45.3845 80.4385 44.6011 79.8021 43.524C77.6969 39.9011 77.6969 37.2084 77.4521 35.4949C77.2073 33.7813 75.7385 32.0678 73.8781 34.2709C73.8292 34.3199 73.8292 34.3688 73.7802 34.4178C72.0667 36.7188 72.2135 42.8386 72.7521 45.0418C73.3396 47.2938 73.0948 50.623 72.7521 52.973C72.4094 55.323 71.7729 55.2251 66.1917 59.4355C60.6104 63.6459 58.3583 72.899 58.3583 72.899C57.8687 74.6126 57.3302 74.172 57.2323 73.7803C57.1344 73.3886 57.7219 69.8147 60.8062 64.6251C63.8906 59.4355 70.7448 54.8824 70.7448 54.8824C73.6333 52.6793 72.0177 45.0907 71.4792 42.5449C70.8917 40.048 72.1156 35.4949 72.5073 34.5157C72.899 33.5365 71.9198 32.0678 69.374 28.298C69.1292 27.9553 68.8844 27.6615 68.6885 27.3188C68.101 26.5845 67.5135 25.948 66.975 25.5074C65.3594 24.1365 63.9885 23.9407 63.0583 24.5772C61.6875 25.4584 62.9115 28.5428 65.4083 32.5084C67.9052 36.474 69.4719 43.2793 70.0104 46.1188C70.5979 48.9584 69.6677 48.4688 68.7375 43.9157C67.7583 39.3626 66.1427 35.348 63.6458 30.9418C61.149 26.5845 58.2115 22.0313 55.9594 23.4022C53.7073 24.773 55.4698 26.8782 56.9875 30.0605C58.5052 33.2428 60.2187 38.5793 60.8552 40.5865C61.4917 42.5938 62.4708 46.9022 61.8344 47.0001C61.1979 47.098 61.1979 44.8949 59.7292 39.9501C58.2604 35.0053 56.1552 30.648 55.0292 28.1022C54.001 25.8501 52.924 24.1365 51.7 24.5282C51.5531 24.5772 51.4062 24.6261 51.2104 24.773C50.8187 25.0668 50.6229 25.6053 50.6229 26.3397C50.574 28.1511 51.5042 30.9907 52.0917 32.9001C52.924 35.4949 54.4417 41.9084 54.9312 44.2584C55.4208 46.6084 55.8125 49.3011 55.4208 49.448C55.0292 49.5949 54.8333 49.1053 54.6865 46.5105C54.5396 43.9157 51.3573 33.7813 50.7208 31.6761C50.3781 30.5011 49.8885 30.3053 49.4479 30.648C49.1052 30.9418 48.8115 31.6272 48.6646 32.5574C48.3708 34.5647 49.4479 44.9438 49.4969 46.1678C49.4969 46.3636 49.5458 46.9022 49.5948 47.6365C49.8396 51.1615 50.2802 59.8761 48.6646 66.5834C47.0979 73.1928 52.826 82.7397 51.8469 93.6574C59.5333 92.874 66.6812 90.1813 72.801 86.1178C72.801 85.0407 72.7031 84.0126 72.7031 83.6699Z" fill="#F7E7CE"/>
</g>
<defs>
<clipPath id="clip0_275_390">
<rect width="94" height="94" fill="white"/>
</clipPath>
</defs>
</svg>
