<svg width="94" height="94" viewBox="0 0 94 94" fill="none" xmlns="http://www.w3.org/2000/svg">
<g clip-path="url(#clip0_275_505)">
<path d="M47 94C72.9303 94 93.951 72.9793 93.951 47.0489C93.951 21.1186 72.9303 0.0979004 47 0.0979004C21.0696 0.0979004 0.0489502 21.1186 0.0489502 47.0489C0.0489502 72.9793 21.0696 94 47 94Z" fill="#F7A94B"/>
<path fill-rule="evenodd" clip-rule="evenodd" d="M64.7229 51.8957C67.1708 54.3436 75.3958 58.4561 82.0052 57.6728C82.0052 57.6728 90.2302 66.7301 89.6916 66.5832C84.7958 77.2561 75.9343 86.1176 64.0864 90.7686C55.6656 94.0488 46.9021 94.7832 38.6281 93.2655C38.3833 93.0207 12.925 61.7853 12.925 61.7853C8.27393 52.8749 17.8698 65.0655 26.9271 61.7853C31.5781 60.0718 29.9625 45.5801 30.2073 44.503C30.9416 41.5166 31.8718 34.6134 33.4875 32.9978C33.4875 32.9978 33.6343 36.6207 34.3198 37.1103C37.6 39.5582 41.3698 42.202 42.5448 45.3353C48.3218 60.953 48.175 49.3988 49.9375 43.6707C53.2177 32.9978 53.6583 45.1884 53.2177 52.728C52.3854 66.7301 63.401 50.6228 64.7229 51.8957Z" fill="#E29542"/>
<path d="M26.8292 64.625C30.1584 63.9395 33.1938 62.8625 36.0823 61.3937C40.7823 58.8968 44.6501 55.5187 47.1469 50.6229C48.224 48.4687 48.8115 46.1187 49.4969 43.8666C50.4271 40.8802 51.3574 37.8937 52.2876 34.9562C52.2876 34.9072 52.3365 34.8583 52.3855 34.8093C53.1199 35.1031 53.3646 35.6906 53.4626 36.376C53.6094 37.7468 53.7563 39.1666 53.7563 40.5375C53.7074 43.8177 53.5115 47.0489 53.4136 50.3291C53.3646 52.3854 53.4626 54.4906 54.0011 56.4979C54.1969 57.1833 54.4907 57.8197 54.8334 58.4072C55.323 59.2885 56.1553 59.7781 57.1834 59.9739C59.7782 60.3656 62.373 60.6593 65.0167 60.3166C66.5834 60.1208 68.0521 59.7291 69.374 58.8968C69.5698 58.7989 69.7167 58.652 69.9615 58.4562C68.3459 57.4281 66.7792 56.5958 65.0657 56.0083C63.9886 55.6166 62.8626 55.3229 61.6876 55.4697C60.0719 55.6656 58.7501 56.4979 57.4771 57.477C57.3303 57.575 57.2813 57.7218 57.0855 57.7708C57.1344 57.6729 57.1344 57.526 57.1834 57.4281C58.0157 56.0572 58.7501 54.5885 59.7292 53.3645C61.6876 50.9166 63.7438 50.3291 66.6813 51.4552C68.248 52.0916 69.7167 52.9729 71.1855 53.8541C72.8501 54.8333 74.3188 56.2041 76.2282 56.6937C77.648 57.0854 79.1167 57.2812 80.5855 57.575C80.9771 57.6239 81.3688 57.6239 81.8094 57.6729C81.7605 57.8197 81.7115 57.9177 81.6626 58.0156C80.7323 59.2395 79.8511 60.4635 78.8719 61.6385C78.774 61.7854 78.5292 61.9812 78.3824 61.9322C75.298 61.3447 72.3115 61.8343 69.374 62.7156C66.6813 63.5479 63.8907 64.1354 61.0511 64.3802C59.4844 64.527 57.9667 64.527 56.449 64.1354C54.1969 63.4989 52.6792 62.0791 51.9938 59.7781C51.4063 57.9177 51.2105 56.0083 51.2105 54.05C51.2594 50.7208 51.3573 47.3427 51.4553 43.9156C51.3084 44.3562 51.2105 44.6989 51.1126 45.0416C49.9865 49.0072 48.8115 52.9239 47.0001 56.6447C45.0417 60.7083 41.7126 63.1072 37.5511 64.3802C34.124 65.4572 30.6969 65.4572 27.2209 64.7718C27.1719 64.7718 27.074 64.7229 26.8292 64.625Z" fill="#F6F5EE"/>
<path d="M31.089 27.906C31.6765 29.8154 32.0681 31.8227 33.4879 33.1935C33.0963 34.2216 32.6556 35.2008 32.3619 36.2289C31.9213 37.7466 31.9213 39.3133 31.9213 40.9289C31.9213 44.2581 31.9702 47.5383 31.9702 50.8675C31.9702 52.4831 31.8234 54.0498 31.7254 55.6164C31.6765 56.6445 31.3338 57.5258 30.7952 58.3581C28.8859 61.1487 26.5359 63.3518 23.3046 64.4289C19.7796 65.6039 15.2265 64.331 12.9744 61.6383C11.7994 60.2185 11.3588 58.5539 11.4567 56.7425C11.6525 53.5602 13.2681 51.0633 15.4223 48.8602C15.0796 49.5456 14.7369 50.28 14.4921 50.9654C13.9046 52.4831 13.3661 54.0498 13.5129 55.7633C13.6109 56.9383 14.0515 57.8685 15.0306 58.5539C16.5973 59.68 18.3598 60.1695 20.2692 60.3654C22.4234 60.5612 24.5775 60.2675 26.6338 59.4352C28.4452 58.7008 29.3265 57.3789 29.6202 55.5185C30.1098 52.2383 30.1098 48.9581 29.865 45.6779C29.5713 41.0268 29.0817 36.3758 28.69 31.7248C28.69 31.5779 28.6411 31.382 28.739 31.2841C29.4734 30.1581 30.2567 29.081 31.089 27.906Z" fill="#F6F5EE"/>
<path d="M43.378 54.1963C42.7905 52.5317 42.2519 50.7692 41.5665 49.1046C40.8322 47.2932 39.5592 46.0203 37.7967 45.188C36.9644 44.7963 36.1321 44.4046 35.3488 43.964C34.0759 43.2786 33.5863 42.1526 33.6353 40.6838C33.6842 39.7536 33.6842 38.7744 33.7332 37.8442C33.7332 37.4036 33.8311 37.0119 33.929 36.4734C36.9644 37.9421 39.4124 39.9494 41.2238 42.7401C43.5249 46.2651 44.0144 50.1328 43.378 54.1963Z" fill="#F6F5EE"/>
</g>
<defs>
<clipPath id="clip0_275_505">
<rect width="94" height="94" fill="white"/>
</clipPath>
</defs>
</svg>
