<svg width="94" height="94" viewBox="0 0 94 94" fill="none" xmlns="http://www.w3.org/2000/svg">
<g clip-path="url(#clip0_275_494)">
<path d="M93.7552 51.7C93.7552 51.8468 93.7062 51.9937 93.7062 52.1895C93.7552 52.0427 93.7552 51.8468 93.7552 51.7Z" fill="#D7D3A2"/>
<path d="M64.1354 90.7198C64.1354 90.7198 41.4188 74.3677 30.7458 62.9604C27.2208 59.876 24.675 55.5677 23.7937 50.574C21.8354 39.0198 29.6198 28.0531 41.174 26.0948C44.699 25.5073 48.126 25.801 51.2594 26.8292C51.3083 26.8292 51.3573 26.8292 51.4062 26.8292C51.4062 26.8781 93.2656 44.7969 94 45.776C93.3146 20.3667 72.5563 0 47 0C21.0521 0 0 21.0521 0 47C0 72.9479 21.0521 94 47 94C70.3042 94 89.6427 77.0115 93.3635 54.7354C90.7198 70.5 80.0958 84.5021 64.1354 90.7198Z" fill="#F6F5EE"/>
<path d="M93.6083 53.1687C93.5594 53.6583 93.4615 54.0989 93.4125 54.5885C93.4615 54.0989 93.5104 53.6583 93.6083 53.1687Z" fill="#D7D3A2"/>
<path d="M51.4062 26.8291C51.3573 26.8291 51.3083 26.8291 51.2594 26.8291C51.3083 26.8291 51.3573 26.8781 51.4062 26.8291C50.7208 26.927 50.0354 27.0249 49.301 27.1229C27.6125 30.7947 33.2917 64.527 55.0292 60.8551C58.5052 60.2676 61.2469 58.8968 63.401 57.0854C60.3656 62.6666 54.9802 66.8281 48.2729 67.9541C41.7125 69.0801 35.3479 67.0239 30.7458 62.9604C41.4187 74.3187 64.1354 90.7197 64.1354 90.7197C80.0958 84.502 90.7198 70.4999 93.3635 54.7354C93.3635 54.6864 93.3635 54.6374 93.4125 54.5885C93.5104 54.0989 93.5594 53.6583 93.6083 53.1687C93.6573 52.826 93.7062 52.5322 93.7062 52.1895C93.7062 52.0426 93.7552 51.8958 93.7552 51.6999C93.951 49.7416 94.049 47.7343 94 45.776C93.2656 44.7968 51.4062 26.8781 51.4062 26.8291ZM70.1573 45.4333L64.576 44.0624L60.3167 47.8322L59.925 42.1041L54.9802 39.2156L60.2677 37.0614L61.4917 31.4801L65.2125 35.8864L70.8917 35.2989L67.8563 40.1947L70.1573 45.4333Z" fill="#EAE9E5"/>
<path d="M48.2729 67.9542C54.9802 66.8282 60.3656 62.6667 63.401 57.0855C61.2469 58.8969 58.5052 60.2678 55.0292 60.8553C33.2917 64.5271 27.6125 30.7948 49.301 27.123C50.0354 27.025 50.7208 26.9271 51.4062 26.8782C51.3573 26.8782 51.3083 26.8292 51.2594 26.8292C48.126 25.8011 44.699 25.5073 41.174 26.0948C29.6198 28.0532 21.8354 39.0198 23.7937 50.574C24.626 55.5678 27.1719 59.8761 30.7458 62.9605C35.3479 67.024 41.7125 69.0803 48.2729 67.9542Z" fill="#F16F67"/>
<path d="M65.2125 35.8865L61.4917 31.4802L60.2677 37.0615L54.9802 39.2156L59.925 42.1042L60.3167 47.8323L64.576 44.0625L70.1573 45.4334L67.8563 40.1948L70.8917 35.299L65.2125 35.8865Z" fill="#F16F67"/>
</g>
<defs>
<clipPath id="clip0_275_494">
<rect width="94" height="94" fill="white"/>
</clipPath>
</defs>
</svg>
