<svg width="94" height="94" viewBox="0 0 94 94" fill="none" xmlns="http://www.w3.org/2000/svg">
<g clip-path="url(#clip0_275_210)">
<path d="M90.7687 29.8645C81.3198 5.67906 54.05 -6.21782 29.8646 3.23114C5.67916 12.6801 -6.21771 39.9499 3.23125 64.1353C12.6802 88.3207 39.95 100.218 64.1354 90.7686C88.3208 81.2707 100.218 54.0009 90.7687 29.8645ZM64.0375 90.6707C60.7573 91.9436 57.4281 92.8249 54.099 93.3634C54.2948 92.8249 38.5302 73.6822 32.7042 66.828C31.8719 66.1916 32.3615 65.4082 31.8719 64.4291L31.2354 63.7436C31.2354 63.7436 30.6479 62.9603 30.6479 62.9113C30.0604 61.8343 30.6479 61.6874 30.6479 60.2186C30.6479 60.2186 30.6479 37.2082 30.6479 33.4874C30.6479 29.7666 30.599 29.0811 32.4594 26.878C34.3198 24.6749 37.6979 24.6259 37.6979 24.6259C37.6979 24.6259 56.351 25.0666 60.0719 25.0666C62.7646 25.0666 63.6948 23.6957 63.9885 24.6749C64.0375 24.6749 64.0865 24.6259 64.1354 24.6259C67.024 28.2488 92.874 57.428 92.6781 57.2811C89.3979 71.9686 79.0677 84.7957 64.0375 90.6707Z" fill="#3D663D"/>
<path d="M64.1844 24.626C64.1354 24.626 64.0865 24.6749 64.0375 24.6749C64.1354 25.0176 64.1844 25.5072 64.1844 26.0947C64.1844 28.102 64.1844 49.9374 64.1844 54.2458V54.9801V66.8281C64.1844 67.9541 63.7927 68.2968 62.7156 68.2968C61.6385 68.2968 54.4417 68.2968 47.8813 68.2968C47.8813 69.1291 47.8813 69.8145 47.8813 70.1572C47.8813 71.2833 45.6781 69.4229 44.5521 68.6885C43.426 67.9541 42.6917 68.6885 41.2229 69.8145C39.7542 70.9406 39.3625 70.2062 39.3625 69.0801C39.3625 68.9333 39.3625 68.6395 39.3625 68.3458C38.3833 68.3458 37.649 68.3458 37.1594 68.3458C35.5927 68.3458 34.075 67.8072 32.7531 66.877C38.5302 73.7312 54.2948 92.8739 54.1479 93.4124C57.4771 92.8739 60.8062 91.9926 64.0865 90.7197C79.1656 84.8447 89.4469 72.0176 92.7271 57.3301C92.874 57.4281 67.024 28.2489 64.1844 24.626Z" fill="#325432"/>
<path d="M37.8448 56.1062C36.6208 56.1062 35.5927 56.351 34.8094 56.7427C36.1802 56.1552 37.8937 56.1062 39.3625 56.1062C38.6281 56.1062 38.1385 56.1062 37.8448 56.1062Z" fill="#325432"/>
<path d="M62.324 56.106C61.3448 56.106 44.7479 56.106 39.3625 56.106C37.8937 56.106 36.1802 56.2039 34.8094 56.7425C30.599 58.8966 32.2635 65.7019 37.8448 65.7019C38.0406 65.7019 38.5792 65.7019 39.3135 65.7019C39.3135 64.0373 39.3135 62.3727 39.3135 62.3727C39.3135 61.6383 39.7052 61.2466 41.174 61.2466C42.6427 61.2466 45.2375 61.2466 46.3635 61.2466C47.4896 61.2466 47.8323 61.6383 47.8323 62.7154C47.8323 63.205 47.8323 64.38 47.8323 65.7019C54.2458 65.7019 61.4427 65.7019 62.275 65.7019C63.401 65.7019 64.1354 66.0935 64.1354 66.8279V54.98C64.1844 55.7144 63.401 56.106 62.324 56.106Z" fill="#FBFBFB"/>
<path d="M39.3625 68.3457C39.3625 67.6603 39.3625 66.7301 39.3625 65.7509C38.5792 65.7509 38.0896 65.7509 37.8938 65.7509C32.3125 65.7509 30.599 58.9457 34.8583 56.7915C35.6417 56.3999 36.6698 56.1551 37.8938 56.1551C38.1385 56.1551 38.6771 56.1551 39.3625 56.1551C44.7479 56.1551 61.3448 56.1551 62.324 56.1551C63.45 56.1551 64.1844 55.7634 64.1844 55.029V54.2947C64.1844 49.9863 64.1844 28.1509 64.1844 26.1436C64.1844 25.5561 64.1354 25.0665 64.0375 24.7238C63.7438 23.7447 62.8135 23.5488 60.1208 23.5488C56.4 23.5488 37.8938 23.5488 37.8938 23.5488C37.8938 23.5488 33.4385 23.5488 31.5781 25.752C29.7177 27.9551 29.7177 29.4728 29.7177 33.1447C29.7177 36.8655 29.7177 60.5613 29.7177 60.5613C29.7177 62.0301 30.0604 63.303 30.6479 64.429V64.478C31.1865 65.4572 31.8719 66.2405 32.7042 66.877C33.9771 67.8561 35.5438 68.3457 37.1104 68.3457C37.6 68.3457 38.3833 68.3457 39.3625 68.3457ZM38.5792 32.3124C38.5302 32.4103 38.3833 32.5082 38.2854 32.6551C37.9427 32.1655 38.0406 31.3332 38.4812 30.8436C38.5302 31.2842 37.8938 31.7738 38.5792 32.3124ZM37.9917 33.4384C38.0896 33.1936 38.3344 32.8999 38.5792 32.753C39.1177 32.4103 39.7542 32.1165 40.3417 31.8228C40.4885 31.7738 40.5865 31.6759 40.7823 31.578C40.3906 31.2353 40.1458 30.8436 40.3906 30.354C40.4885 30.2072 40.5865 29.9624 40.7823 29.9134C42.6427 29.228 44.5521 28.5426 46.4125 27.8572C46.4615 27.8572 46.5594 27.8572 46.6083 27.8572C46.6083 27.9061 46.6573 27.9061 46.6573 27.9551C46.5104 28.053 46.3635 28.1509 46.2167 28.1999C44.601 28.8363 42.9854 29.4238 41.3698 30.0113C41.3208 30.0113 41.2719 30.0603 41.2719 30.0603C40.4885 30.354 40.4885 30.403 40.8802 31.1374C41.0271 31.4311 41.174 31.3822 41.4187 31.3332C43.2792 30.7457 45.1396 30.2072 47 29.6686C47.5385 29.5217 48.0771 29.4238 48.6156 29.3259C48.8604 29.277 49.1052 29.277 49.35 29.277C50.0354 29.3259 50.476 29.9624 50.2312 30.5988C50.0844 30.9415 49.9375 31.3332 49.6438 31.627C48.6646 32.6551 47.6854 33.6342 46.6573 34.5645C46.9021 33.7811 47.3917 33.1447 47.9792 32.6061C48.4688 32.1655 48.9583 31.7738 49.4479 31.3332C49.9375 30.8926 49.8885 30.5009 49.2521 30.3051C48.8115 30.2072 48.3219 30.1582 47.8323 30.2561C44.7479 30.8436 41.8104 31.9207 38.9708 33.2426C38.775 33.3405 38.6281 33.4874 38.3344 33.6342C38.5792 33.7811 38.726 33.928 38.8729 34.0259C40.1948 34.8092 41.4677 35.6415 42.7896 36.4249C42.9365 36.5228 43.1323 36.5717 43.2792 36.5717C43.7688 36.4249 44.2094 36.278 44.65 36.0822C44.7479 36.0332 44.7969 35.7884 44.7479 35.6415C44.601 34.6624 44.4052 33.6832 44.2583 32.704C44.2094 32.3124 44.2583 31.9207 44.3073 31.529C44.3562 31.529 44.4052 31.529 44.4542 31.4801C44.7969 32.0676 45.0906 32.6061 45.4333 33.1936C45.3844 33.2426 45.3844 33.2426 45.3354 33.2915C45.1885 33.2426 45.0906 33.1936 44.9438 33.1447C44.65 33.928 45.1885 35.3967 45.874 35.8374C46.0698 35.9842 46.3146 36.0822 46.5104 36.229C46.6573 36.3759 46.8042 36.6207 46.8531 36.8165C46.9021 37.3061 46.7552 37.3551 46.3146 37.2082C45.5802 36.9634 44.8948 36.9145 44.1604 37.1592C44.1604 37.2082 44.1115 37.2572 44.1115 37.3061C45.5802 38.3342 47.049 39.4113 48.6156 40.4884C48.6646 40.1947 48.6646 39.9988 48.6646 39.852C48.6156 38.0895 48.5177 36.278 48.4688 34.5155C48.4688 34.0749 48.4198 33.5853 48.8115 33.1447C49.1542 33.977 49.5458 34.7603 49.7417 35.6415C49.6927 35.6415 49.6927 35.6905 49.6438 35.6905C49.4969 35.5436 49.35 35.3967 49.1542 35.2499C49.1542 35.3967 49.1052 35.4947 49.1052 35.5926C49.2031 37.1592 49.2521 38.7259 49.35 40.2926C49.399 41.2228 50.1333 41.7613 51.0146 41.6634C51.9448 41.5655 52.1896 41.3207 52.0917 40.3905C51.8958 37.8936 51.7 35.3478 51.5042 32.8509C51.4062 31.7738 51.3083 30.6967 51.2594 29.6197C51.2594 29.277 51.3083 28.8853 51.4062 28.5426C51.9448 29.277 52.2875 30.0113 52.5323 30.8436C52.4833 30.8926 52.4833 30.8926 52.4344 30.9415C52.2875 30.7457 52.0917 30.5988 51.8469 30.3051C51.8958 31.0395 51.9938 31.7249 52.0427 32.3613C52.2385 34.8582 52.4344 37.3551 52.5813 39.852C52.6302 40.2436 52.5813 40.6842 52.5323 41.1249C52.3365 42.2509 51.7 42.7405 50.574 42.6426C50.2313 42.5936 49.8885 42.5447 49.4969 42.4467C49.6927 44.503 49.8885 46.5103 49.301 48.4686C49.2521 48.4686 49.2031 48.4686 49.2031 48.4686C49.2031 48.3217 49.1542 48.2238 49.1542 48.077C49.1542 47.9301 49.1542 47.8322 49.1542 47.6853C49.1052 45.8738 49.0073 44.0624 48.9583 42.2509C48.9583 41.9082 48.8604 41.7124 48.5667 41.5165C47.3427 40.5863 46.0698 39.6072 44.8458 38.677C44.699 38.579 44.5521 38.4811 44.3073 38.4322C44.4052 38.579 44.4542 38.7259 44.5521 38.8728C44.7479 39.3134 44.9927 39.7051 45.0906 40.1457C45.3844 41.3697 44.8458 42.2509 43.7198 42.6915C43.426 42.8384 43.0833 42.8874 42.7406 42.9853C42.1042 43.2301 41.4677 43.4749 40.8313 43.7686C39.4115 44.552 38.8729 46.4124 39.6562 47.8322C40.0479 48.5665 40.6844 48.9092 41.4677 48.9582C42.1042 49.0072 42.7896 49.0561 43.426 48.9092C44.7969 48.6645 46.0698 48.028 47.1958 47.1957C47.8813 46.7061 47.8813 46.5592 47.6365 45.7759C47.3917 44.9926 47.0979 44.2582 46.9021 43.5238C46.8042 43.1322 46.8531 42.7405 46.8042 42.2999C46.8531 42.2999 46.9021 42.2509 46.951 42.2509C47.3427 42.6915 47.6854 43.1322 48.126 43.6707C47.8813 43.6707 47.7344 43.6707 47.5385 43.6707C47.5875 43.8176 47.5875 43.9645 47.6365 44.1113C47.7344 44.454 47.8813 44.7967 47.9792 45.0905C48.3219 46.1676 48.126 47.1467 47.2448 47.9301C46.6083 48.5176 46.3146 49.252 46.3146 50.0842C46.3146 50.4759 46.3635 50.8186 46.7552 51.0145C47.1469 51.2592 47.4896 51.0634 47.7344 50.8186C48.224 50.378 48.7135 49.9863 49.1052 49.4967C50.0354 48.3217 51.2104 47.4405 52.6302 46.902C52.826 46.853 53.0219 46.7061 53.2177 46.6572C53.5604 46.5592 53.7073 46.3145 53.7073 45.9228C53.7562 45.4332 53.7563 44.8947 53.9031 44.4051C54.05 44.0134 54.2948 43.6707 54.5885 43.377C54.8823 43.1322 55.176 43.2301 55.3719 43.5238C55.6656 44.0624 55.8125 44.6499 55.6167 45.2374C55.3719 45.8738 55.0781 46.5103 54.4906 46.902C54.9313 47.4895 55.225 47.5874 55.7635 47.3915C56.6448 47.0978 56.9385 46.804 56.8896 46.1186C56.7427 43.2301 56.5958 40.3415 56.4 37.453C56.3021 35.8374 56.2042 34.1728 56.1062 32.5572C56.1062 32.1655 56.1552 31.7249 56.2042 31.3332C56.2531 31.3332 56.351 31.3332 56.4 31.3332C56.6937 32.0676 56.9875 32.802 57.3302 33.5363C57.2812 33.5853 57.2323 33.5853 57.1833 33.6342C57.0365 33.4874 56.8896 33.3405 56.6448 33.1447C56.6937 34.0749 56.7427 34.9072 56.8406 35.7395C57.0365 38.8238 57.4281 41.9082 57.2812 45.0415C57.2323 45.727 57.1344 46.4613 56.9385 47.1467C56.7917 47.6853 56.4 48.077 55.9104 48.3217C55.176 48.7134 54.4906 48.5176 54.1969 47.7342C54.05 47.3426 53.8052 47.2936 53.4625 47.4405C51.7979 48.077 50.2802 48.9092 49.1542 50.378C48.8604 50.7697 48.4688 51.1613 48.126 51.4551C47.4896 51.9447 46.8042 51.7978 46.3635 51.1124C46.0698 50.6228 45.9719 50.0842 46.0698 49.5457C46.1187 49.3009 46.1188 49.1051 46.1677 48.7624C45.5313 49.0072 44.9927 49.252 44.4542 49.4478C43.524 49.7905 42.4958 49.9863 41.4677 49.9374C39.8521 49.7905 38.824 48.7134 38.9219 47.0978C38.9708 46.4613 39.0688 45.8249 39.1667 45.0905C39.0198 45.1884 38.8729 45.2863 38.775 45.3842C38.5302 45.5801 38.2854 45.8249 37.9917 45.9717C37.2573 46.4124 36.5229 46.1186 36.2292 45.3353C35.9844 44.552 35.9844 43.7686 36.2781 43.0342C36.5719 42.2509 36.7188 41.6145 36.1802 40.8311C35.9354 40.4395 35.9844 39.7051 36.1313 39.2155C36.474 38.2853 37.0125 37.404 37.4531 36.5228C37.4531 36.4738 37.551 36.4738 37.649 36.4738C37.6 36.6207 37.551 36.7676 37.5021 36.9145C37.1104 37.7957 36.7188 38.628 36.376 39.5092C36.2292 40.1457 36.1802 40.6353 36.6208 40.978C37.0615 41.3207 37.551 41.1249 37.8938 40.8311C39.2156 39.754 40.5375 38.628 41.9083 37.453C41.3698 37.0124 40.9292 36.6697 40.4396 36.327C39.7542 35.8374 39.0688 35.3478 38.4323 34.8092C37.9427 34.4665 37.7958 33.977 37.9917 33.4384ZM49.4479 28.2488C49.1542 28.2488 48.8115 28.2978 48.5177 28.2978C48.7625 27.9061 49.4479 27.6613 49.8396 27.9061C50.0354 28.004 50.1333 28.1999 49.8885 28.3467C49.6438 28.5426 49.301 28.6405 49.0562 28.7874C49.0562 28.7384 49.0073 28.6895 49.0073 28.6405C49.1542 28.5426 49.301 28.4447 49.4479 28.3467C49.4969 28.3467 49.4969 28.2978 49.4479 28.2488ZM50.9167 34.0259C50.7208 34.2217 50.6229 34.3686 50.476 34.4665C50.3781 34.3197 50.1823 34.1238 50.1823 33.977C50.1823 33.5363 50.3292 33.1447 50.3781 32.704C50.4271 32.704 50.476 32.704 50.476 32.753C50.574 33.1447 50.1333 33.7322 50.9167 34.0259ZM51.2104 39.803C51.0635 39.9499 50.9656 40.0967 50.8188 40.2436C50.7208 40.0967 50.525 39.9988 50.476 39.852C50.4271 39.5582 50.476 39.2155 50.525 38.8728C50.574 38.579 50.7698 38.2853 50.8677 37.9915C50.9167 37.9915 50.9167 38.0405 50.9656 38.0405C50.8677 38.3832 50.7698 38.7259 50.6719 39.0686C50.6229 39.4603 50.6229 39.754 51.2104 39.803ZM48.0281 38.628C48.0281 38.7259 48.0281 38.7749 48.0281 38.7749C47.8813 38.9217 47.7344 39.0197 47.5875 39.1665C47.4896 38.9707 47.3427 38.8238 47.3427 38.628C47.3427 38.0895 47.5385 37.5999 47.8813 37.2082C47.7833 37.5509 47.6365 37.8936 47.5875 38.2363C47.5385 38.4811 47.5385 38.8238 48.0281 38.628ZM47.1958 32.4592C47.0979 32.6551 47 32.802 46.9021 32.9488C46.8531 32.9978 46.6573 32.9488 46.6083 32.8999C46.5594 32.802 46.5104 32.704 46.5104 32.6061C46.5104 31.9697 46.8531 31.4311 47.2937 30.9905C47.0979 31.4801 46.9021 31.9697 46.7063 32.5572C46.9021 32.5082 47.049 32.4592 47.1958 32.4592ZM43.3771 33.6342C43.2302 33.5853 43.1323 33.5363 42.9365 33.4384C42.8385 34.1238 42.6917 34.7603 42.5938 35.3967C42.5448 35.3967 42.4958 35.3967 42.4469 35.3967C42.349 35.2499 42.3 35.054 42.1531 34.9072C41.9573 34.7113 41.6635 34.5155 41.4677 34.3197C41.3698 34.2217 41.2719 34.0259 41.174 33.879C41.174 33.8301 41.2719 33.6342 41.2719 33.6342C41.4188 33.6342 41.5656 33.6832 41.6635 33.7811C41.9083 34.0259 42.1531 34.2707 42.4469 34.5645C42.5448 34.1238 42.6427 33.7322 42.7406 33.3895C42.7896 33.2426 43.0344 32.9488 43.0833 32.9978C43.426 33.0957 43.475 33.3405 43.3771 33.6342ZM53.2177 33.879C53.2177 33.928 53.2667 33.928 53.2667 33.977C53.1198 34.0749 52.9729 34.2217 52.826 34.3197C52.7281 34.1728 52.5323 33.977 52.5813 33.8301C52.5813 33.4874 52.6792 33.1447 52.875 32.802C52.875 33.1447 52.875 33.5363 52.875 33.928C53.0219 33.879 53.1198 33.879 53.2177 33.879ZM53.7073 30.6478C53.7073 30.354 53.7563 30.0603 53.7563 29.8155C53.8052 29.8155 53.8542 29.8155 53.9521 29.7665C54.2458 30.5009 54.5885 31.2353 54.8823 31.9697C54.8333 31.9697 54.8333 32.0186 54.7844 32.0186C54.6375 31.9207 54.4906 31.8228 54.1969 31.6759C54.3437 33.6342 54.4906 35.4947 54.6375 37.3551C55.176 37.1592 55.225 37.0613 55.0292 36.7186C54.7354 36.278 54.8823 35.8863 55.4698 35.7395C55.7635 36.278 55.7146 36.9634 55.274 37.3551C54.9313 37.6488 54.7844 38.0405 54.7354 38.4811C54.6865 39.2155 54.5885 39.9499 54.4906 40.6842C54.4906 40.7822 54.4417 40.929 54.2948 41.027C54.2458 40.1457 54.1969 39.3134 54.1479 38.3832C53.7563 38.5301 53.4625 38.677 53.1198 38.8238C53.1198 38.7749 53.0708 38.7749 53.0708 38.7259C53.3156 38.5301 53.5604 38.3832 53.8052 38.1874C54.05 37.9915 54.1479 37.7957 54.1479 37.453C53.9521 35.2009 53.8542 32.8999 53.7073 30.6478ZM55.9104 41.7124C56.1552 42.0551 56.1063 42.202 55.5188 42.6426C55.274 42.4957 55.0292 42.2999 54.7354 42.104C54.4906 42.2999 54.2948 42.4957 54.05 42.7405C53.8542 42.5447 53.6583 42.3488 53.4625 42.104C53.6583 41.8592 53.8542 41.6145 54.05 41.3697C54.2948 41.5655 54.4906 41.7613 54.6865 41.9082C55.5187 41.3697 55.6656 41.3697 55.9104 41.7124ZM53.6094 43.0832C53.2177 43.328 52.875 43.4749 52.5813 43.6707C52.5323 43.6217 52.5323 43.6217 52.4833 43.5728C52.5812 43.4749 52.7281 43.4259 52.826 43.328C52.826 43.279 52.7771 43.2301 52.7771 43.2301C52.5323 43.2301 52.2875 43.1811 52.0427 43.1811C52.3365 42.7895 52.924 42.7405 53.6094 43.0832ZM50.9167 45.0415C51.1615 44.6988 51.5042 44.454 51.8469 44.2092C51.8958 44.1603 52.0917 44.3072 52.2385 44.3561C52.1406 44.454 52.0427 44.503 51.8958 44.6009C51.8469 44.6499 51.749 44.6009 51.749 44.6009C51.6021 44.6988 51.4062 44.8457 51.2594 44.9926C51.4062 45.0905 51.6021 45.2374 51.749 45.2863C52.0917 45.3353 52.4833 45.2863 52.875 45.2863C52.875 45.3842 52.924 45.4332 52.924 45.5311C52.2385 45.7759 51.5042 46.0207 50.8188 46.2655C50.8188 46.2165 50.7698 46.2165 50.7698 46.1676C50.8677 46.0207 50.9656 45.8738 51.0635 45.8249C50.9656 45.4822 50.8188 45.1884 50.9167 45.0415ZM46.0208 46.2655C46.1187 46.1676 46.2167 46.1186 46.3146 46.0207C46.3146 46.3145 46.2167 46.7061 45.874 46.6572C45.5312 46.6572 45.4823 46.3145 45.4823 46.0207C45.4823 45.5311 45.5802 45.0415 45.874 44.503C45.874 45.1884 45.4823 45.727 46.0208 46.2655ZM46.2167 42.3488C45.4333 43.2301 44.5031 43.9155 43.5729 44.552C43.524 44.503 43.524 44.503 43.475 44.454C43.6219 44.3072 43.8177 44.1603 43.9646 44.0134C44.601 43.4259 45.2865 42.8874 45.9229 42.2999C46.1677 42.0551 46.2656 41.8103 46.1187 41.4676C46.0208 41.2717 46.0698 40.929 46.1677 40.7332C46.3146 40.4884 46.5594 40.5374 46.6573 40.8311C46.7552 41.1249 46.8531 41.4186 46.9021 41.7124C46.9021 41.8103 46.8042 41.9082 46.7063 42.0061C46.5594 42.153 46.3146 42.202 46.2167 42.3488ZM44.5031 46.3145C44.3563 46.4613 44.2094 46.7551 44.0135 46.804C43.7688 46.853 43.2302 46.3145 43.2792 46.1186C43.3281 45.8738 43.3771 45.5801 43.7688 45.5801C44.0625 45.5311 44.4542 45.9717 44.5031 46.3145ZM41.5167 47.5874C41.7125 47.4405 41.8104 47.3915 41.9083 47.2936C41.9083 47.3426 41.9083 47.3426 41.9083 47.3426C41.7615 47.5384 41.6146 47.7342 41.4677 47.9301C41.3208 47.7342 41.076 47.4895 41.076 47.2447C41.0271 46.853 41.125 46.4613 41.174 46.0697C41.174 45.9228 41.2229 45.8249 41.2229 45.5801C40.8802 45.7759 40.5865 45.8738 40.2927 46.0207C40.2438 45.9717 40.2437 45.9228 40.1948 45.8738C40.9292 45.1884 41.9083 44.7478 42.7406 44.2582C42.7896 44.3072 42.7896 44.3561 42.8385 44.4051C42.6427 44.6009 42.4469 44.7967 42.2021 44.9436C41.5656 45.2863 41.3208 45.8738 41.2719 46.5592C41.3698 46.902 41.4677 47.1957 41.5167 47.5874ZM58.6521 38.0895C58.75 40.0478 58.8969 41.9572 58.9458 43.9155C58.9458 44.552 58.75 45.2374 58.6521 45.8738C58.6521 45.9717 58.5542 46.0207 58.5052 46.1186C58.3583 45.5801 58.0156 34.2217 58.2115 33.928C58.701 34.6624 58.9458 35.4457 59.1906 36.229C59.1417 36.278 59.0927 36.327 59.0437 36.327C58.9458 36.1311 58.8479 35.9353 58.75 35.7395C58.701 35.7884 58.6521 35.7884 58.6031 35.8374C58.6031 36.6207 58.6521 37.3551 58.6521 38.0895ZM59.7292 40.4395C59.8271 40.3905 59.925 40.3415 60.0719 40.2436C59.974 40.4884 59.925 40.6353 59.876 40.7822C59.8271 40.8801 59.6802 40.978 59.6313 40.978C59.5333 40.929 59.4354 40.8311 59.3865 40.7332C59.2885 39.9499 59.4354 39.1665 59.876 38.4811C59.8271 39.1176 59.2396 39.7051 59.7292 40.4395ZM37.6979 47.1957C37.7958 47.0978 37.8937 46.9999 37.9917 46.9509C38.0896 46.902 38.2365 46.902 38.2854 46.9509C38.3344 46.9999 38.3833 47.1467 38.3833 47.2447C38.2365 47.6363 38.0896 48.028 37.8938 48.4197C37.7469 47.979 38.3833 47.5874 37.6979 47.1957ZM49.9865 50.9165C50.0354 50.8186 50.0844 50.7207 50.1823 50.6228C50.2313 50.5738 50.3781 50.4759 50.4271 50.5249C50.525 50.5738 50.574 50.6717 50.574 50.7697C50.6229 51.2103 50.3781 51.602 49.9865 51.9447C50.1333 51.602 50.2802 51.3082 50.3781 51.0145C50.2313 50.9655 50.1333 50.9165 49.9865 50.9165ZM51.5042 49.5457C51.651 49.5947 51.8469 49.5947 51.9448 49.6926C52.2385 49.9863 52.5323 50.329 52.826 50.6717C52.875 50.5738 52.875 50.4759 52.924 50.329C53.0219 50.0353 53.1198 49.7415 53.2667 49.4967C53.3156 49.3499 53.5115 49.3009 53.6094 49.203C53.7073 49.3499 53.8542 49.4478 53.9521 49.5947C54.001 49.7415 54.001 49.8884 54.001 50.1332C53.3646 49.6926 53.3156 49.6926 53.0708 50.329C52.9729 50.6717 52.826 51.0145 52.6792 51.504C52.5323 51.2592 52.4833 51.0634 52.3854 50.9165C52.1896 50.6717 51.9937 50.4759 51.749 50.2801C51.7 50.2311 51.5531 50.1822 51.5531 50.0842C51.5531 49.9374 51.5531 49.7415 51.5042 49.5457ZM39.4115 38.3832C39.4604 38.4322 39.4604 38.4322 39.5094 38.4811C39.3625 38.628 39.2156 38.8238 39.0688 38.9707C38.9219 38.7749 38.6281 38.5301 38.6771 38.3342C38.726 37.7957 38.9219 37.3061 39.0688 36.8165C39.1177 36.8165 39.1177 36.8655 39.1667 36.8655C39.0688 37.2572 38.9708 37.6978 38.9708 38.0895C38.9219 38.4322 39.0198 38.4811 39.4115 38.3832ZM37.9917 35.8374C37.9917 35.9353 37.9427 36.0822 37.8938 36.1311C37.551 36.4249 37.1594 36.6697 36.7677 36.9145C36.1312 37.3061 35.5438 37.6488 34.9073 37.9915C34.9073 37.9426 34.9073 37.9426 34.9073 37.8936C35.5927 37.404 36.2781 36.9145 36.9146 36.3759C37.1594 36.1801 37.4042 35.9353 37.0615 35.5926C36.8656 35.3478 37.2573 34.6624 37.551 34.7113C37.6 34.7113 37.7469 34.8092 37.7469 34.9072C37.8448 35.2009 37.9427 35.5436 37.9917 35.8374ZM35.9354 36.0822C35.9354 35.7884 35.9354 35.4947 35.9354 35.2009C35.9844 35.2009 36.0333 35.2009 36.0333 35.2009C36.0823 35.3478 36.1313 35.4947 36.1802 35.6905C36.2781 35.6415 36.376 35.6415 36.474 35.5926C36.474 35.6415 36.5229 35.6415 36.5229 35.6905C36.376 35.8374 36.1802 35.9842 36.0333 36.1311C35.9844 36.1311 35.9844 36.0822 35.9354 36.0822ZM35.1031 43.0832C35.0542 43.0832 35.0542 43.0342 35.0052 43.0342C35.201 42.6426 35.3969 42.2999 35.5927 41.8592C35.4458 41.8103 35.299 41.7613 35.201 41.7124C35.25 41.4186 35.3969 41.2228 35.6906 41.3207C35.7885 41.3697 35.8375 41.7124 35.7885 41.8592C35.5927 42.2999 35.299 42.6915 35.1031 43.0832Z" fill="#F7A94B"/>
<path d="M62.324 65.751C61.4917 65.751 54.2458 65.751 47.8812 65.751C47.8812 66.6322 47.8812 67.5624 47.8812 68.3458C54.4417 68.3458 61.6385 68.3458 62.7156 68.3458C63.8417 68.3458 64.1844 67.9541 64.1844 66.877C64.1844 66.0937 63.401 65.751 62.324 65.751Z" fill="#F7A94B"/>
<path d="M37.2083 42.1041C37.1104 42.1041 37.0125 42.202 36.9635 42.2999C36.5229 43.1812 36.2292 44.1114 36.376 45.0905C36.425 45.4822 36.6698 45.727 37.0615 45.6291C37.4042 45.5312 37.7469 45.4333 38.0406 45.1885C38.5792 44.7968 39.0687 44.3072 39.5583 43.8666C40.2437 43.2301 41.076 42.7405 41.9573 42.4468C42.4958 42.251 43.0344 42.1041 43.5729 41.9572C43.9156 41.8593 44.2094 41.7124 44.5031 41.5166C44.7969 41.3697 44.8948 41.076 44.699 40.7822C44.1115 39.7051 43.426 38.7749 42.4958 37.9426C42.3 38.0895 42.1042 38.1874 41.9573 38.3343C41.076 39.1176 40.1948 39.901 39.3135 40.6843C38.726 41.2228 38.1385 41.8593 37.2083 42.1041ZM38.726 43.6708C38.3833 43.6218 38.4323 43.2791 38.4812 43.0343C38.5302 42.5447 38.6771 42.1041 38.775 41.6635C38.824 41.6635 38.8729 41.7124 38.9219 41.7124C38.8729 42.202 38.2854 42.7405 38.9219 43.2791C39.0198 43.2301 39.1177 43.1812 39.2156 43.0833C39.1177 43.377 39.0198 43.7197 38.726 43.6708ZM41.9573 40.6353C42.2021 40.4395 42.3979 40.1947 42.6427 40.0968C42.7406 40.0478 42.9854 40.2926 43.1323 40.4395C43.426 40.7333 43.3771 40.9291 42.8875 41.5166C42.5937 41.3208 42.349 41.1249 42.0552 40.8801C41.8594 41.1249 41.6146 41.3208 41.4187 41.5655C41.125 41.3697 40.8802 41.1249 40.5865 40.9291C40.7823 40.0968 40.9781 40.0968 41.9573 40.6353Z" fill="#F7A94B"/>
<path d="M54.4417 46.3635C55.0781 46.2166 55.3719 45.5802 55.1271 44.9927C55.0292 44.7479 54.8823 44.4541 54.5396 44.552C54.1969 44.601 54.001 44.8948 54.001 45.4333C54.05 45.5802 54.05 45.9229 54.1479 46.2166C54.1969 46.2656 54.3927 46.4125 54.4417 46.3635Z" fill="#F7A94B"/>
<path d="M47.8813 65.7509C47.8813 64.429 47.8813 63.254 47.8813 62.7644C47.8813 61.6384 47.4896 61.2957 46.4125 61.2957C45.3354 61.2957 42.6917 61.2957 41.2229 61.2957C39.7542 61.2957 39.3625 61.6873 39.3625 62.4217C39.3625 62.4217 39.3625 64.0863 39.3625 65.7509C39.3625 66.6811 39.3625 67.6602 39.3625 68.3457C39.3625 68.6884 39.3625 68.9332 39.3625 69.08C39.3625 70.2061 39.7542 70.9405 41.2229 69.8144C42.6917 68.6884 43.426 67.954 44.5521 68.6884C45.6781 69.4227 47.8813 71.2832 47.8813 70.1571C47.8813 69.8144 47.8813 69.129 47.8813 68.2967C47.8813 67.5134 47.8813 66.5832 47.8813 65.7509Z" fill="#F16F67"/>
<path d="M37.7469 34.9073C37.6979 34.8093 37.6 34.7114 37.551 34.7114C37.2573 34.7114 36.8656 35.3968 37.0615 35.5927C37.4042 35.9843 37.1594 36.1802 36.9146 36.376C36.2292 36.8656 35.5927 37.4041 34.9073 37.8937C34.9073 37.9427 34.9073 37.9427 34.9073 37.9916C35.5437 37.6489 36.1802 37.2573 36.7677 36.9146C37.1594 36.6698 37.551 36.425 37.8937 36.1312C37.9917 36.0823 38.0406 35.9354 37.9917 35.8375C37.9427 35.5437 37.8448 35.201 37.7469 34.9073Z" fill="#F6F5EE"/>
<path d="M38.3833 34.8582C39.0687 35.3478 39.7542 35.8374 40.3906 36.3759C40.8312 36.7186 41.2719 37.0613 41.8594 37.5019C40.4885 38.6769 39.1667 39.803 37.8448 40.8801C37.5021 41.1738 37.0125 41.3696 36.5719 41.0269C36.1802 40.6353 36.2292 40.1457 36.376 39.7051C36.7187 38.8238 37.1104 37.9426 37.5021 37.1103C37.551 36.9634 37.6 36.8165 37.649 36.6696C37.551 36.6696 37.4531 36.6696 37.4531 36.7186C37.0125 37.5999 36.474 38.4811 36.1312 39.4113C35.9354 39.9009 35.8865 40.6353 36.1802 41.0269C36.6698 41.8103 36.5719 42.4957 36.2781 43.2301C36.0333 43.9644 35.9844 44.7478 36.2292 45.5311C36.5229 46.3634 37.2083 46.6082 37.9917 46.1676C38.2854 46.0207 38.4812 45.7759 38.775 45.5801C38.8729 45.4821 39.0198 45.3842 39.1667 45.2863C39.0687 46.0207 38.9219 46.6571 38.9219 47.2936C38.824 48.9092 39.8521 50.0353 41.4677 50.1332C42.4958 50.2311 43.475 49.9863 44.4542 49.6436C44.9927 49.4478 45.5312 49.203 46.1677 48.9582C46.1187 49.2519 46.0698 49.4967 46.0698 49.7415C45.9719 50.2801 46.0208 50.8186 46.3635 51.3082C46.8042 51.9936 47.4896 52.1405 48.126 51.6509C48.5177 51.3571 48.8604 50.9655 49.1542 50.5738C50.2802 49.1051 51.7979 48.2238 53.4625 47.6363C53.8052 47.4894 54.05 47.5384 54.1969 47.9301C54.4906 48.7134 55.176 48.9092 55.9104 48.5176C56.4 48.2728 56.7917 47.8811 56.9385 47.3426C57.1344 46.6571 57.2323 45.9717 57.2812 45.2374C57.4281 42.153 57.0365 39.0686 56.8406 35.9353C56.7917 35.103 56.7427 34.2707 56.6448 33.3405C56.8896 33.5363 57.0365 33.6832 57.1833 33.8301C57.2323 33.7811 57.2812 33.7811 57.3302 33.7321C57.0365 32.9978 56.7427 32.2634 56.4 31.529C56.351 31.529 56.2531 31.529 56.2042 31.529C56.1552 31.9207 56.1062 32.3613 56.1062 32.753C56.2042 34.3686 56.3021 36.0332 56.4 37.6488C56.5469 40.5374 56.7427 43.4259 56.8896 46.3144C56.9385 47.0488 56.6937 47.2936 55.7635 47.5874C55.225 47.7832 54.9312 47.6363 54.4906 47.0978C55.0781 46.7061 55.3719 46.0696 55.6167 45.4332C55.8125 44.7967 55.6656 44.2582 55.3719 43.7196C55.176 43.3769 54.8823 43.279 54.5885 43.5728C54.2948 43.8665 54.001 44.2092 53.9031 44.6009C53.7562 45.0905 53.7562 45.5801 53.7073 46.1186C53.7073 46.4613 53.5604 46.7061 53.2177 46.853C53.0219 46.9019 52.826 47.0488 52.6302 47.0978C51.2104 47.6363 50.0844 48.5176 49.1052 49.6926C48.7135 50.1821 48.224 50.6228 47.7344 51.0144C47.4406 51.2592 47.0979 51.4551 46.7552 51.2103C46.4125 51.0144 46.3146 50.6228 46.3146 50.2801C46.2656 49.3988 46.6083 48.6644 47.2448 48.1259C48.126 47.3426 48.3219 46.4124 47.9792 45.2863C47.8812 44.9436 47.7344 44.6009 47.6365 44.3071C47.5875 44.1603 47.5875 44.0134 47.5385 43.8665C47.7344 43.8665 47.8812 43.8665 48.126 43.8665C47.6854 43.328 47.2937 42.8874 46.951 42.4467C46.9021 42.4467 46.8531 42.4957 46.8042 42.4957C46.8531 42.8874 46.8042 43.328 46.9021 43.7196C47.0979 44.503 47.3917 45.2374 47.6365 45.9717C47.8812 46.7551 47.8812 46.9019 47.1958 47.3915C46.0698 48.2238 44.8458 48.8603 43.426 49.1051C42.7896 49.203 42.1042 49.203 41.4677 49.154C40.6844 49.0561 40.0479 48.7134 39.6562 48.028C38.9219 46.5592 39.4115 44.7478 40.8312 43.9644C41.4187 43.6217 42.1042 43.4259 42.7406 43.1811C43.0344 43.0342 43.3771 42.9853 43.7198 42.8874C44.8458 42.4467 45.3354 41.5165 45.0906 40.3415C44.9927 39.9009 44.7479 39.5092 44.5521 39.0686C44.5031 38.9217 44.4052 38.7749 44.3073 38.628C44.5521 38.6769 44.699 38.7749 44.8458 38.8728C46.0698 39.803 47.2937 40.7821 48.5667 41.7124C48.8115 41.9082 48.9583 42.104 48.9583 42.4467C49.0073 44.2582 49.1052 46.0696 49.1542 47.8811C49.1542 48.028 49.1542 48.1259 49.1542 48.2728C49.1542 48.4196 49.2031 48.5176 49.2031 48.6644C49.2521 48.6644 49.301 48.6644 49.301 48.6644C49.8885 46.7061 49.6927 44.6499 49.4969 42.6426C49.8885 42.6915 50.2312 42.7894 50.574 42.8384C51.7 42.9363 52.3854 42.3978 52.5323 41.3207C52.5812 40.929 52.6302 40.4884 52.5812 40.0478C52.4344 37.5509 52.2385 35.054 52.0427 32.5571C51.9937 31.9207 51.9448 31.2842 51.8469 30.5009C52.0917 30.7946 52.2875 30.9415 52.4344 31.1374C52.4833 31.0884 52.4833 31.0884 52.5323 31.0394C52.3365 30.2071 51.9448 29.4238 51.4062 28.7384C51.3083 29.1301 51.2104 29.4728 51.2594 29.8155C51.3083 30.8926 51.4062 31.9696 51.5042 33.0467C51.7 35.5436 51.9448 38.0894 52.0917 40.5863C52.1406 41.5165 51.8958 41.7613 51.0146 41.8592C50.0844 41.9571 49.399 41.4186 49.35 40.4884C49.2521 38.9217 49.2031 37.3551 49.1052 35.7884C49.1052 35.6905 49.1052 35.5926 49.1542 35.4457C49.35 35.6415 49.4969 35.7394 49.6437 35.8863C49.6927 35.8863 49.6927 35.8374 49.7417 35.8374C49.5458 34.9561 49.1542 34.1728 48.8115 33.3405C48.4687 33.7811 48.4687 34.2707 48.4687 34.7113C48.5177 36.4738 48.5667 38.2853 48.6646 40.0478C48.6646 40.1946 48.6156 40.3905 48.6156 40.6842C47.049 39.5582 45.5802 38.5301 44.1115 37.5019C44.1115 37.453 44.1604 37.404 44.1604 37.3551C44.8948 37.1103 45.5802 37.1592 46.3146 37.404C46.7552 37.5509 46.9021 37.5019 46.8531 37.0124C46.8531 36.8165 46.7062 36.5717 46.5104 36.4249C46.3146 36.229 46.0698 36.1311 45.874 36.0332C45.1885 35.5926 44.65 34.1238 44.9437 33.3405C45.0906 33.3894 45.1885 33.4384 45.3354 33.4874C45.3844 33.4384 45.3844 33.4384 45.4333 33.3894C45.0906 32.8019 44.7969 32.2634 44.4542 31.6759C44.4052 31.6759 44.3562 31.6759 44.3073 31.7249C44.3073 32.1165 44.2094 32.5082 44.2583 32.8999C44.4052 33.879 44.601 34.8582 44.7479 35.8374C44.7479 35.9842 44.699 36.229 44.65 36.278C44.2094 36.4738 43.7198 36.6207 43.2792 36.7676C43.1323 36.8165 42.9365 36.7186 42.7896 36.6207C41.4677 35.8374 40.1948 35.054 38.8729 34.2217C38.726 34.1238 38.5792 34.0259 38.3344 33.8301C38.5792 33.6832 38.775 33.5363 38.9708 33.4384C41.8104 32.1165 44.7479 31.0394 47.8323 30.4519C48.2729 30.354 48.8115 30.403 49.2521 30.5009C49.8885 30.6478 49.9375 31.0884 49.4479 31.529C48.9583 31.9696 48.4687 32.3613 47.9792 32.8019C47.3917 33.3405 46.951 33.9769 46.6573 34.7603C47.6854 33.7811 48.6646 32.8019 49.6437 31.8228C49.8885 31.529 50.0844 31.1863 50.2312 30.7946C50.476 30.1092 50.0354 29.5217 49.35 29.4728C49.1052 29.4728 48.8604 29.4728 48.6156 29.5217C48.0771 29.6196 47.5385 29.7176 47 29.8644C45.1396 30.403 43.2792 30.9905 41.4187 31.529C41.174 31.6269 41.0271 31.6269 40.8802 31.3332C40.5375 30.5988 40.5375 30.5499 41.2719 30.2561C41.3208 30.2561 41.3698 30.2071 41.3698 30.2071C42.9854 29.6196 44.601 28.9832 46.2167 28.3957C46.3635 28.3467 46.5104 28.2488 46.6573 28.1509C46.6573 28.1019 46.6083 28.1019 46.6083 28.053C46.5594 28.053 46.4615 28.053 46.4125 28.053C44.5031 28.7384 42.6427 29.3749 40.7823 30.1092C40.6354 30.1582 40.4885 30.354 40.3906 30.5499C40.1458 31.0394 40.3906 31.4311 40.7823 31.7738C40.5865 31.8717 40.4885 31.9696 40.3417 32.0186C39.7542 32.3124 39.1667 32.6061 38.5792 32.9488C38.3344 33.0957 38.1385 33.3894 37.9917 33.6342C37.7958 33.9769 37.9427 34.4665 38.3833 34.8582ZM54.5396 44.5519C54.8823 44.503 55.0292 44.7478 55.1271 44.9926C55.3719 45.5801 55.0781 46.2165 54.4417 46.3634C54.3437 46.3634 54.1479 46.2655 54.1479 46.1676C54.05 45.8738 54.001 45.5801 54.001 45.3842C53.9521 44.8946 54.1479 44.6009 54.5396 44.5519ZM42.5448 37.9426C43.475 38.7749 44.2094 39.7051 44.7479 40.7821C44.9437 41.1249 44.8458 41.3696 44.5521 41.5165C44.2583 41.6634 43.9156 41.8592 43.6219 41.9571C43.0833 42.153 42.5448 42.2999 42.0062 42.4467C41.076 42.7405 40.2927 43.2301 39.6073 43.8665C39.1177 44.3071 38.6281 44.7967 38.0896 45.1884C37.7958 45.3842 37.4531 45.5311 37.1104 45.629C36.7187 45.7269 36.474 45.4821 36.425 45.0905C36.2781 44.1113 36.5229 43.1811 37.0125 42.2999C37.0615 42.2019 37.1594 42.104 37.2573 42.104C38.1385 41.9082 38.775 41.2717 39.4115 40.6842C40.2927 39.9009 41.174 39.1176 42.0552 38.3342C42.1531 38.1874 42.349 38.0894 42.5448 37.9426Z" fill="#F6F5EE"/>
<path d="M53.8052 38.1874C53.5604 38.3343 53.3156 38.5301 53.0708 38.726C53.0708 38.7749 53.1198 38.7749 53.1198 38.8239C53.4135 38.677 53.7562 38.5791 54.1479 38.3833C54.1969 39.3135 54.2458 40.1947 54.2948 41.027C54.4417 40.9291 54.4906 40.7822 54.4906 40.6843C54.5885 39.9499 54.6865 39.2156 54.7354 38.4812C54.7844 37.9916 54.9312 37.6489 55.274 37.3551C55.7146 36.9635 55.8125 36.2781 55.4698 35.7395C54.8823 35.8864 54.7354 36.2291 55.0292 36.7187C55.225 37.0614 55.176 37.2083 54.6375 37.3551C54.4906 35.4947 54.3437 33.6343 54.1969 31.676C54.4417 31.8229 54.5885 31.9208 54.7844 32.0187C54.8333 32.0187 54.8333 31.9697 54.8823 31.9697C54.5885 31.2354 54.2458 30.501 53.9521 29.7666C53.9031 29.7666 53.8542 29.7666 53.7562 29.8156C53.7073 30.1093 53.6583 30.4031 53.7073 30.6479C53.8052 32.9489 53.9521 35.201 54.099 37.502C54.1479 37.7958 54.05 37.9916 53.8052 38.1874Z" fill="#F6F5EE"/>
<path d="M59.0437 36.3269C59.0927 36.278 59.1417 36.229 59.1906 36.229C58.9458 35.4457 58.701 34.6624 58.2115 33.928C58.0646 34.2217 58.3583 45.5801 58.5052 46.1186C58.5542 46.0207 58.6031 45.9228 58.6521 45.8738C58.75 45.2374 58.9948 44.5519 58.9458 43.9155C58.8969 41.9571 58.75 40.0478 58.6521 38.0894C58.6031 37.3551 58.5542 36.6207 58.5542 35.8863C58.6031 35.8374 58.6521 35.8374 58.701 35.7884C58.799 35.9842 58.8969 36.1311 59.0437 36.3269Z" fill="#F6F5EE"/>
<path d="M54.05 41.4187C53.8542 41.6635 53.6583 41.9083 53.4625 42.1531C53.6583 42.3489 53.8542 42.5937 54.05 42.7895C54.2948 42.5447 54.4906 42.3489 54.7354 42.1531C55.0292 42.3489 55.274 42.4958 55.5187 42.6916C56.0573 42.251 56.1552 42.1041 55.9104 41.7614C55.6167 41.3697 55.5187 41.4187 54.6865 42.0062C54.4906 41.7614 54.2948 41.6145 54.05 41.4187Z" fill="#F6F5EE"/>
<path d="M46.9021 41.7614C46.8531 41.4676 46.7062 41.1739 46.6573 40.8801C46.5594 40.5864 46.3146 40.5374 46.1677 40.7822C46.0698 40.9781 46.0208 41.3208 46.1187 41.5166C46.2656 41.9083 46.2167 42.1531 45.9229 42.3489C45.2865 42.9364 44.601 43.4749 43.9646 44.0624C43.8177 44.2093 43.6219 44.3562 43.475 44.5031C43.524 44.552 43.524 44.552 43.5729 44.601C44.5521 43.9645 45.4823 43.2791 46.2167 42.3978C46.3635 42.251 46.5594 42.1531 46.7552 42.0551C46.8042 41.9572 46.9021 41.8103 46.9021 41.7614Z" fill="#F6F5EE"/>
<path d="M42.3 44.9925C42.5448 44.8457 42.7406 44.6498 42.9365 44.454C42.8875 44.405 42.8875 44.3561 42.8385 44.3071C41.9573 44.8457 41.0271 45.2373 40.2927 45.9228C40.3417 45.9717 40.3417 46.0207 40.3906 46.0696C40.6844 45.9228 40.9781 45.7759 41.3208 45.629C41.3208 45.8248 41.2719 45.9717 41.2719 46.1186C41.2229 46.5103 41.125 46.9019 41.174 47.2936C41.174 47.5384 41.4187 47.7342 41.5656 47.979C41.7125 47.7832 41.8594 47.5873 42.0062 47.3915V47.3425C41.9083 47.3915 41.8104 47.4894 41.6146 47.6363C41.5656 47.2936 41.4187 46.9509 41.4677 46.7061C41.3698 45.9228 41.6146 45.3353 42.3 44.9925Z" fill="#F6F5EE"/>
<path d="M50.7698 46.1677C51.4552 45.9229 52.1896 45.6781 52.875 45.4333C52.875 45.3354 52.826 45.2864 52.826 45.1885C52.4344 45.1885 52.0917 45.2375 51.7 45.1885C51.5042 45.1885 51.3573 44.9927 51.2104 44.8947C51.3573 44.7479 51.5531 44.65 51.7 44.5031C51.749 44.4541 51.7979 44.5031 51.8469 44.5031C51.9448 44.4541 52.0427 44.3562 52.1896 44.2583C52.0427 44.2093 51.8469 44.0625 51.7979 44.1114C51.4552 44.3562 51.1125 44.65 50.8677 44.9437C50.7698 45.0416 50.9167 45.3843 51.0146 45.6291C50.9656 45.727 50.8187 45.825 50.7208 45.9718C50.7698 46.1187 50.7698 46.1677 50.7698 46.1677Z" fill="#F6F5EE"/>
<path d="M51.7979 50.2802C51.9937 50.476 52.2385 50.6719 52.4344 50.9167C52.5323 51.0635 52.6302 51.2594 52.7281 51.5042C52.875 51.0635 52.9729 50.7208 53.1198 50.3292C53.3156 49.6927 53.4135 49.6927 54.05 50.1333C54.05 49.8885 54.05 49.7417 54.001 49.5948C53.9521 49.4479 53.8052 49.301 53.6583 49.2031C53.5604 49.301 53.3646 49.399 53.3156 49.4969C53.1687 49.7417 53.0708 50.0354 52.9729 50.3292C52.924 50.4271 52.875 50.525 52.875 50.6719C52.5812 50.3292 52.2875 49.9865 51.9937 49.6927C51.8958 49.5948 51.7 49.5948 51.5531 49.5458C51.6021 49.7417 51.6021 49.9375 51.651 50.0844C51.6021 50.1823 51.749 50.2312 51.7979 50.2802Z" fill="#F6F5EE"/>
<path d="M42.7896 33.3895C42.6427 33.7322 42.5938 34.1239 42.4958 34.5645C42.2021 34.2708 41.9573 33.977 41.7125 33.7812C41.6146 33.6833 41.4677 33.6833 41.3208 33.6343C41.2719 33.6343 41.174 33.8302 41.2229 33.8791C41.2719 34.026 41.3698 34.1729 41.5167 34.3197C41.7125 34.5156 42.0062 34.7114 42.2021 34.9072C42.349 35.0541 42.3979 35.25 42.4958 35.3968C42.5448 35.3968 42.5937 35.3968 42.6427 35.3968C42.7406 34.7604 42.8385 34.1239 42.9854 33.4385C43.1813 33.5364 43.2792 33.5854 43.426 33.6343C43.5729 33.3406 43.475 33.0958 43.2302 32.9979C43.1323 32.9489 42.8875 33.2427 42.7896 33.3895Z" fill="#F6F5EE"/>
<path d="M43.2792 46.0698C43.2302 46.2656 43.7687 46.8042 44.0135 46.7552C44.2094 46.7063 44.3562 46.4615 44.5031 46.2656C44.4542 45.9229 44.0135 45.5312 43.7198 45.5312C43.3771 45.5312 43.3281 45.825 43.2792 46.0698Z" fill="#F6F5EE"/>
<path d="M49.1052 28.8364C49.399 28.6896 49.6927 28.5427 49.9375 28.3958C50.1823 28.2489 50.0844 28.0531 49.8885 27.9552C49.4969 27.7104 48.8115 27.9552 48.5667 28.3469C48.8604 28.3469 49.1542 28.2979 49.4969 28.2979C49.4969 28.3469 49.4969 28.3958 49.5458 28.4448C49.399 28.5427 49.2521 28.6406 49.1052 28.7385C49.0562 28.7385 49.0562 28.7875 49.1052 28.8364Z" fill="#F6F5EE"/>
<path d="M45.4823 46.0206C45.4823 46.3144 45.5312 46.6571 45.874 46.6571C46.2167 46.6571 46.3146 46.3144 46.3146 46.0206C46.2167 46.1186 46.1187 46.1675 46.0208 46.2654C45.5312 45.7269 45.9229 45.1883 45.9229 44.5029C45.5802 45.0415 45.4823 45.5311 45.4823 46.0206Z" fill="#F6F5EE"/>
<path d="M50.9656 38.0404C50.9167 38.0404 50.9167 37.9915 50.8677 37.9915C50.7698 38.2852 50.574 38.579 50.525 38.8727C50.476 39.1665 50.4271 39.5092 50.476 39.8519C50.476 39.9987 50.6719 40.1456 50.8188 40.2435C50.9656 40.0967 51.0635 39.9498 51.2104 39.8029C50.6229 39.754 50.6229 39.4602 50.7208 39.0685C50.7698 38.7258 50.8677 38.3831 50.9656 38.0404Z" fill="#F6F5EE"/>
<path d="M39.1667 36.8165C39.1177 36.8165 39.1177 36.7676 39.0688 36.7676C38.9219 37.2572 38.726 37.7467 38.6771 38.2853C38.6771 38.4811 38.9219 38.7259 39.0688 38.9217C39.2156 38.7749 39.3625 38.579 39.5094 38.4322C39.4604 38.3832 39.4604 38.3832 39.4115 38.3342C39.0198 38.4811 38.9219 38.3832 38.9219 37.9915C38.9708 37.6488 39.1177 37.2572 39.1667 36.8165Z" fill="#F6F5EE"/>
<path d="M59.3865 40.6842C59.3865 40.7821 59.5333 40.88 59.6312 40.929C59.6802 40.929 59.8271 40.8311 59.876 40.7332C59.974 40.5863 60.0229 40.4394 60.0719 40.1946C59.925 40.2925 59.8271 40.3415 59.7292 40.3905C59.2396 39.6561 59.8271 39.0686 59.876 38.4321C59.4844 39.1665 59.3375 39.9009 59.3865 40.6842Z" fill="#F6F5EE"/>
<path d="M52.0427 43.1811C52.2875 43.1811 52.5323 43.2301 52.7771 43.2301C52.7771 43.279 52.826 43.328 52.826 43.328C52.7281 43.4259 52.5812 43.4749 52.4833 43.5728C52.5323 43.6217 52.5323 43.6217 52.5812 43.6707C52.924 43.4748 53.2177 43.328 53.6094 43.0832C52.924 42.7405 52.3365 42.7894 52.0427 43.1811Z" fill="#F6F5EE"/>
<path d="M47.8812 37.2083C47.4896 37.5999 47.3427 38.0895 47.3427 38.628C47.3427 38.8239 47.4896 38.9708 47.5875 39.1666C47.7344 39.0197 47.8812 38.9218 48.0281 38.7749C48.0281 38.7749 48.0281 38.677 48.0281 38.628C47.5875 38.8239 47.5385 38.5301 47.5875 38.2364C47.6365 37.8937 47.7833 37.551 47.8812 37.2083Z" fill="#F6F5EE"/>
<path d="M46.5104 32.6061C46.5104 32.704 46.5594 32.8509 46.6573 32.8999C46.7552 32.9488 46.9021 32.9978 46.951 32.9488C47.049 32.8509 47.1469 32.6551 47.2448 32.4592C47.049 32.5082 46.951 32.5082 46.6573 32.5571C46.9021 31.9696 47.049 31.4801 47.2448 30.9905C46.8042 31.4311 46.5104 31.9207 46.5104 32.6061Z" fill="#F6F5EE"/>
<path d="M50.525 32.704C50.476 32.704 50.4271 32.704 50.4271 32.655C50.3292 33.0957 50.2312 33.4873 50.2312 33.9279C50.2312 34.0748 50.4271 34.2707 50.525 34.4175C50.6719 34.2707 50.7698 34.1238 50.9656 33.9769C50.1333 33.7321 50.574 33.1446 50.525 32.704Z" fill="#F6F5EE"/>
<path d="M35.6417 41.3697C35.3479 41.2718 35.25 41.4676 35.1521 41.7614C35.25 41.8103 35.3969 41.8593 35.5437 41.9083C35.3479 42.2999 35.1521 42.6916 34.9562 43.0833C35.0052 43.0833 35.0052 43.1322 35.0542 43.1322C35.299 42.7405 35.5437 42.3489 35.7396 41.9083C35.8375 41.7124 35.7396 41.3697 35.6417 41.3697Z" fill="#F6F5EE"/>
<path d="M52.5812 33.7812C52.5812 33.9281 52.7771 34.1239 52.826 34.2708C52.9729 34.1729 53.1198 34.026 53.2667 33.9281C53.2667 33.8791 53.2177 33.8791 53.2177 33.8301C53.1198 33.8301 53.0219 33.8301 52.875 33.8301C52.875 33.4385 52.875 33.0958 52.875 32.7041C52.7281 33.0958 52.5812 33.4385 52.5812 33.7812Z" fill="#F6F5EE"/>
<path d="M37.8937 48.4198C38.0406 48.0281 38.2365 47.6364 38.3833 47.2448C38.4323 47.1469 38.3833 47 38.2854 46.951C38.2365 46.9021 38.0896 46.9021 37.9917 46.951C37.8937 47 37.7958 47.0979 37.6979 47.1958C38.3833 47.5875 37.7469 47.9792 37.8937 48.4198Z" fill="#F6F5EE"/>
<path d="M38.2854 32.6061C38.4323 32.4593 38.5302 32.3613 38.5792 32.2634C37.8937 31.7249 38.4812 31.2353 38.4323 30.7947C38.0406 31.2843 37.8937 32.1166 38.2854 32.6061Z" fill="#F6F5EE"/>
<path d="M50.574 50.7696C50.574 50.6717 50.476 50.5738 50.4271 50.5248C50.3781 50.4759 50.2312 50.5738 50.1823 50.6227C50.1333 50.6717 50.0844 50.7696 49.9865 50.9165C50.1333 50.9654 50.2312 50.9654 50.3781 51.0144C50.2312 51.3082 50.1333 51.6019 49.9865 51.9446C50.3781 51.5529 50.6229 51.2102 50.574 50.7696Z" fill="#F6F5EE"/>
<path d="M36.474 35.5926C36.376 35.6416 36.2781 35.6416 36.1802 35.6905C36.1312 35.4947 36.0823 35.3478 36.0333 35.2009C35.9844 35.2009 35.9354 35.2009 35.9354 35.2009C35.9354 35.4947 35.9354 35.7884 35.9354 36.0822C35.9844 36.0822 35.9844 36.1311 36.0333 36.1311C36.1802 35.9843 36.376 35.8374 36.5229 35.6905C36.5229 35.6416 36.474 35.6416 36.474 35.5926Z" fill="#F6F5EE"/>
<path d="M42.0062 40.8312C42.3 41.076 42.5937 41.2718 42.8385 41.4676C43.3281 40.8801 43.3771 40.6843 43.0833 40.3906C42.9365 40.2437 42.6917 40.0479 42.5937 40.0479C42.349 40.1458 42.1531 40.3906 41.9083 40.5864C40.9292 40.0479 40.7333 40.0479 40.4885 40.8312C40.7823 41.027 41.0271 41.2228 41.3208 41.4676C41.6146 41.2718 41.8104 41.076 42.0062 40.8312Z" fill="#F6F5EE"/>
<path d="M38.9219 41.7123C38.8729 41.7123 38.824 41.6633 38.775 41.6633C38.6771 42.104 38.5302 42.5935 38.4812 43.0342C38.4323 43.279 38.3833 43.6706 38.726 43.6706C39.0198 43.7196 39.1667 43.3769 39.1667 43.0342C39.0687 43.0831 38.9708 43.181 38.8729 43.23C38.2854 42.6915 38.8729 42.2019 38.9219 41.7123Z" fill="#F6F5EE"/>
</g>
<defs>
<clipPath id="clip0_275_210">
<rect width="94" height="94" fill="white"/>
</clipPath>
</defs>
</svg>
