<svg width="538" height="102" viewBox="0 0 538 102" fill="none" xmlns="http://www.w3.org/2000/svg">
<path opacity="0.4" d="M0.875 8.625V7.625H-0.125V8.625H0.875ZM60.375 14.1875L59.8492 15.0382L59.8562 15.0424L60.375 14.1875ZM55.125 51.5L54.8891 50.5282L54.125 50.7137V51.5H55.125ZM55.125 52.125H54.125V52.8947L54.8691 53.0917L55.125 52.125ZM61.875 92.875L62.4827 93.6692L62.4834 93.6686L61.875 92.875ZM0.875 100H-0.125V101H0.875V100ZM25.5625 43.6875H24.5625V44.6875H25.5625V43.6875ZM41.1875 41.5L40.5902 40.6979L40.582 40.7042L41.1875 41.5ZM25.5625 27.3125V26.3125H24.5625V27.3125H25.5625ZM25.5625 61.75V60.75H24.5625V61.75H25.5625ZM25.5625 80.9375H24.5625V81.9375H25.5625V80.9375ZM42.6875 64.1875L42.0647 64.97L42.0725 64.976L42.6875 64.1875ZM0.875 9.625H32.75V7.625H0.875V9.625ZM32.75 9.625C45.104 9.625 54.0866 11.4765 59.8493 15.0381L60.9007 13.3369C54.6634 9.48185 45.2294 7.625 32.75 7.625V9.625ZM59.8562 15.0424C65.5641 18.5065 68.4375 23.8898 68.4375 31.375H70.4375C70.4375 23.2769 67.2692 17.2018 60.8938 13.3326L59.8562 15.0424ZM68.4375 31.375C68.4375 36.3211 67.1741 40.4831 64.6901 43.9135L66.3099 45.0865C69.0759 41.2669 70.4375 36.6789 70.4375 31.375H68.4375ZM64.6901 43.9135C62.2025 47.3487 58.9463 49.5435 54.8891 50.5282L55.3609 52.4718C59.887 51.3732 63.5475 48.9013 66.3099 45.0865L64.6901 43.9135ZM54.125 51.5V52.125H56.125V51.5H54.125ZM54.8691 53.0917C60.3921 54.5537 64.2632 56.9557 66.6283 60.2126L68.2467 59.0374C65.5285 55.2943 61.1913 52.6963 55.3809 51.1583L54.8691 53.0917ZM66.6283 60.2126C69.0142 63.498 70.25 67.8164 70.25 73.25H72.25C72.25 67.517 70.9441 62.752 68.2467 59.0374L66.6283 60.2126ZM70.25 73.25C70.25 81.2498 67.2549 87.4903 61.2666 92.0814L62.4834 93.6686C68.9951 88.6764 72.25 81.8336 72.25 73.25H70.25ZM61.2673 92.0808C55.2885 96.6552 47.049 99 36.4375 99V101C47.326 101 56.0449 98.5948 62.4827 93.6692L61.2673 92.0808ZM36.4375 99H0.875V101H36.4375V99ZM1.875 100V8.625H-0.125V100H1.875ZM25.5625 44.6875H33V42.6875H25.5625V44.6875ZM33 44.6875C36.6616 44.6875 39.6373 43.936 41.793 42.2958L40.582 40.7042C38.9043 41.9806 36.4217 42.6875 33 42.6875V44.6875ZM41.7848 42.302C44.0434 40.62 45.125 38.1275 45.125 35H43.125C43.125 37.6225 42.2482 39.4633 40.5902 40.698L41.7848 42.302ZM45.125 35C45.125 32.1427 44.0203 29.8881 41.7703 28.4003C39.5929 26.9603 36.4535 26.3125 32.5 26.3125V28.3125C36.2965 28.3125 38.9696 28.9459 40.6672 30.0685C42.2922 31.1431 43.125 32.7323 43.125 35H45.125ZM32.5 26.3125H25.5625V28.3125H32.5V26.3125ZM24.5625 27.3125V43.6875H26.5625V27.3125H24.5625ZM24.5625 61.75V80.9375H26.5625V61.75H24.5625ZM25.5625 81.9375H34.25V79.9375H25.5625V81.9375ZM34.25 81.9375C38.2206 81.9375 41.385 81.104 43.5665 79.2645C45.7807 77.3974 46.8125 74.6406 46.8125 71.1875H44.8125C44.8125 74.2344 43.9172 76.3526 42.2772 77.7355C40.6046 79.146 37.9877 79.9375 34.25 79.9375V81.9375ZM46.8125 71.1875C46.8125 67.8904 45.6675 65.2437 43.3025 63.399L42.0725 64.976C43.8741 66.3813 44.8125 68.4013 44.8125 71.1875H46.8125ZM43.3102 63.4051C41.0221 61.5839 37.7844 60.75 33.75 60.75V62.75C37.5489 62.75 40.2695 63.5411 42.0648 64.9699L43.3102 63.4051ZM33.75 60.75H25.5625V62.75H33.75V60.75ZM92.375 91.875L91.6795 92.5935L91.6842 92.598L92.375 91.875ZM91.6875 37.5625L92.4133 38.2504L92.4156 38.248L91.6875 37.5625ZM142.25 36.3125L141.556 37.0325L141.561 37.0375L142.25 36.3125ZM151 71.1875V72.1875H152V71.1875H151ZM107.312 71.1875V70.1875H106.27L106.313 71.2296L107.312 71.1875ZM111.625 80.5L110.986 81.2692L110.992 81.274L111.625 80.5ZM134.625 82.6875L134.841 83.664L134.849 83.6621L134.625 82.6875ZM146.375 78.5H147.375V76.9317L145.953 77.5934L146.375 78.5ZM146.375 96.0625L146.83 96.953L147.375 96.6746V96.0625H146.375ZM111.188 47.3125L111.87 48.043L111.871 48.0425L111.188 47.3125ZM107.812 55.8125L106.816 55.7268L106.723 56.8125H107.812V55.8125ZM128.812 55.8125V56.8125H129.837L129.812 55.7881L128.812 55.8125ZM125.875 47.625L125.131 48.2932L125.138 48.3014L125.875 47.625ZM119.875 100.25C108.26 100.25 99.3703 97.1753 93.0658 91.152L91.6842 92.598C98.4631 99.0747 107.907 102.25 119.875 102.25V100.25ZM93.0705 91.1565C86.8159 85.1024 83.625 76.455 83.625 65.0625H81.625C81.625 76.8367 84.9341 86.0643 91.6795 92.5935L93.0705 91.1565ZM83.625 65.0625C83.625 53.266 86.6032 44.381 92.4133 38.2504L90.9617 36.8746C84.6884 43.494 81.625 52.9423 81.625 65.0625H83.625ZM92.4156 38.248C98.22 32.0833 106.55 28.9375 117.562 28.9375V26.9375C106.158 26.9375 97.2384 30.2083 90.9594 36.877L92.4156 38.248ZM117.562 28.9375C128.057 28.9375 136.005 31.6812 141.556 37.0324L142.944 35.5926C136.912 29.7772 128.401 26.9375 117.562 26.9375V28.9375ZM141.561 37.0375C147.141 42.3382 150 50.0419 150 60.3125H152C152 49.6664 149.026 41.3702 142.939 35.5875L141.561 37.0375ZM150 60.3125V71.1875H152V60.3125H150ZM151 70.1875H107.312V72.1875H151V70.1875ZM106.313 71.2296C106.49 75.4311 108.032 78.8149 110.986 81.2692L112.264 79.7308C109.802 77.6851 108.468 74.8606 108.312 71.1454L106.313 71.2296ZM110.992 81.274C113.971 83.7117 117.949 84.875 122.812 84.875V82.875C118.26 82.875 114.779 81.7883 112.258 79.726L110.992 81.274ZM122.812 84.875C127.165 84.875 131.176 84.4736 134.841 83.664L134.409 81.711C130.908 82.4847 127.044 82.875 122.812 82.875V84.875ZM134.849 83.6621C138.557 82.8098 142.54 81.3876 146.797 79.4066L145.953 77.5934C141.793 79.5291 137.943 80.8985 134.401 81.7129L134.849 83.6621ZM145.375 78.5V96.0625H147.375V78.5H145.375ZM145.92 95.172C142.17 97.0878 138.304 98.4096 134.319 99.1414L134.681 101.109C138.863 100.34 142.913 98.9539 146.83 96.953L145.92 95.172ZM134.319 99.1414C130.313 99.8774 125.501 100.25 119.875 100.25V102.25C125.582 102.25 130.521 101.873 134.681 101.109L134.319 99.1414ZM118.438 43.5625C115.329 43.5625 112.662 44.5625 110.504 46.5825L111.871 48.0425C113.63 46.3958 115.796 45.5625 118.438 45.5625V43.5625ZM110.505 46.582C108.337 48.608 107.161 51.7217 106.816 55.7268L108.809 55.8982C109.131 52.1533 110.204 49.6003 111.87 48.043L110.505 46.582ZM107.812 56.8125H128.812V54.8125H107.812V56.8125ZM129.812 55.7881C129.724 52.1881 128.686 49.2075 126.612 46.9486L125.138 48.3014C126.814 50.1258 127.734 52.6036 127.813 55.8369L129.812 55.7881ZM126.619 46.9569C124.569 44.6736 121.803 43.5625 118.438 43.5625V45.5625C121.322 45.5625 123.515 46.4931 125.131 48.2931L126.619 46.9569ZM209.5 100H208.5V101H209.5V100ZM207.438 50.75L206.562 51.2331L206.567 51.2421L206.572 51.251L207.438 50.75ZM189.25 100V101H190.25V100H189.25ZM164.812 100H163.812V101H164.812V100ZM164.812 29.1875V28.1875H163.812V29.1875H164.812ZM183.25 29.1875L184.194 28.8571L183.959 28.1875H183.25V29.1875ZM186.312 37.9375L185.369 38.2679L185.603 38.9375H186.312V37.9375ZM187.75 37.9375V38.9375H188.304L188.598 38.4675L187.75 37.9375ZM196.375 30.4375L195.965 29.5254L195.961 29.5271L196.375 30.4375ZM227.375 34.75L226.651 35.4403L226.655 35.4438L227.375 34.75ZM233.938 100V101H234.938V100H233.938ZM210.5 100V61.375H208.5V100H210.5ZM210.5 61.375C210.5 56.601 209.808 52.8495 208.303 50.249L206.572 51.251C207.817 53.4005 208.5 56.7323 208.5 61.375H210.5ZM208.313 50.2669C206.786 47.4987 204.263 46.125 200.938 46.125V48.125C203.612 48.125 205.423 49.1679 206.562 51.2331L208.313 50.2669ZM200.938 46.125C196.492 46.125 193.156 47.9322 191.126 51.5759L192.874 52.5491C194.511 49.6095 197.133 48.125 200.938 48.125V46.125ZM191.126 51.5759C189.159 55.1082 188.25 60.9808 188.25 69H190.25C190.25 61.0192 191.174 55.6001 192.874 52.5491L191.126 51.5759ZM188.25 69V100H190.25V69H188.25ZM189.25 99H164.812V101H189.25V99ZM165.812 100V29.1875H163.812V100H165.812ZM164.812 30.1875H183.25V28.1875H164.812V30.1875ZM182.306 29.5179L185.369 38.2679L187.256 37.6071L184.194 28.8571L182.306 29.5179ZM186.312 38.9375H187.75V36.9375H186.312V38.9375ZM188.598 38.4675C190.574 35.3052 193.296 32.9353 196.789 31.3479L195.961 29.5271C192.12 31.273 189.092 33.9031 186.902 37.4075L188.598 38.4675ZM196.785 31.3496C200.343 29.7503 204.45 28.9375 209.125 28.9375V26.9375C204.217 26.9375 199.823 27.7914 195.965 29.5254L196.785 31.3496ZM209.125 28.9375C216.757 28.9375 222.551 31.1432 226.651 35.4403L228.099 34.0597C223.532 29.2735 217.16 26.9375 209.125 26.9375V28.9375ZM226.655 35.4438C230.8 39.7471 232.938 45.8638 232.938 53.9375H234.938C234.938 45.5112 232.7 38.8362 228.095 34.0562L226.655 35.4438ZM232.938 53.9375V100H234.938V53.9375H232.938ZM233.938 99H209.5V101H233.938V99ZM257.25 91.875L256.554 92.5935L256.559 92.598L257.25 91.875ZM256.562 37.5625L257.288 38.2504L257.291 38.248L256.562 37.5625ZM307.125 36.3125L306.431 37.0325L306.436 37.0375L307.125 36.3125ZM315.875 71.1875V72.1875H316.875V71.1875H315.875ZM272.188 71.1875V70.1875H271.145L271.188 71.2296L272.188 71.1875ZM276.5 80.5L275.861 81.2692L275.867 81.274L276.5 80.5ZM299.5 82.6875L299.716 83.664L299.724 83.6621L299.5 82.6875ZM311.25 78.5H312.25V76.9317L310.828 77.5934L311.25 78.5ZM311.25 96.0625L311.705 96.953L312.25 96.6746V96.0625H311.25ZM276.062 47.3125L276.745 48.043L276.746 48.0425L276.062 47.3125ZM272.688 55.8125L271.691 55.7268L271.598 56.8125H272.688V55.8125ZM293.688 55.8125V56.8125H294.712L294.687 55.7881L293.688 55.8125ZM290.75 47.625L290.006 48.2932L290.013 48.3014L290.75 47.625ZM284.75 100.25C273.135 100.25 264.245 97.1753 257.941 91.152L256.559 92.598C263.338 99.0747 272.782 102.25 284.75 102.25V100.25ZM257.945 91.1565C251.691 85.1024 248.5 76.455 248.5 65.0625H246.5C246.5 76.8367 249.809 86.0643 256.555 92.5935L257.945 91.1565ZM248.5 65.0625C248.5 53.266 251.478 44.381 257.288 38.2504L255.837 36.8746C249.563 43.494 246.5 52.9423 246.5 65.0625H248.5ZM257.291 38.248C263.095 32.0833 271.425 28.9375 282.438 28.9375V26.9375C271.033 26.9375 262.113 30.2083 255.834 36.877L257.291 38.248ZM282.438 28.9375C292.932 28.9375 300.88 31.6812 306.431 37.0324L307.819 35.5926C301.787 29.7772 293.276 26.9375 282.438 26.9375V28.9375ZM306.436 37.0375C312.016 42.3382 314.875 50.0419 314.875 60.3125H316.875C316.875 49.6664 313.901 41.3702 307.814 35.5875L306.436 37.0375ZM314.875 60.3125V71.1875H316.875V60.3125H314.875ZM315.875 70.1875H272.188V72.1875H315.875V70.1875ZM271.188 71.2296C271.365 75.4311 272.907 78.8149 275.861 81.2692L277.139 79.7308C274.677 77.6851 273.343 74.8606 273.187 71.1454L271.188 71.2296ZM275.867 81.274C278.846 83.7117 282.824 84.875 287.688 84.875V82.875C283.134 82.875 279.654 81.7883 277.133 79.726L275.867 81.274ZM287.688 84.875C292.04 84.875 296.051 84.4736 299.716 83.664L299.284 81.711C295.783 82.4847 291.918 82.875 287.688 82.875V84.875ZM299.724 83.6621C303.432 82.8098 307.415 81.3876 311.672 79.4066L310.828 77.5934C306.668 79.5291 302.818 80.8985 299.276 81.7129L299.724 83.6621ZM310.25 78.5V96.0625H312.25V78.5H310.25ZM310.795 95.172C307.045 97.0878 303.179 98.4096 299.194 99.1414L299.556 101.109C303.738 100.34 307.788 98.9539 311.705 96.953L310.795 95.172ZM299.194 99.1414C295.188 99.8774 290.376 100.25 284.75 100.25V102.25C290.457 102.25 295.396 101.873 299.556 101.109L299.194 99.1414ZM283.312 43.5625C280.204 43.5625 277.537 44.5625 275.379 46.5825L276.746 48.0425C278.505 46.3958 280.671 45.5625 283.312 45.5625V43.5625ZM275.38 46.582C273.212 48.608 272.036 51.7217 271.691 55.7268L273.684 55.8982C274.006 52.1533 275.079 49.6003 276.745 48.043L275.38 46.582ZM272.688 56.8125H293.688V54.8125H272.688V56.8125ZM294.687 55.7881C294.599 52.1881 293.561 49.2075 291.487 46.9486L290.013 48.3014C291.689 50.1258 292.609 52.6036 292.688 55.8369L294.687 55.7881ZM291.494 46.9569C289.444 44.6736 286.678 43.5625 283.312 43.5625V45.5625C286.197 45.5625 288.39 46.4931 290.006 48.2931L291.494 46.9569ZM407.125 100V101H408.125V100H407.125ZM382.688 100H381.688V101H382.688V100ZM382.688 29.1875V28.1875H381.688V29.1875H382.688ZM407.125 29.1875H408.125V28.1875H407.125V29.1875ZM385.125 3.375L384.465 2.62337L385.125 3.375ZM372.938 47.5V48.5H373.938V47.5H372.938ZM357.875 47.5V46.5H356.875V47.5H357.875ZM357.875 100V101H358.875V100H357.875ZM333.438 100H332.438V101H333.438V100ZM333.438 47.5H334.438V46.5H333.438V47.5ZM324.062 47.5H323.062V48.5H324.062V47.5ZM324.062 35.5L323.543 34.6454L323.062 34.9375V35.5H324.062ZM333.938 29.5L334.457 30.3546L334.938 30.0625V29.5H333.938ZM339.625 8.1875L338.896 7.50306L338.892 7.50705L339.625 8.1875ZM367.188 2.8125L367.016 3.79771L367.019 3.79812L367.188 2.8125ZM377.312 5.4375L378.262 5.7526L378.578 4.79845L377.623 4.48677L377.312 5.4375ZM372.062 21.25L371.795 22.2135L372.712 22.4682L373.012 21.5651L372.062 21.25ZM359.125 21.75L358.325 21.15L358.321 21.1548L359.125 21.75ZM357.875 29.1875H356.875V30.1875H357.875V29.1875ZM372.938 29.1875H373.938V28.1875H372.938V29.1875ZM407.125 99H382.688V101H407.125V99ZM383.688 100V29.1875H381.688V100H383.688ZM382.688 30.1875H407.125V28.1875H382.688V30.1875ZM406.125 29.1875V100H408.125V29.1875H406.125ZM383.062 11.5625C383.062 8.0779 384.028 5.6683 385.785 4.12663L384.465 2.62337C382.139 4.66503 381.062 7.71377 381.062 11.5625H383.062ZM385.785 4.12663C387.556 2.57254 390.55 1.6875 395 1.6875V-0.3125C390.367 -0.3125 386.778 0.594131 384.465 2.62337L385.785 4.12663ZM395 1.6875C399.443 1.6875 402.461 2.59067 404.277 4.18821L405.598 2.68679C403.247 0.617664 399.64 -0.3125 395 -0.3125V1.6875ZM404.277 4.18821C406.085 5.77977 407.062 8.17727 407.062 11.5625H409.062C409.062 7.78106 407.956 4.7619 405.598 2.68679L404.277 4.18821ZM407.062 11.5625C407.062 14.9348 406.047 17.3007 404.161 18.8529C402.238 20.4357 399.242 21.3125 395 21.3125V23.3125C399.466 23.3125 403.002 22.3976 405.432 20.3971C407.9 18.366 409.062 15.3569 409.062 11.5625H407.062ZM395 21.3125C390.801 21.3125 387.838 20.4365 385.936 18.8559C384.069 17.3047 383.062 14.9379 383.062 11.5625H381.062C381.062 15.3537 382.212 18.3619 384.658 20.3941C387.068 22.3969 390.574 23.3125 395 23.3125V21.3125ZM372.938 46.5H357.875V48.5H372.938V46.5ZM356.875 47.5V100H358.875V47.5H356.875ZM357.875 99H333.438V101H357.875V99ZM334.438 100V47.5H332.438V100H334.438ZM333.438 46.5H324.062V48.5H333.438V46.5ZM325.062 47.5V35.5H323.062V47.5H325.062ZM324.582 36.3546L334.457 30.3546L333.418 28.6454L323.543 34.6454L324.582 36.3546ZM334.938 29.5V28.3125H332.938V29.5H334.938ZM334.938 28.3125C334.938 19.0726 336.822 12.6758 340.358 8.86795L338.892 7.50705C334.845 11.8658 332.938 18.8858 332.938 28.3125H334.938ZM340.354 8.87194C343.921 5.07251 349.721 3.0625 358 3.0625V1.0625C349.446 1.0625 342.996 3.13582 338.896 7.50306L340.354 8.87194ZM358 3.0625C361.199 3.0625 364.204 3.30859 367.016 3.79771L367.359 1.82729C364.421 1.31641 361.301 1.0625 358 1.0625V3.0625ZM367.019 3.79812C369.874 4.2876 373.2 5.14828 377.002 6.38823L377.623 4.48677C373.758 3.22672 370.335 2.3374 367.356 1.82688L367.019 3.79812ZM376.363 5.1224L371.113 20.9349L373.012 21.5651L378.262 5.7526L376.363 5.1224ZM372.33 20.2865C369.25 19.4309 366.223 19 363.25 19V21C366.027 21 368.875 21.4024 371.795 22.2135L372.33 20.2865ZM363.25 19C361.159 19 359.441 19.6618 358.325 21.15L359.925 22.35C360.559 21.5049 361.591 21 363.25 21V19ZM358.321 21.1548C357.291 22.5458 356.875 24.6721 356.875 27.3125H358.875C358.875 24.7862 359.292 23.2042 359.929 22.3452L358.321 21.1548ZM356.875 27.3125V29.1875H358.875V27.3125H356.875ZM357.875 30.1875H372.938V28.1875H357.875V30.1875ZM371.938 29.1875V47.5H373.938V29.1875H371.938ZM470.688 79.5H471.688V78.0845L470.353 78.5575L470.688 79.5ZM470.688 97.3125L471.083 98.231L471.688 97.9708V97.3125H470.688ZM461.25 100.312L461.059 99.3309L461.051 99.3324L461.043 99.3341L461.25 100.312ZM433.062 95.25L432.318 95.9177L432.322 95.9215L433.062 95.25ZM427.625 47.5H428.625V46.5H427.625V47.5ZM419.062 47.5H418.062V48.5H419.062V47.5ZM419.062 37.5625L418.485 36.7459L418.062 37.0448V37.5625H419.062ZM429.938 29.875L430.515 30.6916L430.747 30.5274L430.858 30.2656L429.938 29.875ZM436.25 15V14H435.588L435.329 14.6094L436.25 15ZM452.25 15H453.25V14H452.25V15ZM452.25 29.1875H451.25V30.1875H452.25V29.1875ZM469.625 29.1875H470.625V28.1875H469.625V29.1875ZM469.625 47.5V48.5H470.625V47.5H469.625ZM452.25 47.5V46.5H451.25V47.5H452.25ZM458.875 82.9375C462.321 82.9375 466.377 82.0891 471.022 80.4425L470.353 78.5575C465.831 80.1609 462.012 80.9375 458.875 80.9375V82.9375ZM469.688 79.5V97.3125H471.688V79.5H469.688ZM470.292 96.394C467.055 97.7871 463.978 98.7633 461.059 99.3309L461.441 101.294C464.522 100.695 467.736 99.6713 471.083 98.231L470.292 96.394ZM461.043 99.3341C458.171 99.941 454.764 100.25 450.812 100.25V102.25C454.861 102.25 458.413 101.934 461.457 101.291L461.043 99.3341ZM450.812 100.25C442.74 100.25 437.159 98.2809 433.803 94.5785L432.322 95.9215C436.216 100.219 442.469 102.25 450.812 102.25V100.25ZM433.807 94.5823C430.415 90.8007 428.625 84.9014 428.625 76.6875H426.625C426.625 85.1402 428.46 91.616 432.318 95.9177L433.807 94.5823ZM428.625 76.6875V47.5H426.625V76.6875H428.625ZM427.625 46.5H419.062V48.5H427.625V46.5ZM420.062 47.5V37.5625H418.062V47.5H420.062ZM419.64 38.3791L430.515 30.6916L429.36 29.0584L418.485 36.7459L419.64 38.3791ZM430.858 30.2656L437.171 15.3906L435.329 14.6094L429.017 29.4844L430.858 30.2656ZM436.25 16H452.25V14H436.25V16ZM451.25 15V29.1875H453.25V15H451.25ZM452.25 30.1875H469.625V28.1875H452.25V30.1875ZM468.625 29.1875V47.5H470.625V29.1875H468.625ZM469.625 46.5H452.25V48.5H469.625V46.5ZM451.25 47.5V75.0625H453.25V47.5H451.25ZM451.25 75.0625C451.25 77.4992 451.837 79.5121 453.186 80.9126C454.542 82.3201 456.503 82.9375 458.875 82.9375V80.9375C456.83 80.9375 455.478 80.4091 454.626 79.5249C453.768 78.6338 453.25 77.2091 453.25 75.0625H451.25ZM494.062 100.375L494.211 99.3861L494.201 99.3846L494.062 100.375ZM482.188 97.3125H481.188V98.008L481.84 98.25L482.188 97.3125ZM482.188 77.75L482.59 76.8345L481.188 76.2181V77.75H482.188ZM494.625 81.875L494.391 82.8472L494.393 82.8477L494.625 81.875ZM512.438 76.5625L511.872 77.3872L511.885 77.3964L511.899 77.4052L512.438 76.5625ZM499.562 70.8125L499.183 71.7377L499.193 71.7417L499.562 70.8125ZM485.938 61.75L485.14 62.3531L485.143 62.3578L485.938 61.75ZM489.688 33.4375L490.272 34.2485L489.688 33.4375ZM524.375 29.5L524.128 30.469L524.139 30.4718L524.375 29.5ZM537.188 33.9375L538.109 34.3252L538.49 33.421L537.593 33.0233L537.188 33.9375ZM530.562 49.6875L530.153 50.5999L531.087 51.019L531.484 50.0752L530.562 49.6875ZM520.25 46L519.974 46.9612L519.984 46.964L520.25 46ZM507.438 50.5L506.901 51.3437L506.915 51.3531L506.93 51.3619L507.438 50.5ZM519.562 55.6875L519.943 54.7628L519.936 54.7599L519.929 54.757L519.562 55.6875ZM530.625 61.6875L529.995 62.4645L530.002 62.4697L530.625 61.6875ZM536 68.625L535.079 69.0137L535.082 69.0225L535.086 69.0311L536 68.625ZM536.75 78.25C536.75 85.5806 534.269 90.9857 529.4 94.6375L530.6 96.2375C536.064 92.1393 538.75 86.086 538.75 78.25H536.75ZM529.4 94.6375C524.473 98.3324 517.303 100.25 507.75 100.25V102.25C517.531 102.25 525.193 100.293 530.6 96.2375L529.4 94.6375ZM507.75 100.25C502.534 100.25 498.024 99.9601 494.211 99.3861L493.914 101.364C497.851 101.957 502.466 102.25 507.75 102.25V100.25ZM494.201 99.3846C490.404 98.8539 486.516 97.8524 482.535 96.375L481.84 98.25C485.942 99.7726 489.971 100.813 493.924 101.365L494.201 99.3846ZM483.188 97.3125V77.75H481.188V97.3125H483.188ZM481.785 78.6655C485.637 80.3586 489.84 81.7516 494.391 82.8472L494.859 80.9028C490.41 79.8317 486.321 78.4747 482.59 76.8345L481.785 78.6655ZM494.393 82.8477C498.988 83.9438 503.11 84.5 506.75 84.5V82.5C503.307 82.5 499.345 81.9729 494.857 80.9023L494.393 82.8477ZM506.75 84.5C509.441 84.5 511.598 84.1977 513.119 83.5034C513.891 83.1506 514.542 82.6773 514.999 82.0505C515.465 81.4128 515.688 80.6738 515.688 79.875H513.688C513.688 80.2845 513.58 80.6029 513.384 80.8714C513.18 81.1508 512.838 81.4327 512.288 81.6841C511.162 82.1982 509.351 82.5 506.75 82.5V84.5ZM515.688 79.875C515.688 78.1514 514.631 76.777 512.976 75.7198L511.899 77.4052C513.244 78.2647 513.688 79.0986 513.688 79.875H515.688ZM513.003 75.7378C512.189 75.1795 510.672 74.4174 508.533 73.4619C506.369 72.4956 503.5 71.3023 499.932 69.8833L499.193 71.7417C502.75 73.156 505.589 74.3378 507.717 75.2881C509.87 76.2493 511.228 76.9455 511.872 77.3872L513.003 75.7378ZM499.942 69.8873C493.511 67.2488 489.158 64.3127 486.732 61.1422L485.143 62.3578C487.883 65.9373 492.614 69.0429 499.183 71.7377L499.942 69.8873ZM486.735 61.1469C484.309 57.9388 483.062 53.8513 483.062 48.8125H481.062C481.062 54.1903 482.399 58.7279 485.14 62.3531L486.735 61.1469ZM483.062 48.8125C483.062 42.5314 485.465 37.7164 490.272 34.2485L489.103 32.6265C483.743 36.492 481.062 41.9269 481.062 48.8125H483.062ZM490.272 34.2485C495.121 30.7511 502.072 28.9375 511.25 28.9375V26.9375C501.845 26.9375 494.42 28.7906 489.103 32.6265L490.272 34.2485ZM511.25 28.9375C515.842 28.9375 520.133 29.45 524.128 30.469L524.622 28.531C520.45 27.4667 515.991 26.9375 511.25 26.9375V28.9375ZM524.139 30.4718C528.199 31.456 532.413 32.9143 536.782 34.8517L537.593 33.0233C533.129 31.044 528.801 29.544 524.611 28.5282L524.139 30.4718ZM536.266 33.5498L529.641 49.2998L531.484 50.0752L538.109 34.3252L536.266 33.5498ZM530.972 48.7751C527.673 47.2949 524.187 46.0488 520.516 45.036L519.984 46.964C523.563 47.9512 526.952 49.1635 530.153 50.5999L530.972 48.7751ZM520.526 45.0389C516.861 43.9858 513.801 43.4375 511.375 43.4375V45.4375C513.533 45.4375 516.389 45.9309 519.974 46.9611L520.526 45.0389ZM511.375 43.4375C509.326 43.4375 507.642 43.6832 506.435 44.2737C505.818 44.5758 505.293 44.9844 504.923 45.5271C504.549 46.077 504.375 46.7061 504.375 47.375H506.375C506.375 47.0648 506.451 46.837 506.577 46.6526C506.707 46.4609 506.932 46.2575 507.315 46.07C508.108 45.6814 509.424 45.4375 511.375 45.4375V43.4375ZM504.375 47.375C504.375 49.0397 505.349 50.3564 506.901 51.3437L507.974 49.6563C506.776 48.8936 506.375 48.127 506.375 47.375H504.375ZM506.93 51.3619C508.431 52.2446 512.561 54.0054 519.196 56.618L519.929 54.757C513.231 52.1196 509.277 50.422 507.945 49.6381L506.93 51.3619ZM519.182 56.6122C524.105 58.6395 527.689 60.5957 529.995 62.4644L531.255 60.9106C528.727 58.8626 524.936 56.8188 519.943 54.7628L519.182 56.6122ZM530.002 62.4697C532.341 64.333 534.024 66.5141 535.079 69.0137L536.921 68.2363C535.726 65.4026 533.826 62.9586 531.248 60.9053L530.002 62.4697ZM535.086 69.0311C536.181 71.4944 536.75 74.5556 536.75 78.25H538.75C538.75 74.361 538.152 71.0056 536.914 68.2189L535.086 69.0311Z" fill="#00DB81"/>
</svg>
