<svg width="216" height="64" viewBox="0 0 216 64" fill="none" xmlns="http://www.w3.org/2000/svg">
<g clip-path="url(#clip0_275_554)">
<path d="M63.9997 31.9995C63.9994 25.6708 62.1225 19.4842 58.6063 14.2221C55.09 8.96006 50.0924 4.85883 44.2454 2.43704C38.3983 0.015243 31.9644 -0.618343 25.7573 0.616401C19.5501 1.85114 13.8485 4.89876 9.37338 9.37387C4.89827 13.849 1.85066 19.5506 0.615913 25.7577C-0.618831 31.9649 0.0147547 38.3988 2.43655 44.2458C4.85834 50.0929 8.95957 55.0905 14.2216 58.6068C19.4837 62.123 25.6703 63.9999 31.999 64.0002C40.4861 64.0002 48.6256 60.6287 54.6269 54.6274C60.6282 48.6261 63.9997 40.4866 63.9997 31.9995Z" fill="#D7282D"/>
<path d="M45.1967 39.1412C44.8613 38.9671 44.4896 38.8743 44.1117 38.8706C42.4842 38.6902 41.7586 40.2262 41.4906 41.0407V41.1322C40.6775 43.5728 38.5977 44.386 35.9766 44.5677C33.9882 44.7481 29.7396 43.7545 25.5812 42.3976L33.2653 32.7238H36.5191C36.9714 32.7238 38.0564 32.814 38.0564 31.278C38.0564 30.0125 37.3335 29.8321 36.5191 29.8321H35.6145L44.3823 18.9818L44.7444 18.5295C45.0559 18.1133 45.2155 17.6031 45.1967 17.0836C45.2008 16.4029 44.9382 15.7476 44.4652 15.258C43.9922 14.7684 43.3464 14.4833 42.6659 14.4639H18.7115C18.5311 14.4639 18.4409 14.5541 18.3494 14.7345C17.897 16.5424 18.8919 19.3452 20.0671 19.6158C20.1734 19.6877 20.3017 19.7196 20.4292 19.706H37.2355L29.1003 29.7393H25.6714C24.4948 29.7393 24.0438 30.2818 24.0438 31.1852C24.0256 31.36 24.045 31.5367 24.1009 31.7033C24.1568 31.87 24.2478 32.0227 24.3677 32.1512C24.4877 32.2797 24.6338 32.381 24.7962 32.4482C24.9586 32.5154 25.1336 32.547 25.3093 32.5408H26.7551L17.8957 43.2983C17.6765 43.5805 17.5164 43.904 17.4248 44.2494C17.3333 44.5949 17.3122 44.9552 17.3628 45.3089C17.4134 45.6627 17.5347 46.0026 17.7195 46.3085C17.9043 46.6144 18.1487 46.88 18.4382 47.0894C18.7136 47.3063 19.0303 47.4649 19.3689 47.5553C19.7076 47.6458 20.0612 47.6662 20.408 47.6154C20.7549 47.5647 21.0877 47.4437 21.3862 47.26C21.6848 47.0763 21.9427 46.8336 22.1444 46.5469C30.1893 48.9875 34.3477 49.8007 38.3244 49.1679C40.1126 49.0125 41.8169 48.34 43.2294 47.2325C44.6419 46.125 45.7016 44.6304 46.2792 42.931V42.7506C46.5951 42.1234 46.6587 41.3991 46.4568 40.7265C46.255 40.0539 45.8031 39.4843 45.1941 39.1347" fill="white"/>
<path d="M78.1016 14.3726H80.9043L86.7805 23.2319C87.323 24.1352 88.046 25.585 88.046 25.585C88.046 25.585 87.8656 24.1392 87.8656 23.2319V14.3726H90.6683V29.7395H87.8656L81.9894 20.8801C81.4469 19.9768 80.7239 18.5271 80.7239 18.5271C80.7239 18.5271 80.9043 19.9729 80.9043 20.8801V29.7395H78.1016V14.3726Z" fill="black"/>
<path d="M99.0731 22.7794H99.4352V22.599C99.4352 21.1531 98.5319 20.6106 97.2651 20.6106C96.1586 20.674 95.0928 21.0502 94.1917 21.6956L93.1067 19.7073C94.3784 18.8183 95.894 18.3447 97.4455 18.3516C100.339 18.3516 102.056 19.9792 102.056 22.7807V29.7406H99.5254V28.0241C99.1358 28.7401 98.5269 29.3123 97.7881 29.6567C97.0494 30.0012 96.2197 30.0998 95.4208 29.9381C94.6218 29.7763 93.8958 29.3628 93.3492 28.7581C92.8027 28.1534 92.4643 27.3894 92.3838 26.5783C92.5642 23.0487 97.2651 22.7872 99.0731 22.7872V22.7794ZM96.9945 27.849C97.7007 27.7681 98.3514 27.4268 98.8194 26.8919C99.2874 26.3569 99.5391 25.6666 99.5254 24.956V24.6775H98.9829C97.5371 24.6775 95.2768 24.8579 95.2768 26.3953C95.2768 27.2084 95.8193 27.8411 96.9945 27.8411" fill="black"/>
<path d="M104.586 21.0617H103.141V18.8916H104.678V15.728H107.389V18.8916H109.92V21.0617H107.389V25.4018C107.372 25.6873 107.417 25.9731 107.521 26.2395C107.625 26.5058 107.786 26.7463 107.992 26.9441C108.199 27.1419 108.446 27.2924 108.717 27.385C108.987 27.4776 109.275 27.5102 109.559 27.4804H110.102V29.9211C109.835 29.9808 109.562 30.0111 109.289 30.0113C107.751 30.0113 104.678 29.5589 104.678 25.8528V21.0617H104.586Z" fill="black"/>
<path d="M111.458 14.3726H114.169V16.8132H111.458V14.3726ZM111.458 18.7114H114.169V29.7395H111.458V18.7114Z" fill="black"/>
<path d="M121.763 18.4409C122.896 18.4928 123.988 18.8763 124.905 19.5437C125.822 20.2111 126.523 21.133 126.921 22.1951C127.318 23.2572 127.396 24.4127 127.142 25.5182C126.889 26.6237 126.317 27.6306 125.497 28.4139C124.677 29.1972 123.645 29.7225 122.529 29.9245C121.413 30.1266 120.262 29.9965 119.22 29.5505C118.177 29.1044 117.288 28.362 116.663 27.4154C116.039 26.4688 115.706 25.3596 115.706 24.2255C115.712 23.4444 115.874 22.6723 116.184 21.9552C116.494 21.2381 116.945 20.5906 117.51 20.051C118.075 19.5115 118.742 19.0909 119.473 18.8143C120.203 18.5377 120.982 18.4107 121.763 18.4409ZM121.763 27.661C122.207 27.6648 122.646 27.5771 123.055 27.4034C123.464 27.2296 123.832 26.9737 124.137 26.6513C124.442 26.329 124.678 25.9473 124.829 25.53C124.981 25.1126 125.044 24.6686 125.016 24.2255C125.037 23.7843 124.968 23.3435 124.814 22.9294C124.66 22.5154 124.424 22.1368 124.12 21.816C123.816 21.4953 123.451 21.2392 123.046 21.0629C122.641 20.8866 122.204 20.7938 121.763 20.79C120.872 20.8201 120.027 21.1952 119.408 21.8361C118.788 22.477 118.442 23.3335 118.442 24.2249C118.442 25.1163 118.788 25.9728 119.408 26.6137C120.027 27.2546 120.872 27.6296 121.763 27.6597" fill="black"/>
<path d="M129.356 18.711H131.977V20.6994C132.353 20.0009 132.915 19.4201 133.601 19.0212C134.287 18.6223 135.07 18.4208 135.863 18.4391C138.304 18.4391 139.654 19.7046 139.654 22.6878V29.8294H136.943V23.2316C136.943 21.8759 136.581 20.9713 135.225 20.9713C134.549 20.9701 133.892 21.1905 133.353 21.5987C132.814 22.007 132.424 22.5805 132.242 23.2316C132.094 23.6983 132.032 24.1885 132.062 24.6774V29.7392H129.356V18.711Z" fill="black"/>
<path d="M147.706 22.7794H148.068V22.599C148.068 21.1531 147.165 20.6106 145.898 20.6106C144.791 20.674 143.726 21.0503 142.824 21.6956L141.739 19.7073C143.011 18.8183 144.527 18.3447 146.078 18.3516C148.971 18.3516 150.689 19.9792 150.689 22.7807V29.7406H148.158V28.0241C147.768 28.7401 147.16 29.3123 146.421 29.6567C145.682 30.0012 144.852 30.0998 144.053 29.9381C143.255 29.7763 142.529 29.3628 141.982 28.7581C141.435 28.1534 141.097 27.3894 141.017 26.5783C141.107 23.0487 145.898 22.7872 147.706 22.7872V22.7794ZM145.536 27.849C146.242 27.7681 146.893 27.4268 147.361 26.8919C147.829 26.3569 148.08 25.6666 148.067 24.956V24.6775H147.614C146.168 24.6775 143.908 24.8579 143.908 26.3953C143.905 26.6018 143.947 26.8066 144.03 26.9956C144.114 27.1847 144.237 27.3535 144.391 27.4907C144.545 27.6279 144.728 27.7302 144.925 27.7907C145.123 27.8512 145.331 27.8684 145.536 27.8411" fill="black"/>
<path d="M152.768 14.3726H155.479V25.9432C155.479 27.1197 155.932 27.4805 156.564 27.4805H157.017V29.9212C156.719 29.9771 156.416 30.0073 156.113 30.0114C154.576 30.0114 152.678 29.6493 152.678 26.4818V14.3726H152.768Z" fill="black"/>
<path d="M162.802 27.9314L169.671 18.0785C169.997 17.5989 170.36 17.1456 170.756 16.7229H163.164V14.2822H174.282V16.0902L167.412 25.9431C167.087 26.4227 166.724 26.876 166.327 27.2987H174.372V29.7394H162.802V27.9314Z" fill="black"/>
<path d="M182.328 22.7794H182.69V22.599C182.69 21.1531 181.787 20.6106 180.52 20.6106C179.413 20.674 178.348 21.0502 177.447 21.6956L176.362 19.7073C177.633 18.8183 179.149 18.3447 180.7 18.3516C183.593 18.3516 185.311 19.9792 185.311 22.7807V29.7406H182.78V28.0241C182.391 28.7401 181.782 29.3123 181.043 29.6567C180.304 30.0012 179.475 30.0998 178.676 29.9381C177.877 29.7763 177.151 29.3628 176.604 28.7581C176.058 28.1534 175.719 27.3894 175.639 26.5783C175.819 23.0487 180.52 22.7872 182.328 22.7872V22.7794ZM180.249 27.849C180.956 27.7681 181.606 27.4268 182.074 26.8919C182.542 26.3569 182.794 25.6666 182.78 24.956V24.6775H182.328C180.882 24.6775 178.622 24.8579 178.622 26.3953C178.532 27.2084 179.074 27.8411 180.249 27.8411" fill="black"/>
<path d="M204.654 22.7794H205.016V22.599C205.016 21.1531 204.113 20.6106 202.846 20.6106C201.74 20.674 200.674 21.0503 199.773 21.6956L198.688 19.7073C199.959 18.8183 201.475 18.3447 203.027 18.3516C205.92 18.3516 207.637 19.9792 207.637 22.7807V29.7406H205.106V28.0241C204.717 28.7401 204.108 29.3123 203.369 29.6567C202.63 30.0012 201.801 30.0998 201.002 29.9381C200.203 29.7763 199.477 29.3628 198.93 28.7581C198.384 28.1534 198.045 27.3894 197.965 26.5783C198.055 23.0487 202.846 22.7872 204.654 22.7872V22.7794ZM202.484 27.849C203.19 27.7681 203.841 27.4268 204.309 26.8919C204.777 26.3569 205.029 25.6666 205.015 24.956V24.6775H204.563C203.117 24.6775 200.857 24.8579 200.857 26.3953C200.854 26.6018 200.895 26.8066 200.979 26.9956C201.062 27.1847 201.185 27.3535 201.339 27.4907C201.494 27.6279 201.676 27.7302 201.874 27.7907C202.071 27.8512 202.279 27.8684 202.484 27.8411" fill="black"/>
<path d="M210.079 21.0617H208.633V18.8916H210.17V15.728H212.881V18.8916H215.412V21.0617H212.881V25.4018C212.864 25.6873 212.909 25.9731 213.013 26.2395C213.117 26.5058 213.278 26.7463 213.485 26.9441C213.691 27.1419 213.938 27.2924 214.209 27.385C214.48 27.4776 214.767 27.5102 215.052 27.4804H215.594V29.9211C215.327 29.9808 215.054 30.0111 214.781 30.0113C213.244 30.0113 210.17 29.5589 210.17 25.8528V21.0617H210.079Z" fill="black"/>
<path d="M78.3722 34.2598H86.4171V35.5252H79.818V41.3099H85.4223V42.6655H79.818V49.445H78.3722V34.2598Z" fill="black"/>
<path d="M92.8358 38.327C93.5913 38.3145 94.3417 38.4525 95.0433 38.7332C95.7449 39.0138 96.3835 39.4313 96.922 39.9614C97.4605 40.4915 97.888 41.1235 98.1796 41.8206C98.4712 42.5176 98.6211 43.2658 98.6205 44.0214C98.6205 45.5558 98.011 47.0273 96.926 48.1123C95.841 49.1972 94.3695 49.8067 92.8352 49.8067C91.3008 49.8067 89.8293 49.1972 88.7443 48.1123C87.6594 47.0273 87.0498 45.5558 87.0498 44.0214C87.0492 43.2658 87.1991 42.5176 87.4907 41.8206C87.7823 41.1235 88.2098 40.4915 88.7483 39.9614C89.2868 39.4313 89.9254 39.0138 90.627 38.7332C91.3286 38.4525 92.079 38.3145 92.8345 38.327H92.8358ZM92.8345 48.4517C93.9745 48.4176 95.0564 47.9408 95.8507 47.1224C96.645 46.304 97.0892 45.2083 97.0892 44.0678C97.0892 42.9273 96.645 41.8317 95.8507 41.0133C95.0564 40.1948 93.9745 39.718 92.8345 39.6839C92.2673 39.6782 91.7048 39.7871 91.1808 40.0043C90.6568 40.2215 90.1821 40.5423 89.7853 40.9476C89.3884 41.3529 89.0776 41.8342 88.8715 42.3627C88.6654 42.8911 88.5682 43.4558 88.5859 44.0227C88.5627 45.1732 88.9972 46.2859 89.7938 47.1163C90.5904 47.9467 91.684 48.427 92.8345 48.4517Z" fill="black"/>
<path d="M100.43 38.5986H101.876V45.1977C101.876 46.9155 102.146 48.4515 104.229 48.4515C104.796 48.4331 105.354 48.3002 105.869 48.0609C106.384 47.8215 106.845 47.4805 107.225 47.0585C107.605 46.6364 107.896 46.1419 108.08 45.6047C108.264 45.0675 108.338 44.4987 108.297 43.9323V38.6888H109.743V49.6268H108.297V47.0959C107.924 47.9081 107.325 48.5956 106.571 49.0764C105.818 49.5572 104.942 49.8109 104.048 49.8072C101.517 49.8072 100.432 48.4515 100.432 45.5585L100.43 38.5986Z" fill="black"/>
<path d="M111.818 38.5988H113.264V41.1297C113.64 40.3004 114.252 39.6005 115.024 39.1181C115.796 38.6357 116.693 38.3923 117.603 38.4184C120.314 38.4184 121.219 39.9558 121.219 42.667V49.6269H119.773V42.9376C119.773 41.2199 119.502 39.6838 117.42 39.6838C116.512 39.6905 115.631 39.9947 114.913 40.5498C114.194 41.1049 113.678 41.8804 113.442 42.7572C113.338 43.2326 113.277 43.7166 113.262 44.2031V49.4465H111.818V38.5988Z" fill="black"/>
<path d="M128.091 38.328C128.816 38.3036 129.533 38.4861 130.158 38.8541C130.783 39.2222 131.29 39.7607 131.62 40.4065V34.2598H133.066V49.5365H131.62V47.5482C131.267 48.2386 130.72 48.8113 130.047 49.1966C129.374 49.5819 128.604 49.7631 127.829 49.7182C124.936 49.7182 123.038 47.3651 123.038 44.0238C123.218 40.5883 125.208 38.3293 128.1 38.3293L128.091 38.328ZM128.19 48.4541C129.998 48.4541 131.72 47.1887 131.72 44.0251C131.72 41.855 130.635 39.596 128.284 39.596C126.386 39.596 124.755 41.2236 124.755 44.0251C124.664 46.7363 126.11 48.4541 128.19 48.4541Z" fill="black"/>
<path d="M141.559 42.7572H142.191V42.4866C142.247 42.1137 142.216 41.7331 142.101 41.3741C141.985 41.0152 141.789 40.6876 141.527 40.4167C141.265 40.1457 140.944 39.9387 140.589 39.8116C140.234 39.6845 139.855 39.6408 139.48 39.6838C138.365 39.7019 137.286 40.0828 136.407 40.7688L135.684 39.6838C136.802 38.8364 138.173 38.3906 139.576 38.4183C140.133 38.3575 140.696 38.424 141.224 38.6129C141.751 38.8017 142.229 39.108 142.621 39.5085C143.013 39.909 143.308 40.3933 143.485 40.9249C143.663 41.4564 143.717 42.0212 143.644 42.5768V49.5367H142.19V47.4581C141.885 48.1618 141.379 48.7601 140.736 49.1785C140.093 49.5969 139.341 49.8169 138.574 49.8112C138.115 49.8532 137.651 49.8013 137.213 49.6585C136.774 49.5157 136.369 49.2851 136.022 48.9806C135.675 48.6762 135.394 48.3043 135.196 47.8877C134.997 47.4711 134.886 47.0185 134.868 46.5574C134.868 42.8513 139.659 42.7663 141.557 42.7663L141.559 42.7572ZM138.846 48.4608C140.925 48.4608 142.19 46.2907 142.19 44.3926V43.9403H141.557C139.84 43.9403 136.406 44.0305 136.406 46.3809C136.414 46.6831 136.485 46.9803 136.616 47.253C136.746 47.5257 136.933 47.768 137.163 47.964C137.393 48.16 137.662 48.3054 137.952 48.3908C138.242 48.4762 138.547 48.4996 138.846 48.4595" fill="black"/>
<path d="M146.258 39.9544H144.812V38.689H146.258V35.5254H147.704V38.689H150.415V39.9544H147.704V45.3783C147.704 47.9092 149.332 48.2713 150.145 48.2713H150.687V49.6269H150.055C148.789 49.6269 146.264 49.1746 146.264 45.5587V39.9544H146.258Z" fill="black"/>
<path d="M152.045 34.2598H153.582V36.0677H152.045V34.2598ZM152.045 38.5986H153.491V49.5365H152.045V38.5986Z" fill="black"/>
<path d="M161.175 38.327C161.93 38.3145 162.681 38.4525 163.382 38.7332C164.084 39.0138 164.722 39.4313 165.261 39.9614C165.799 40.4915 166.227 41.1235 166.518 41.8206C166.81 42.5176 166.96 43.2658 166.959 44.0214C166.959 45.5558 166.35 47.0273 165.265 48.1123C164.18 49.1972 162.708 49.8067 161.174 49.8067C159.64 49.8067 158.168 49.1972 157.083 48.1123C155.998 47.0273 155.389 45.5558 155.389 44.0214C155.388 43.2658 155.538 42.5176 155.829 41.8206C156.121 41.1235 156.549 40.4915 157.087 39.9614C157.626 39.4313 158.264 39.0138 158.966 38.7332C159.667 38.4525 160.418 38.3145 161.173 38.327H161.175ZM161.173 48.4517C162.313 48.4176 163.395 47.9408 164.189 47.1224C164.984 46.304 165.428 45.2083 165.428 44.0678C165.428 42.9273 164.984 41.8317 164.189 41.0133C163.395 40.1948 162.313 39.718 161.173 39.6839C160.606 39.6783 160.044 39.7875 159.52 40.0047C158.996 40.2219 158.521 40.5428 158.125 40.948C157.728 41.3533 157.417 41.8345 157.211 42.3629C157.004 42.8912 156.907 43.4558 156.925 44.0227C156.902 45.1732 157.336 46.2859 158.133 47.1163C158.929 47.9467 160.023 48.427 161.173 48.4517Z" fill="black"/>
<path d="M168.858 38.5988H170.304V41.1297C170.68 40.3002 171.292 39.6002 172.064 39.1178C172.837 38.6354 173.734 38.3921 174.644 38.4184C177.356 38.4184 178.26 39.9558 178.26 42.6671V49.627H176.814V42.9377C176.814 41.2199 176.544 39.6839 174.461 39.6839C173.553 39.6905 172.673 39.9947 171.954 40.5498C171.236 41.105 170.719 41.8804 170.483 42.7573C170.379 43.2326 170.318 43.7166 170.303 44.2031V49.4466H168.858V38.5988Z" fill="black"/>
<path d="M187.299 14.2822H190.102V22.3272L194.17 18.6211H198.056L192.542 23.5887L198.056 29.7328H194.44L190.102 24.8515V29.7328H187.299V14.2822Z" fill="black"/>
</g>
<defs>
<clipPath id="clip0_275_554">
<rect width="215.592" height="64" fill="white"/>
</clipPath>
</defs>
</svg>
