<svg width="447" height="102" viewBox="0 0 447 102" fill="none" xmlns="http://www.w3.org/2000/svg">
<path opacity="0.4" d="M30.8125 34.8125L31.6368 35.3787L31.639 35.3754L30.8125 34.8125ZM57.6875 79.375L57.4031 78.4163L57.6875 79.375ZM69.125 75.3125H70.125V73.8175L68.7432 74.3882L69.125 75.3125ZM69.125 96.1875L69.5297 97.1019L70.125 96.8385V96.1875H69.125ZM11.5 89.25L10.7628 89.9257L10.7648 89.9278L11.5 89.25ZM5.8125 29.625L4.91806 29.1778L4.916 29.182L5.8125 29.625ZM21.1875 13.125L21.686 13.9919L21.6877 13.9909L21.1875 13.125ZM73.125 13.75L74.0569 14.1126L74.3937 13.2471L73.5554 12.8474L73.125 13.75ZM65.5625 33.1875L65.1378 34.0928L66.1065 34.5473L66.4944 33.5501L65.5625 33.1875ZM44.5625 26.5625C38.3585 26.5625 33.4649 29.1413 29.986 34.2496L31.639 35.3754C34.7434 30.8171 39.0165 28.5625 44.5625 28.5625V26.5625ZM29.9883 34.2463C26.5409 39.2645 24.875 46.1146 24.875 54.6875H26.875C26.875 46.3437 28.5008 39.9438 31.6367 35.3787L29.9883 34.2463ZM24.875 54.6875C24.875 63.5776 26.5606 70.4281 30.0947 75.0742C33.6681 79.7719 39.0113 82.0625 45.9375 82.0625V80.0625C39.4887 80.0625 34.8006 77.9573 31.6865 73.8633C28.5331 69.7177 26.875 63.3808 26.875 54.6875H24.875ZM45.9375 82.0625C50.0733 82.0625 54.0859 81.4867 57.9719 80.3337L57.4031 78.4163C53.7057 79.5133 49.885 80.0625 45.9375 80.0625V82.0625ZM57.9719 80.3337C61.7982 79.1984 65.6431 77.8326 69.5068 76.2368L68.7432 74.3882C64.9402 75.9591 61.1602 77.3016 57.4031 78.4163L57.9719 80.3337ZM68.125 75.3125V96.1875H70.125V75.3125H68.125ZM68.7203 95.2731C61.2409 98.5836 52.757 100.25 43.25 100.25V102.25C52.993 102.25 61.7591 100.541 69.5297 97.1019L68.7203 95.2731ZM43.25 100.25C29.6581 100.25 19.373 96.3148 12.2352 88.5722L10.7648 89.9278C18.377 98.1852 29.2586 102.25 43.25 102.25V100.25ZM12.2372 88.5743C5.12953 80.8205 1.5 69.5361 1.5 54.5625H-0.5C-0.5 69.8389 3.2038 81.6795 10.7628 89.9257L12.2372 88.5743ZM1.5 54.5625C1.5 45.2299 3.24681 37.0739 6.709 30.068L4.916 29.182C1.29486 36.5094 -0.5 44.9785 -0.5 54.5625H1.5ZM6.70693 30.0722C10.2063 23.0735 15.1971 17.723 21.686 13.9919L20.689 12.2581C13.8446 16.1936 8.5854 21.8431 4.91807 29.1778L6.70693 30.0722ZM21.6877 13.9909C28.2202 10.2175 35.9168 8.3125 44.8125 8.3125V6.3125C35.6249 6.3125 27.5715 8.28252 20.6873 12.2591L21.6877 13.9909ZM44.8125 8.3125C54.5371 8.3125 63.8277 10.4244 72.6946 14.6526L73.5554 12.8474C64.4223 8.49224 54.8379 6.3125 44.8125 6.3125V8.3125ZM72.1931 13.3874L64.6306 32.8249L66.4944 33.5501L74.0569 14.1126L72.1931 13.3874ZM65.9872 32.2822C62.5755 30.6816 59.1608 29.3324 55.7431 28.2354L55.1319 30.1396C58.4642 31.2093 61.7995 32.5267 65.1378 34.0928L65.9872 32.2822ZM55.7431 28.2354C52.2606 27.1175 48.5316 26.5625 44.5625 26.5625V28.5625C48.3434 28.5625 51.8644 29.0908 55.1319 30.1396L55.7431 28.2354ZM110 100V101H111V100H110ZM85.5625 100H84.5625V101H85.5625V100ZM85.5625 2.75V1.75H84.5625V2.75H85.5625ZM110 2.75H111V1.75H110V2.75ZM110 99H85.5625V101H110V99ZM86.5625 100V2.75H84.5625V100H86.5625ZM85.5625 3.75H110V1.75H85.5625V3.75ZM109 2.75V100H111V2.75H109ZM151.5 100V101H152.5V100H151.5ZM127.062 100H126.062V101H127.062V100ZM127.062 29.1875V28.1875H126.062V29.1875H127.062ZM151.5 29.1875H152.5V28.1875H151.5V29.1875ZM149.312 3.4375L148.652 4.18821L149.312 3.4375ZM151.5 99H127.062V101H151.5V99ZM128.062 100V29.1875H126.062V100H128.062ZM127.062 30.1875H151.5V28.1875H127.062V30.1875ZM150.5 29.1875V100H152.5V29.1875H150.5ZM127.438 11.5625C127.438 8.0779 128.403 5.6683 130.16 4.12663L128.84 2.62337C126.514 4.66503 125.438 7.71377 125.438 11.5625H127.438ZM130.16 4.12663C131.931 2.57254 134.925 1.6875 139.375 1.6875V-0.3125C134.742 -0.3125 131.153 0.594131 128.84 2.62337L130.16 4.12663ZM139.375 1.6875C143.818 1.6875 146.836 2.59067 148.652 4.18821L149.973 2.68679C147.622 0.617664 144.015 -0.3125 139.375 -0.3125V1.6875ZM148.652 4.18821C150.46 5.77977 151.438 8.17727 151.438 11.5625H153.438C153.438 7.78106 152.331 4.7619 149.973 2.68679L148.652 4.18821ZM151.438 11.5625C151.438 14.9348 150.422 17.3007 148.536 18.8529C146.613 20.4357 143.617 21.3125 139.375 21.3125V23.3125C143.841 23.3125 147.377 22.3976 149.807 20.3971C152.275 18.366 153.438 15.3569 153.438 11.5625H151.438ZM139.375 21.3125C135.176 21.3125 132.213 20.4365 130.311 18.8559C128.444 17.3047 127.438 14.9379 127.438 11.5625H125.438C125.438 15.3537 126.587 18.3619 129.033 20.3941C131.443 22.3969 134.949 23.3125 139.375 23.3125V21.3125ZM175.25 91.875L174.554 92.5935L174.559 92.598L175.25 91.875ZM174.562 37.5625L175.288 38.2504L175.291 38.248L174.562 37.5625ZM225.125 36.3125L224.431 37.0325L224.436 37.0375L225.125 36.3125ZM233.875 71.1875V72.1875H234.875V71.1875H233.875ZM190.188 71.1875V70.1875H189.145L189.188 71.2296L190.188 71.1875ZM194.5 80.5L193.861 81.2692L193.867 81.274L194.5 80.5ZM217.5 82.6875L217.716 83.664L217.724 83.6621L217.5 82.6875ZM229.25 78.5H230.25V76.9317L228.828 77.5934L229.25 78.5ZM229.25 96.0625L229.705 96.953L230.25 96.6746V96.0625H229.25ZM194.062 47.3125L194.745 48.043L194.746 48.0425L194.062 47.3125ZM190.688 55.8125L189.691 55.7268L189.598 56.8125H190.688V55.8125ZM211.688 55.8125V56.8125H212.712L212.687 55.7881L211.688 55.8125ZM208.75 47.625L208.006 48.2932L208.013 48.3014L208.75 47.625ZM202.75 100.25C191.135 100.25 182.245 97.1753 175.941 91.152L174.559 92.598C181.338 99.0747 190.782 102.25 202.75 102.25V100.25ZM175.945 91.1565C169.691 85.1024 166.5 76.455 166.5 65.0625H164.5C164.5 76.8367 167.809 86.0643 174.555 92.5935L175.945 91.1565ZM166.5 65.0625C166.5 53.266 169.478 44.381 175.288 38.2504L173.837 36.8746C167.563 43.494 164.5 52.9423 164.5 65.0625H166.5ZM175.291 38.248C181.095 32.0833 189.425 28.9375 200.438 28.9375V26.9375C189.033 26.9375 180.113 30.2083 173.834 36.877L175.291 38.248ZM200.438 28.9375C210.932 28.9375 218.88 31.6812 224.431 37.0324L225.819 35.5926C219.787 29.7772 211.276 26.9375 200.438 26.9375V28.9375ZM224.436 37.0375C230.016 42.3382 232.875 50.0419 232.875 60.3125H234.875C234.875 49.6664 231.901 41.3702 225.814 35.5875L224.436 37.0375ZM232.875 60.3125V71.1875H234.875V60.3125H232.875ZM233.875 70.1875H190.188V72.1875H233.875V70.1875ZM189.188 71.2296C189.365 75.4311 190.907 78.8149 193.861 81.2692L195.139 79.7308C192.677 77.6851 191.343 74.8606 191.187 71.1454L189.188 71.2296ZM193.867 81.274C196.846 83.7117 200.824 84.875 205.688 84.875V82.875C201.135 82.875 197.654 81.7883 195.133 79.726L193.867 81.274ZM205.688 84.875C210.04 84.875 214.051 84.4736 217.716 83.664L217.284 81.711C213.783 82.4847 209.919 82.875 205.688 82.875V84.875ZM217.724 83.6621C221.432 82.8098 225.415 81.3876 229.672 79.4066L228.828 77.5934C224.668 79.5291 220.818 80.8985 217.276 81.7129L217.724 83.6621ZM228.25 78.5V96.0625H230.25V78.5H228.25ZM228.795 95.172C225.045 97.0878 221.179 98.4096 217.194 99.1414L217.556 101.109C221.738 100.34 225.788 98.9539 229.705 96.953L228.795 95.172ZM217.194 99.1414C213.188 99.8774 208.376 100.25 202.75 100.25V102.25C208.457 102.25 213.396 101.873 217.556 101.109L217.194 99.1414ZM201.312 43.5625C198.204 43.5625 195.537 44.5625 193.379 46.5825L194.746 48.0425C196.505 46.3958 198.671 45.5625 201.312 45.5625V43.5625ZM193.38 46.582C191.212 48.608 190.036 51.7217 189.691 55.7268L191.684 55.8982C192.006 52.1533 193.079 49.6003 194.745 48.043L193.38 46.582ZM190.688 56.8125H211.688V54.8125H190.688V56.8125ZM212.687 55.7881C212.599 52.1881 211.561 49.2075 209.487 46.9486L208.013 48.3014C209.689 50.1258 210.609 52.6036 210.688 55.8369L212.687 55.7881ZM209.494 46.9569C207.444 44.6736 204.678 43.5625 201.312 43.5625V45.5625C204.197 45.5625 206.39 46.4931 208.006 48.2931L209.494 46.9569ZM292.375 100H291.375V101H292.375V100ZM290.312 50.75L289.437 51.2331L289.442 51.2421L289.447 51.251L290.312 50.75ZM272.125 100V101H273.125V100H272.125ZM247.688 100H246.688V101H247.688V100ZM247.688 29.1875V28.1875H246.688V29.1875H247.688ZM266.125 29.1875L267.069 28.8571L266.834 28.1875H266.125V29.1875ZM269.188 37.9375L268.244 38.2679L268.478 38.9375H269.188V37.9375ZM270.625 37.9375V38.9375H271.179L271.473 38.4675L270.625 37.9375ZM279.25 30.4375L278.84 29.5254L278.836 29.5271L279.25 30.4375ZM310.25 34.75L309.526 35.4403L309.53 35.4438L310.25 34.75ZM316.812 100V101H317.812V100H316.812ZM293.375 100V61.375H291.375V100H293.375ZM293.375 61.375C293.375 56.601 292.684 52.8495 291.178 50.249L289.447 51.251C290.691 53.4005 291.375 56.7323 291.375 61.375H293.375ZM291.188 50.2669C289.661 47.4987 287.138 46.125 283.812 46.125V48.125C286.487 48.125 288.298 49.1679 289.437 51.2331L291.188 50.2669ZM283.812 46.125C279.367 46.125 276.031 47.9322 274.001 51.5759L275.749 52.5491C277.386 49.6095 280.008 48.125 283.812 48.125V46.125ZM274.001 51.5759C272.034 55.1082 271.125 60.9808 271.125 69H273.125C273.125 61.0192 274.049 55.6001 275.749 52.5491L274.001 51.5759ZM271.125 69V100H273.125V69H271.125ZM272.125 99H247.688V101H272.125V99ZM248.688 100V29.1875H246.688V100H248.688ZM247.688 30.1875H266.125V28.1875H247.688V30.1875ZM265.181 29.5179L268.244 38.2679L270.131 37.6071L267.069 28.8571L265.181 29.5179ZM269.188 38.9375H270.625V36.9375H269.188V38.9375ZM271.473 38.4675C273.449 35.3052 276.171 32.9353 279.664 31.3479L278.836 29.5271C274.995 31.273 271.967 33.9031 269.777 37.4075L271.473 38.4675ZM279.66 31.3496C283.218 29.7503 287.325 28.9375 292 28.9375V26.9375C287.092 26.9375 282.698 27.7914 278.84 29.5254L279.66 31.3496ZM292 28.9375C299.632 28.9375 305.426 31.1432 309.526 35.4403L310.974 34.0597C306.407 29.2735 300.035 26.9375 292 26.9375V28.9375ZM309.53 35.4438C313.675 39.7471 315.812 45.8638 315.812 53.9375H317.812C317.812 45.5112 315.575 38.8362 310.97 34.0562L309.53 35.4438ZM315.812 53.9375V100H317.812V53.9375H315.812ZM316.812 99H292.375V101H316.812V99ZM379.938 79.5H380.938V78.0845L379.603 78.5575L379.938 79.5ZM379.938 97.3125L380.333 98.231L380.938 97.9708V97.3125H379.938ZM370.5 100.312L370.309 99.3309L370.301 99.3324L370.293 99.3341L370.5 100.312ZM342.312 95.25L341.568 95.9177L341.572 95.9215L342.312 95.25ZM336.875 47.5H337.875V46.5H336.875V47.5ZM328.312 47.5H327.312V48.5H328.312V47.5ZM328.312 37.5625L327.735 36.7459L327.312 37.0448V37.5625H328.312ZM339.188 29.875L339.765 30.6916L339.997 30.5274L340.108 30.2656L339.188 29.875ZM345.5 15V14H344.838L344.579 14.6094L345.5 15ZM361.5 15H362.5V14H361.5V15ZM361.5 29.1875H360.5V30.1875H361.5V29.1875ZM378.875 29.1875H379.875V28.1875H378.875V29.1875ZM378.875 47.5V48.5H379.875V47.5H378.875ZM361.5 47.5V46.5H360.5V47.5H361.5ZM368.125 82.9375C371.571 82.9375 375.627 82.0891 380.272 80.4425L379.603 78.5575C375.081 80.1609 371.262 80.9375 368.125 80.9375V82.9375ZM378.938 79.5V97.3125H380.938V79.5H378.938ZM379.542 96.394C376.305 97.7871 373.228 98.7633 370.309 99.3309L370.691 101.294C373.772 100.695 376.986 99.6713 380.333 98.231L379.542 96.394ZM370.293 99.3341C367.421 99.941 364.014 100.25 360.062 100.25V102.25C364.111 102.25 367.663 101.934 370.707 101.291L370.293 99.3341ZM360.062 100.25C351.99 100.25 346.409 98.2809 343.053 94.5785L341.572 95.9215C345.466 100.219 351.719 102.25 360.062 102.25V100.25ZM343.057 94.5823C339.665 90.8007 337.875 84.9014 337.875 76.6875H335.875C335.875 85.1402 337.71 91.616 341.568 95.9177L343.057 94.5823ZM337.875 76.6875V47.5H335.875V76.6875H337.875ZM336.875 46.5H328.312V48.5H336.875V46.5ZM329.312 47.5V37.5625H327.312V47.5H329.312ZM328.89 38.3791L339.765 30.6916L338.61 29.0584L327.735 36.7459L328.89 38.3791ZM340.108 30.2656L346.421 15.3906L344.579 14.6094L338.267 29.4844L340.108 30.2656ZM345.5 16H361.5V14H345.5V16ZM360.5 15V29.1875H362.5V15H360.5ZM361.5 30.1875H378.875V28.1875H361.5V30.1875ZM377.875 29.1875V47.5H379.875V29.1875H377.875ZM378.875 46.5H361.5V48.5H378.875V46.5ZM360.5 47.5V75.0625H362.5V47.5H360.5ZM360.5 75.0625C360.5 77.4992 361.087 79.5121 362.436 80.9126C363.792 82.3201 365.753 82.9375 368.125 82.9375V80.9375C366.08 80.9375 364.728 80.4091 363.876 79.5249C363.018 78.6338 362.5 77.2091 362.5 75.0625H360.5ZM403.312 100.375L403.461 99.3861L403.451 99.3846L403.312 100.375ZM391.438 97.3125H390.438V98.008L391.09 98.25L391.438 97.3125ZM391.438 77.75L391.84 76.8345L390.438 76.2181V77.75H391.438ZM403.875 81.875L403.641 82.8472L403.643 82.8477L403.875 81.875ZM421.688 76.5625L421.122 77.3872L421.135 77.3964L421.149 77.4052L421.688 76.5625ZM408.812 70.8125L408.433 71.7377L408.443 71.7417L408.812 70.8125ZM395.188 61.75L394.39 62.3531L394.393 62.3578L395.188 61.75ZM398.938 33.4375L399.522 34.2485L398.938 33.4375ZM433.625 29.5L433.378 30.469L433.389 30.4718L433.625 29.5ZM446.438 33.9375L447.359 34.3252L447.74 33.421L446.843 33.0233L446.438 33.9375ZM439.812 49.6875L439.403 50.5999L440.337 51.019L440.734 50.0752L439.812 49.6875ZM429.5 46L429.224 46.9612L429.234 46.964L429.5 46ZM416.688 50.5L416.151 51.3437L416.165 51.3531L416.18 51.3619L416.688 50.5ZM428.812 55.6875L429.193 54.7628L429.186 54.7599L429.179 54.757L428.812 55.6875ZM439.875 61.6875L439.245 62.4645L439.252 62.4697L439.875 61.6875ZM445.25 68.625L444.329 69.0137L444.332 69.0225L444.336 69.0311L445.25 68.625ZM446 78.25C446 85.5806 443.519 90.9857 438.65 94.6375L439.85 96.2375C445.314 92.1393 448 86.086 448 78.25H446ZM438.65 94.6375C433.723 98.3324 426.553 100.25 417 100.25V102.25C426.781 102.25 434.443 100.293 439.85 96.2375L438.65 94.6375ZM417 100.25C411.784 100.25 407.274 99.9601 403.461 99.3861L403.164 101.364C407.101 101.957 411.716 102.25 417 102.25V100.25ZM403.451 99.3846C399.654 98.8539 395.766 97.8524 391.785 96.375L391.09 98.25C395.192 99.7726 399.221 100.813 403.174 101.365L403.451 99.3846ZM392.438 97.3125V77.75H390.438V97.3125H392.438ZM391.035 78.6655C394.887 80.3586 399.09 81.7516 403.641 82.8472L404.109 80.9028C399.66 79.8317 395.571 78.4747 391.84 76.8345L391.035 78.6655ZM403.643 82.8477C408.238 83.9438 412.36 84.5 416 84.5V82.5C412.557 82.5 408.595 81.9729 404.107 80.9023L403.643 82.8477ZM416 84.5C418.691 84.5 420.848 84.1977 422.369 83.5034C423.141 83.1506 423.792 82.6773 424.249 82.0505C424.715 81.4128 424.938 80.6738 424.938 79.875H422.938C422.938 80.2845 422.83 80.6029 422.634 80.8714C422.43 81.1508 422.088 81.4327 421.538 81.6841C420.412 82.1982 418.601 82.5 416 82.5V84.5ZM424.938 79.875C424.938 78.1514 423.881 76.777 422.226 75.7198L421.149 77.4052C422.494 78.2647 422.938 79.0986 422.938 79.875H424.938ZM422.253 75.7378C421.439 75.1795 419.922 74.4174 417.783 73.4619C415.619 72.4956 412.75 71.3023 409.182 69.8833L408.443 71.7417C412 73.156 414.839 74.3378 416.967 75.2881C419.12 76.2493 420.478 76.9455 421.122 77.3872L422.253 75.7378ZM409.192 69.8873C402.761 67.2488 398.408 64.3127 395.982 61.1422L394.393 62.3578C397.133 65.9373 401.864 69.0429 408.433 71.7377L409.192 69.8873ZM395.985 61.1469C393.559 57.9388 392.312 53.8513 392.312 48.8125H390.312C390.312 54.1903 391.649 58.7279 394.39 62.3531L395.985 61.1469ZM392.312 48.8125C392.312 42.5314 394.715 37.7164 399.522 34.2485L398.353 32.6265C392.993 36.492 390.312 41.9269 390.312 48.8125H392.312ZM399.522 34.2485C404.371 30.7511 411.322 28.9375 420.5 28.9375V26.9375C411.095 26.9375 403.67 28.7906 398.353 32.6265L399.522 34.2485ZM420.5 28.9375C425.092 28.9375 429.383 29.45 433.378 30.469L433.872 28.531C429.7 27.4667 425.241 26.9375 420.5 26.9375V28.9375ZM433.389 30.4718C437.449 31.456 441.663 32.9143 446.032 34.8517L446.843 33.0233C442.379 31.044 438.051 29.544 433.861 28.5282L433.389 30.4718ZM445.516 33.5498L438.891 49.2998L440.734 50.0752L447.359 34.3252L445.516 33.5498ZM440.222 48.7751C436.923 47.2949 433.437 46.0488 429.766 45.036L429.234 46.964C432.813 47.9512 436.202 49.1635 439.403 50.5999L440.222 48.7751ZM429.776 45.0389C426.111 43.9858 423.051 43.4375 420.625 43.4375V45.4375C422.783 45.4375 425.639 45.9309 429.224 46.9611L429.776 45.0389ZM420.625 43.4375C418.575 43.4375 416.892 43.6832 415.685 44.2737C415.068 44.5758 414.543 44.9844 414.173 45.5271C413.799 46.077 413.625 46.7061 413.625 47.375H415.625C415.625 47.0648 415.701 46.837 415.827 46.6526C415.957 46.4609 416.182 46.2575 416.565 46.07C417.358 45.6814 418.675 45.4375 420.625 45.4375V43.4375ZM413.625 47.375C413.625 49.0397 414.599 50.3564 416.151 51.3437L417.224 49.6563C416.026 48.8936 415.625 48.127 415.625 47.375H413.625ZM416.18 51.3619C417.681 52.2446 421.811 54.0054 428.446 56.618L429.179 54.757C422.481 52.1196 418.527 50.422 417.195 49.6381L416.18 51.3619ZM428.432 56.6122C433.355 58.6395 436.939 60.5957 439.245 62.4644L440.505 60.9106C437.977 58.8626 434.186 56.8188 429.193 54.7628L428.432 56.6122ZM439.252 62.4697C441.591 64.333 443.274 66.5141 444.329 69.0137L446.171 68.2363C444.976 65.4026 443.076 62.9586 440.498 60.9053L439.252 62.4697ZM444.336 69.0311C445.431 71.4944 446 74.5556 446 78.25H448C448 74.361 447.402 71.0056 446.164 68.2189L444.336 69.0311Z" fill="#00DB81"/>
</svg>
