<svg width="91" height="64" viewBox="0 0 91 64" fill="none" xmlns="http://www.w3.org/2000/svg">
<g clip-path="url(#clip0_275_525)">
<path d="M0.394158 27.0299C0.394158 25.8577 0.370705 24.7089 0.370705 23.5367C0.370705 20.4654 0.370705 17.3942 0.370705 14.3229C0.370705 12.166 2.1056 10.4546 4.23906 10.4546C6.04429 10.4546 7.87297 10.4546 9.6782 10.4312C10.0768 10.4312 10.2409 10.5484 10.3346 10.9235C11.46 15.5421 14.9532 18.6133 19.6656 19.2229C24.3076 19.809 29.231 16.7143 30.7783 12.2598C30.9424 11.7909 31.0831 11.322 31.2003 10.8297C31.2706 10.5484 31.341 10.4312 31.6458 10.4312C34.7873 10.4546 37.9055 10.4312 41.047 10.4312C41.0939 10.7594 40.9064 10.9938 40.8126 11.2517C39.5935 14.2292 38.3744 17.2066 37.0849 20.1372C36.0299 22.5754 34.1309 23.7946 31.5051 23.7946C27.8477 23.818 24.1904 23.7946 20.5565 23.818C20.322 23.818 20.0876 23.7242 19.8766 23.9118C19.7125 24.0524 19.5015 24.0056 19.3139 24.0056C14.4609 23.9821 9.60787 24.0056 4.75484 24.0056C3.48884 24.0056 2.38694 24.3572 1.51949 25.3653C1.23816 25.6936 1.02716 26.0687 0.863049 26.4672C0.745826 26.6782 0.745826 26.983 0.394158 27.0299Z" fill="#138C7F" stroke="black" stroke-width="0.183161"/>
<path d="M0.346989 54.2957C0.206321 54.0847 0.253205 53.8268 0.253205 53.6158C0.253205 49.2552 0.253205 44.8945 0.253205 40.5338C0.253205 37.9783 1.91778 36.3138 4.44979 36.3138C8.17747 36.3138 11.9286 36.3137 15.6563 36.2903C15.8673 36.2903 16.1252 36.431 16.2893 36.1496C16.5941 35.9386 16.9223 36.1028 17.2271 36.0793C19.7356 36.0793 22.2442 36.1027 24.7528 36.0559C25.8312 36.0324 26.769 35.6339 27.5661 34.9071C28.0585 34.4382 28.5508 33.9927 28.9259 33.4535C29.0431 33.2894 29.1369 33.1253 29.3948 33.1722C29.2073 34.0865 28.7618 34.9071 28.4101 35.7511C27.0269 39.1037 25.6202 42.4328 24.2136 45.7854C23.9557 46.3949 23.6509 47.0045 23.2992 47.5672C22.3849 49.0207 21.0251 49.7006 19.3371 49.7475C18.0711 49.7709 17.6022 49.7475 15.4453 49.7475C14.531 49.7475 14.2965 49.771 13.3118 49.7944C9.37315 49.8647 7.47414 49.5834 4.28567 50.0054C2.85556 50.1929 2.246 50.4508 1.68333 50.9432C1.00344 51.5762 0.581432 52.4905 0.534543 53.6158C0.557987 53.8268 0.581435 54.1082 0.346989 54.2957Z" fill="#138C7F" stroke="black" stroke-width="0.183161"/>
<path d="M52.3939 42.8311C52.3939 45.9024 52.3705 48.9736 52.4174 52.0449C52.4174 52.6075 52.2533 52.7951 51.7375 52.8654C50.7294 53.0061 49.7213 53.053 48.6897 53.0061C46.9548 52.9123 46.1342 52.0917 46.1108 50.3568C46.0873 48.6219 46.0639 46.8871 46.0873 45.1756C46.0873 44.6598 45.9232 44.5192 45.4309 44.5192C43.6022 44.5426 41.7501 44.5426 39.9214 44.5192C39.3588 44.5192 39.2415 44.7067 39.2415 45.2225C39.265 47.5435 39.2415 49.8411 39.265 52.1621C39.265 52.5372 39.1946 52.7717 38.7726 52.842C37.4129 53.053 36.0765 53.1936 34.7167 52.8889C33.7321 52.6779 33.1928 52.0683 33.0522 51.0602C32.9818 50.6382 32.9584 50.1927 32.9584 49.7707C32.9584 43.8158 32.9584 37.8375 32.9349 31.8825C32.9349 31.3433 33.0756 31.1323 33.6383 31.0854C34.7402 30.9682 35.8186 30.7806 36.9205 30.9448C38.5382 31.1792 39.2415 31.9763 39.265 33.6409C39.265 35.4227 39.2884 37.181 39.265 38.9628C39.265 39.4551 39.4056 39.5723 39.8745 39.5723C41.7501 39.5489 43.6257 39.5489 45.5247 39.5723C45.9701 39.5723 46.1108 39.4317 46.1108 38.9862C46.0873 36.6183 46.1342 34.227 46.1108 31.8591C46.1108 31.3433 46.228 31.1323 46.7672 31.0854C47.8926 30.9682 48.9945 30.7572 50.1198 30.9448C51.6672 31.2026 52.3236 31.8825 52.3705 33.4533C52.4174 35.6102 52.3939 37.7671 52.3939 39.9475C52.3939 40.8853 52.3939 41.8465 52.3939 42.8311Z" fill="#138C80" stroke="black" stroke-width="0.183161"/>
<path d="M29.4187 33.1724C28.7388 34.0399 28.0589 34.9073 27.1445 35.5169C26.4646 35.9623 25.7379 36.2671 24.9173 36.2671C22.3149 36.2905 19.736 36.2671 17.1337 36.2905C16.8524 36.2905 16.5945 36.1733 16.3131 36.1499C11.9759 34.5322 7.59176 33.0786 3.32485 31.2969C3.02007 31.1562 2.71529 30.9921 2.41051 30.828C0.910056 30.0074 0.136391 28.8117 0.394281 27.0768C0.816283 25.7874 1.54306 24.7324 2.85596 24.1697C3.37174 23.9587 3.88752 23.8649 4.42675 23.8649C9.32666 23.8415 14.2266 23.8649 19.1265 23.8649C19.3844 23.8649 19.6423 23.9352 19.8767 23.9821C22.2212 24.8496 24.5656 25.6936 26.9101 26.561C27.1211 26.6314 27.3086 26.7252 27.4962 26.819C30.4502 28.1084 31.1067 30.2184 29.4187 33.1724Z" fill="#114842" stroke="black" stroke-width="0.183161"/>
<path d="M29.2541 8.53195C29.301 13.174 25.503 17.0189 20.8141 17.0658C16.1486 17.1126 12.3506 13.3381 12.3037 8.6257C12.2568 3.93679 16.0314 0.11535 20.7203 0.0919055C25.3623 0.0684609 29.2072 3.84304 29.2541 8.53195Z" fill="#114842" stroke="black" stroke-width="0.183161"/>
<path d="M74.526 42.3857C74.526 39.7599 74.526 37.1107 74.526 34.4849C74.526 32.4452 75.6982 31.2261 77.7144 31.2026C81.5828 31.1792 85.4511 31.2026 89.3195 31.1792C89.6712 31.1792 89.8587 31.2964 89.9994 31.6247C90.4214 32.6797 90.5386 33.7581 90.2338 34.86C89.9759 35.7509 89.2257 36.2198 88.0535 36.2198C85.8262 36.2198 83.599 36.2432 81.3718 36.2198C80.8325 36.2198 80.645 36.3605 80.6684 36.8997C80.7153 37.814 80.7153 38.7049 80.6684 39.6192C80.645 40.1116 80.8091 40.2522 81.3015 40.2522C83.5052 40.2288 85.709 40.2522 87.9128 40.2288C88.4286 40.2288 88.7099 40.3929 88.874 40.8618C89.1319 41.5651 89.2492 42.2685 89.2023 43.0187C89.1085 44.4957 88.3583 45.1991 86.8812 45.2225C85.0995 45.2459 83.2942 45.2459 81.5124 45.2225C80.9732 45.2225 80.7622 45.3397 80.7857 45.9258C80.8325 47.989 80.8091 50.0755 80.8091 52.1387C80.8091 52.4903 80.8091 52.7482 80.3637 52.842C79.0742 53.053 77.7848 53.1702 76.4953 52.9357C75.2059 52.6779 74.6197 51.9745 74.5728 50.6382C74.5494 49.7239 74.5494 48.833 74.5494 47.9186C74.526 46.0431 74.526 44.2144 74.526 42.3857Z" fill="#138C7F" stroke="black" stroke-width="0.183161"/>
<path d="M66.4837 44.5426C66.4837 47.0981 66.4837 49.6535 66.4837 52.1856C66.4837 52.5372 66.4134 52.7482 66.0148 52.8186C64.8191 53.0296 63.6 53.1234 62.4043 52.9592C60.8805 52.7482 60.1771 51.9277 60.1771 50.3569C60.1537 48.3875 60.1771 46.4182 60.1771 44.4489C60.1771 41.8934 60.1537 39.3379 60.2006 36.8059C60.2006 36.3136 60.0599 36.1729 59.591 36.1964C58.1843 36.2198 56.7777 36.1964 55.371 36.2198C54.9255 36.2198 54.738 36.0791 54.5504 35.6806C54.1753 34.7662 54.0581 33.8519 54.1988 32.8907C54.3863 31.7184 55.1131 31.0854 56.2619 31.0854C61.3728 31.0854 66.4603 31.0854 71.5712 31.0854C71.8525 31.0854 72.0635 31.1558 72.1807 31.4371C72.6496 32.4921 72.7903 33.594 72.5324 34.7194C72.3448 35.5868 71.7587 36.0557 70.9147 36.1495C69.7191 36.3136 68.4999 36.2198 67.2808 36.1964C66.6478 36.1964 66.4134 36.3136 66.4368 37.0169C66.4837 39.5255 66.4603 42.0341 66.4837 44.5426C66.4603 44.5426 66.4603 44.5426 66.4837 44.5426Z" fill="#138C80"/>
<path d="M66.4837 44.5426C66.4837 47.0981 66.4837 49.6535 66.4837 52.1856C66.4837 52.5372 66.4134 52.7482 66.0148 52.8186C64.8191 53.0296 63.6 53.1234 62.4043 52.9592C60.8805 52.7482 60.1771 51.9277 60.1771 50.3569C60.1537 48.3875 60.1771 46.4182 60.1771 44.4489C60.1771 41.8934 60.1537 39.3379 60.2006 36.8059C60.2006 36.3136 60.0599 36.1729 59.591 36.1964C58.1843 36.2198 56.7777 36.1964 55.371 36.2198C54.9255 36.2198 54.738 36.0791 54.5504 35.6806C54.1753 34.7662 54.0581 33.8519 54.1988 32.8907C54.3863 31.7184 55.1131 31.0854 56.2619 31.0854C61.3728 31.0854 66.4603 31.0854 71.5712 31.0854C71.8525 31.0854 72.0635 31.1558 72.1807 31.4371C72.6496 32.4921 72.7903 33.594 72.5324 34.7194C72.3448 35.5868 71.7587 36.0557 70.9147 36.1495C69.7191 36.3136 68.4999 36.2198 67.2808 36.1964C66.6478 36.1964 66.4134 36.3136 66.4368 37.0169C66.4837 39.5255 66.4603 42.0341 66.4837 44.5426C66.4603 44.5426 66.4603 44.5426 66.4837 44.5426V44.5426Z" stroke="black" stroke-width="0.183161"/>
<path d="M0.253517 53.6394C0.253517 53.2877 0.253523 52.0451 1.16786 51.037C1.80086 50.3337 2.55109 50.0758 2.87931 49.9586C3.51232 49.7476 4.02809 49.7241 4.23909 49.7241C5.76299 49.7241 9.39691 49.7007 14.2734 49.7007C14.3437 49.7241 14.4609 49.771 14.5313 49.8648C14.6485 50.0055 14.6485 50.1696 14.6485 50.2165C14.6719 50.826 14.6485 59.2895 14.6485 61.7512C14.6485 62.0091 14.6719 62.267 14.6719 62.5249C14.4375 62.6655 14.2499 62.478 14.0624 62.4076C10.405 60.6258 6.74767 58.8441 3.09032 57.0623C2.94965 56.992 2.08219 56.6872 1.30852 55.9135C0.698964 55.3274 0.487971 54.835 0.394193 54.5303C0.253526 54.1786 0.253517 53.8738 0.253517 53.6394Z" fill="#114842" stroke="black" stroke-width="0.183161"/>
<path d="M33.92 56.3356C35.2798 55.5853 36.4755 56.1949 36.5927 57.6485C36.6865 58.7973 36.6162 59.9695 36.6396 61.1417C36.6396 61.5403 36.452 61.5871 36.1238 61.5871C35.7487 61.5871 35.6549 61.4699 35.6549 61.0948C35.6784 60.0633 35.6784 59.0317 35.6549 57.9767C35.6549 57.3202 35.3502 56.9686 34.8344 56.9686C34.2951 56.9686 33.9669 57.2968 33.9435 57.9298C33.92 58.9614 33.92 59.9929 33.9435 61.0479C33.9435 61.4934 33.7794 61.5871 33.3574 61.5871C32.9119 61.6106 32.9354 61.3762 32.9354 61.0714C32.9354 58.7973 32.9354 56.5231 32.9354 54.2725C32.9354 53.9208 32.9823 53.7098 33.4277 53.7332C33.8263 53.7332 33.9669 53.8739 33.9435 54.2725C33.8966 54.9289 33.92 55.5853 33.92 56.3356Z" fill="#1D887C" stroke="black" stroke-width="0.183161"/>
<path d="M56.9656 56.3121C58.6536 55.6087 59.6852 56.2886 59.6852 58.0938C59.6852 59.0785 59.6617 60.0866 59.6852 61.0713C59.6852 61.4699 59.568 61.5871 59.1694 61.5871C58.7709 61.5871 58.7005 61.423 58.7005 61.0948C58.724 60.0866 58.7005 59.0551 58.7005 58.047C58.7005 57.3671 58.3957 56.9685 57.8565 56.9685C57.3173 56.9685 56.9422 57.3671 56.9422 58.0001C56.9187 59.0316 56.9187 60.0632 56.9422 61.1182C56.9422 61.4933 56.825 61.5871 56.4733 61.5871C56.1216 61.5871 55.9809 61.4933 55.9809 61.1182C56.0044 58.7972 56.0044 56.4996 55.9809 54.1786C55.9809 53.78 56.1685 53.7332 56.4967 53.7332C56.8718 53.7097 56.9656 53.8738 56.9656 54.2255C56.9422 54.9288 56.9656 55.6087 56.9656 56.3121Z" fill="#1F867E" stroke="black" stroke-width="0.183161"/>
<path d="M71.5484 58.211C71.5484 57.6952 71.5484 57.1794 71.5484 56.6637C71.5484 56.312 71.5485 56.0541 72.0408 56.0541C72.58 56.0541 72.4862 56.3823 72.4862 56.7106C72.4862 57.6718 72.4862 58.6564 72.4862 59.6177C72.4862 60.321 72.791 60.6727 73.3302 60.6727C73.8695 60.6727 74.1742 60.2976 74.1742 59.5942C74.1742 58.6096 74.1977 57.6015 74.1742 56.6168C74.1508 56.1479 74.3618 56.0541 74.7604 56.0307C75.2058 56.0072 75.1823 56.2885 75.1823 56.5699C75.1589 57.7187 75.2761 58.8675 75.1355 59.9928C74.9948 61.0713 74.2446 61.7043 73.2599 61.6574C72.2518 61.6105 71.5719 60.8368 71.5719 59.7584C71.5485 59.2426 71.5484 58.7268 71.5484 58.211Z" fill="#1E897C" stroke="black" stroke-width="0.183161"/>
<path d="M82.7312 58.2581C82.7312 58.7973 82.7547 59.3365 82.7312 59.8757C82.7078 60.8839 81.9341 61.6575 80.9729 61.681C79.9882 61.7044 79.1442 60.9542 79.1207 59.9226C79.0973 58.7738 79.1207 57.6251 79.0973 56.4997C79.0973 56.0777 79.3083 56.0543 79.6131 56.0543C79.9413 56.0308 80.082 56.1715 80.0585 56.4997C80.0351 57.4375 80.0585 58.3987 80.0585 59.3599C80.0585 59.5006 80.0351 59.6178 80.0585 59.7585C80.1054 60.2743 80.3164 60.6963 80.926 60.6963C81.5355 60.6963 81.77 60.2977 81.77 59.7585C81.7934 58.7504 81.7934 57.7188 81.7934 56.7107C81.7934 56.3356 81.7934 56.0543 82.3092 56.0543C82.8484 56.0543 82.7312 56.4294 82.7312 56.7342C82.7312 57.2265 82.7312 57.7423 82.7312 58.2581Z" fill="#20887C" stroke="black" stroke-width="0.183161"/>
<path d="M54.0585 54.8817C54.0585 55.0458 54.0819 55.2334 54.0585 55.3975C53.9881 55.8898 54.1757 56.0774 54.668 56.0071C55.0666 55.9367 55.2542 56.0774 55.2542 56.5228C55.2542 57.0386 54.9728 57.0386 54.6446 56.9917C54.1757 56.9448 54.035 57.1324 54.0819 57.5778C54.1054 58.1874 54.1054 58.7969 54.0819 59.383C54.0585 60.016 54.2929 60.4615 54.9259 60.5553C55.4417 60.6491 55.3948 61.0007 55.3245 61.3055C55.2542 61.7744 54.879 61.5634 54.6446 61.5165C53.824 61.3524 53.1441 60.6725 53.1207 59.8285C53.0738 57.9295 53.0973 56.0305 53.0738 54.1315C53.0738 53.7329 53.3083 53.7564 53.5896 53.7329C53.8944 53.7329 54.0819 53.8033 54.0585 54.1549C54.0585 54.4128 54.0585 54.6473 54.0585 54.8817Z" fill="#21887F" stroke="black" stroke-width="0.183161"/>
<path d="M76.1897 56.9214C76.1897 56.0305 76.2132 55.1396 76.1897 54.2721C76.1897 53.8736 76.3304 53.7563 76.7055 53.7563C77.104 53.7563 77.1744 53.9439 77.1509 54.2721C77.1275 54.6707 77.1744 55.0458 77.1275 55.4444C77.0806 55.8898 77.2447 56.0774 77.6902 56.0305C78.0184 55.9836 78.3232 56.007 78.2997 56.5228C78.2997 56.9917 78.0887 57.0855 77.7136 57.0386C77.1978 56.9683 77.1041 57.2027 77.1275 57.6716C77.1509 58.2577 77.1509 58.8438 77.1275 59.43C77.0806 60.1098 77.3854 60.5318 78.0184 60.6491C78.5342 60.7428 78.3935 61.0945 78.3935 61.3758C78.3701 61.8213 77.995 61.6337 77.784 61.6103C76.8462 61.4696 76.1897 60.6725 76.1663 59.641C76.1428 59.1955 76.1663 58.7266 76.1663 58.2812C76.1897 57.7888 76.1897 57.3434 76.1897 56.9214Z" fill="#1F8981" stroke="black" stroke-width="0.183161"/>
<path d="M68.7113 58.2345C68.7113 57.3905 68.7113 56.5464 68.7113 55.7024C68.7113 54.624 69.3912 53.8738 70.4463 53.7097C70.6338 53.6862 70.8917 53.569 70.9151 53.8738C70.9386 54.1316 71.1027 54.5068 70.7041 54.6474C70.3056 54.7881 69.8836 54.8584 69.7429 55.3273C69.5788 55.89 69.6491 56.4761 69.696 57.0622C69.7195 57.3436 70.0008 57.2263 70.1649 57.2498C70.4932 57.2732 70.8448 57.156 70.8214 57.7421C70.7979 58.3282 70.4462 58.2344 70.1415 58.211C69.7663 58.1876 69.6491 58.3048 69.6726 58.6799C69.696 59.477 69.6491 60.2741 69.6726 61.0713C69.696 61.4698 69.5554 61.6105 69.1802 61.6105C68.7817 61.6105 68.7348 61.4229 68.7348 61.0947C68.7113 60.1335 68.7113 59.1957 68.7113 58.2345Z" fill="#1D887D" stroke="black" stroke-width="0.183161"/>
<path d="M42.4771 57.0152C42.4771 56.1008 42.4771 55.2099 42.4771 54.2956C42.4771 53.9674 42.4771 53.7095 42.946 53.7329C43.368 53.7329 43.4384 53.897 43.4384 54.2722C43.4149 55.9836 43.4618 57.6951 43.4149 59.3831C43.3915 60.0161 43.6259 60.4615 44.2355 60.5788C44.7747 60.6725 44.5872 61.0476 44.5637 61.329C44.5403 61.7041 44.212 61.5634 44.001 61.54C43.1336 61.4228 42.5006 60.696 42.4771 59.8051C42.4771 58.8907 42.4771 57.9529 42.4771 57.0152Z" fill="#1D8A7E" stroke="black" stroke-width="0.183161"/>
<path d="M83.7857 58.7734C83.7857 58.0701 83.7857 57.3433 83.7857 56.64C83.7857 56.0539 84.0905 55.8429 84.5594 56.1711C84.7938 56.3352 84.8642 56.2414 85.0283 56.1242C85.3799 55.9132 85.7551 55.9367 86.1302 56.0773C86.435 56.1945 86.5287 56.3352 86.3881 56.6634C86.2709 56.8979 86.2708 57.1558 85.8488 57.0385C85.0517 56.851 84.7235 57.1558 84.7235 57.9763C84.7001 59.0079 84.7001 60.0395 84.7235 61.071C84.7235 61.4696 84.6297 61.5868 84.2312 61.5868C83.8326 61.5868 83.7857 61.4227 83.7857 61.0945C83.7857 60.3208 83.7857 59.5471 83.7857 58.7734Z" fill="#21877C" stroke="black" stroke-width="0.183161"/>
<path d="M45.15 59.9461C45.15 58.7973 45.15 57.672 45.15 56.5232C45.15 56.3357 45.0328 56.0543 45.361 56.0075C45.572 55.984 45.8534 55.8902 45.9471 56.2184C46.0175 56.406 46.0878 56.3826 46.2519 56.2653C47.3069 55.4917 48.737 56.1247 48.8308 57.4376C48.9012 58.305 48.9012 59.1725 48.8308 60.0165C48.737 61.1653 47.6351 61.892 46.5333 61.5404C46.0175 61.3763 46.0644 61.5873 46.0644 61.9155C46.0878 62.4547 46.0644 62.9939 46.0878 63.5332C46.1112 63.9317 45.8534 63.9083 45.572 63.9083C45.2907 63.9083 45.0797 63.9083 45.0797 63.5097C45.15 62.314 45.15 61.1184 45.15 59.9461ZM47.8696 58.7739C47.8696 58.4926 47.8696 58.2112 47.8696 57.9299C47.8696 57.2031 47.6117 56.8983 47.0256 56.8983C46.4864 56.8983 46.1113 57.2735 46.1113 57.9065C46.0878 58.5395 46.1113 59.1959 46.1347 59.8289C46.1581 60.3916 46.4864 60.6495 47.0021 60.626C47.5179 60.6026 47.8462 60.3447 47.8696 59.782C47.8696 59.4538 47.8696 59.1021 47.8696 58.7739Z" fill="#1D897C" stroke="black" stroke-width="0.183161"/>
<path d="M60.7164 58.8203C60.7398 58.3749 60.7633 57.9997 60.7867 57.6012C60.904 56.6165 61.6776 55.9366 62.6857 55.9601C63.6235 55.9835 64.3972 56.7337 64.4441 57.695C64.491 58.6093 63.9283 59.2658 62.9671 59.4299C62.803 59.4533 62.6154 59.4064 62.4513 59.4767C62.1934 59.5705 61.748 59.1954 61.7245 59.7815C61.7245 60.2504 62.1231 60.649 62.592 60.649C62.8733 60.649 63.1077 60.5552 63.2953 60.3677C63.7173 59.8988 63.9752 60.3677 64.1862 60.5787C64.4675 60.8365 64.1159 61.0475 63.9283 61.1648C63.3422 61.6102 62.7092 61.7978 61.9824 61.5399C61.2791 61.282 60.8571 60.7662 60.7867 59.9925C60.7633 59.594 60.7398 59.1954 60.7164 58.8203ZM63.4594 57.8356C63.4594 57.3198 63.1312 56.9682 62.6154 56.9682C62.0527 56.9682 61.748 57.3667 61.7245 58.0701C61.7245 58.4686 61.6776 58.8438 62.2169 58.7031C63.0843 58.7031 63.4594 58.4217 63.4594 57.8356Z" fill="#1D887D" stroke="black" stroke-width="0.183161"/>
<path d="M86.8574 58.7969C86.8809 58.4218 86.7871 57.9529 86.8809 57.4841C87.0684 56.4759 87.9124 55.8664 88.944 55.9836C89.8583 56.1008 90.5617 56.9448 90.5382 57.8826C90.4913 58.8204 89.7411 59.43 88.6861 59.4768C88.4048 59.4768 88.0062 59.2659 87.8421 59.6644C87.7483 59.9457 87.8421 60.274 88.1234 60.4615C88.4985 60.7194 88.8737 60.7429 89.2722 60.4615C89.4363 60.3443 89.5067 60.0864 89.8114 60.2271C90.421 60.4615 90.4913 60.7663 89.999 61.1883C89.3894 61.7041 88.7095 61.8213 87.9593 61.5165C87.256 61.2118 86.9043 60.6725 86.8809 59.8989C86.834 59.5472 86.8574 59.2424 86.8574 58.7969ZM88.3813 58.7032C89.1081 58.7032 89.5301 58.375 89.5301 57.8123C89.5301 57.3199 89.1784 56.9917 88.6626 56.9917C88.1 56.9917 87.8186 57.3434 87.8186 58.0233C87.7952 58.7032 87.7952 58.7032 88.3813 58.7032Z" fill="#1C887D" stroke="black" stroke-width="0.183161"/>
<path d="M37.718 58.8439C37.718 58.4453 37.6946 58.0702 37.718 57.6717C37.7884 56.5698 38.7965 55.7961 39.8984 55.9836C40.8831 56.1477 41.5864 57.1793 41.3754 58.2109C41.2347 58.8673 40.6486 59.3362 39.8046 59.4534C39.7108 59.4769 39.6405 59.4534 39.5467 59.4769C39.2654 59.5472 38.8434 59.2659 38.7027 59.641C38.5855 59.9458 38.773 60.274 39.0544 60.485C39.4295 60.7429 39.828 60.7429 40.1328 60.4381C40.4845 60.0864 40.7424 60.2037 41.0472 60.4616C41.2582 60.6491 41.2582 60.7898 41.0706 61.0008C40.6017 61.54 39.7108 61.7979 39.0075 61.5634C38.2573 61.329 37.7884 60.7194 37.7415 59.9458C37.718 59.5707 37.718 59.219 37.718 58.8439ZM40.4376 57.8358C40.461 57.3669 40.0859 56.9918 39.5702 56.9683C38.9606 56.9449 38.6793 57.3669 38.6558 58.1874C38.6324 58.7267 38.9137 58.7501 39.2185 58.7032C39.9453 58.7032 40.4142 58.3515 40.4376 57.8358Z" fill="#1D897F" stroke="black" stroke-width="0.183161"/>
</g>
<defs>
<clipPath id="clip0_275_525">
<rect width="89.6" height="64" fill="white" transform="translate(0.592285)"/>
</clipPath>
</defs>
</svg>
