<svg width="566" height="94" viewBox="0 0 566 94" fill="none" xmlns="http://www.w3.org/2000/svg">
<path opacity="0.4" d="M25.1875 92V93H26.1875V92H25.1875ZM0.875 92H-0.125V93H0.875V92ZM0.875 0.625V-0.375H-0.125V0.625H0.875ZM54.875 0.625H55.875V-0.375H54.875V0.625ZM54.875 20.4375V21.4375H55.875V20.4375H54.875ZM25.1875 20.4375V19.4375H24.1875V20.4375H25.1875ZM25.1875 37.875H24.1875V38.875H25.1875V37.875ZM52.5625 37.875H53.5625V36.875H52.5625V37.875ZM52.5625 57.6875V58.6875H53.5625V57.6875H52.5625ZM25.1875 57.6875V56.6875H24.1875V57.6875H25.1875ZM25.1875 91H0.875V93H25.1875V91ZM1.875 92V0.625H-0.125V92H1.875ZM0.875 1.625H54.875V-0.375H0.875V1.625ZM53.875 0.625V20.4375H55.875V0.625H53.875ZM54.875 19.4375H25.1875V21.4375H54.875V19.4375ZM24.1875 20.4375V37.875H26.1875V20.4375H24.1875ZM25.1875 38.875H52.5625V36.875H25.1875V38.875ZM51.5625 37.875V57.6875H53.5625V37.875H51.5625ZM52.5625 56.6875H25.1875V58.6875H52.5625V56.6875ZM24.1875 57.6875V92H26.1875V57.6875H24.1875ZM75.125 83.875L74.4295 84.5935L74.4342 84.598L75.125 83.875ZM74.4375 29.5625L75.1633 30.2504L75.1656 30.248L74.4375 29.5625ZM125 28.3125L124.306 29.0325L124.311 29.0375L125 28.3125ZM133.75 63.1875V64.1875H134.75V63.1875H133.75ZM90.0625 63.1875V62.1875H89.0195L89.0634 63.2296L90.0625 63.1875ZM94.375 72.5L93.736 73.2692L93.7418 73.274L94.375 72.5ZM117.375 74.6875L117.591 75.664L117.599 75.6621L117.375 74.6875ZM129.125 70.5H130.125V68.9317L128.703 69.5934L129.125 70.5ZM129.125 88.0625L129.58 88.953L130.125 88.6746V88.0625H129.125ZM93.9375 39.3125L94.6204 40.043L94.6209 40.0425L93.9375 39.3125ZM90.5625 47.8125L89.5662 47.7268L89.4728 48.8125H90.5625V47.8125ZM111.562 47.8125V48.8125H112.587L112.562 47.7881L111.562 47.8125ZM108.625 39.625L107.881 40.2932L107.888 40.3014L108.625 39.625ZM102.625 92.25C91.0099 92.25 82.1203 89.1753 75.8158 83.152L74.4342 84.598C81.2131 91.0747 90.6567 94.25 102.625 94.25V92.25ZM75.8205 83.1565C69.5659 77.1024 66.375 68.455 66.375 57.0625H64.375C64.375 68.8367 67.6841 78.0643 74.4295 84.5935L75.8205 83.1565ZM66.375 57.0625C66.375 45.266 69.3532 36.381 75.1633 30.2504L73.7117 28.8746C67.4384 35.494 64.375 44.9423 64.375 57.0625H66.375ZM75.1656 30.248C80.97 24.0833 89.3004 20.9375 100.312 20.9375V18.9375C88.9079 18.9375 79.9884 22.2083 73.7094 28.877L75.1656 30.248ZM100.312 20.9375C110.807 20.9375 118.755 23.6812 124.306 29.0324L125.694 27.5926C119.662 21.7772 111.151 18.9375 100.312 18.9375V20.9375ZM124.311 29.0375C129.891 34.3382 132.75 42.0419 132.75 52.3125H134.75C134.75 41.6664 131.776 33.3702 125.689 27.5875L124.311 29.0375ZM132.75 52.3125V63.1875H134.75V52.3125H132.75ZM133.75 62.1875H90.0625V64.1875H133.75V62.1875ZM89.0634 63.2296C89.2403 67.4311 90.7818 70.8149 93.736 73.2692L95.014 71.7308C92.5515 69.6851 91.218 66.8606 91.0616 63.1454L89.0634 63.2296ZM93.7418 73.274C96.7212 75.7117 100.699 76.875 105.562 76.875V74.875C101.01 74.875 97.5288 73.7883 95.0082 71.726L93.7418 73.274ZM105.562 76.875C109.915 76.875 113.926 76.4736 117.591 75.664L117.159 73.711C113.658 74.4847 109.793 74.875 105.562 74.875V76.875ZM117.599 75.6621C121.307 74.8098 125.29 73.3876 129.547 71.4066L128.703 69.5934C124.543 71.5291 120.693 72.8985 117.151 73.7129L117.599 75.6621ZM128.125 70.5V88.0625H130.125V70.5H128.125ZM128.67 87.172C124.92 89.0878 121.054 90.4096 117.069 91.1414L117.431 93.1086C121.613 92.3404 125.663 90.9539 129.58 88.953L128.67 87.172ZM117.069 91.1414C113.063 91.8774 108.251 92.25 102.625 92.25V94.25C108.332 94.25 113.271 93.8726 117.431 93.1086L117.069 91.1414ZM101.188 35.5625C98.0786 35.5625 95.4118 36.5625 93.2541 38.5825L94.6209 40.0425C96.3799 38.3958 98.5464 37.5625 101.188 37.5625V35.5625ZM93.2546 38.582C91.0872 40.608 89.9107 43.7217 89.5662 47.7268L91.5588 47.8982C91.881 44.1533 92.9544 41.6003 94.6204 40.043L93.2546 38.582ZM90.5625 48.8125H111.562V46.8125H90.5625V48.8125ZM112.562 47.7881C112.474 44.1881 111.436 41.2075 109.362 38.9486L107.888 40.3014C109.564 42.1258 110.484 44.6036 110.563 47.8369L112.562 47.7881ZM109.369 38.9569C107.319 36.6736 104.553 35.5625 101.188 35.5625V37.5625C104.072 37.5625 106.265 38.4931 107.881 40.2931L109.369 38.9569ZM193.75 92L192.856 92.4472L193.132 93H193.75V92ZM189.062 82.625L189.957 82.1778L189.681 81.625H189.062V82.625ZM188.562 82.625V81.625H188.084L187.784 81.9974L188.562 82.625ZM151.625 53.5625L152.198 54.3824L152.202 54.3793L151.625 53.5625ZM174.438 47.3125L174.406 46.313L174.399 46.3132L174.392 46.3136L174.438 47.3125ZM186.25 46.9375L186.282 47.937L187.25 47.9063V46.9375H186.25ZM157.938 42.4375L157.021 42.8387L157.423 43.7561L158.34 43.3529L157.938 42.4375ZM150.875 26.3125L150.417 25.4235L149.582 25.8536L149.959 26.7137L150.875 26.3125ZM203.188 26.6875L202.515 27.428L202.519 27.4308L203.188 26.6875ZM210.688 92V93H211.688V92H210.688ZM183.188 73.1875L182.526 72.4376L182.519 72.4442L183.188 73.1875ZM186.375 60.375H187.375V59.3296L186.331 59.376L186.375 60.375ZM180.75 60.625L180.786 61.6244L180.794 61.624L180.75 60.625ZM194.644 91.5528L189.957 82.1778L188.168 83.0722L192.856 92.4472L194.644 91.5528ZM189.062 81.625H188.562V83.625H189.062V81.625ZM187.784 81.9974C184.555 86.0035 181.321 88.6696 178.098 90.0844L178.902 91.9156C182.513 90.3304 185.987 87.4131 189.341 83.2526L187.784 81.9974ZM178.098 90.0844C174.852 91.5095 170.586 92.25 165.25 92.25V94.25C170.748 94.25 175.315 93.4905 178.902 91.9156L178.098 90.0844ZM165.25 92.25C158.796 92.25 153.829 90.322 150.222 86.5581L148.778 87.9419C152.838 92.178 158.37 94.25 165.25 94.25V92.25ZM150.222 86.5581C146.617 82.7962 144.75 77.4494 144.75 70.375H142.75C142.75 77.8006 144.717 83.7038 148.778 87.9419L150.222 86.5581ZM144.75 70.375C144.75 63.0935 147.266 57.8269 152.198 54.3823L151.052 52.7427C145.484 56.6315 142.75 62.5732 142.75 70.375H144.75ZM152.202 54.3793C157.232 50.8262 164.619 48.7655 174.483 48.3114L174.392 46.3136C164.339 46.7762 156.518 48.8821 151.048 52.7457L152.202 54.3793ZM174.469 48.312L186.282 47.937L186.218 45.938L174.406 46.313L174.469 48.312ZM187.25 46.9375V45.9375H185.25V46.9375H187.25ZM187.25 45.9375C187.25 42.8703 186.494 40.3855 184.806 38.673C183.115 36.9579 180.658 36.1875 177.625 36.1875V38.1875C180.342 38.1875 182.197 38.8755 183.382 40.077C184.569 41.2812 185.25 43.1714 185.25 45.9375H187.25ZM177.625 36.1875C172.256 36.1875 165.545 37.9993 157.535 41.5221L158.34 43.3529C166.247 39.8757 172.66 38.1875 177.625 38.1875V36.1875ZM158.854 42.0363L151.791 25.9113L149.959 26.7137L157.021 42.8387L158.854 42.0363ZM151.333 27.2015C159.4 23.0457 169.647 20.9375 182.125 20.9375V18.9375C169.436 18.9375 158.85 21.0793 150.417 25.4235L151.333 27.2015ZM182.125 20.9375C191.05 20.9375 197.798 23.1468 202.515 27.428L203.86 25.947C198.66 21.2282 191.367 18.9375 182.125 18.9375V20.9375ZM202.519 27.4308C207.266 31.7032 209.688 37.7004 209.688 45.5625H211.688C211.688 37.2579 209.109 30.6718 203.856 25.9442L202.519 27.4308ZM209.688 45.5625V92H211.688V45.5625H209.688ZM210.688 91H193.75V93H210.688V91ZM175.625 77C178.815 77 181.579 75.9808 183.856 73.9308L182.519 72.4442C180.63 74.1442 178.351 75 175.625 75V77ZM183.849 73.9373C186.203 71.8603 187.375 69.1429 187.375 65.875H185.375C185.375 68.6071 184.422 70.7647 182.526 72.4377L183.849 73.9373ZM187.375 65.875V60.375H185.375V65.875H187.375ZM186.331 59.376L180.706 59.626L180.794 61.624L186.419 61.374L186.331 59.376ZM180.714 59.6257C176.604 59.7747 173.354 60.6062 171.11 62.257C168.809 63.9505 167.688 66.4159 167.688 69.5H169.688C169.688 66.9591 170.577 65.1328 172.296 63.868C174.073 62.5604 176.854 61.767 180.786 61.6243L180.714 59.6257ZM167.688 69.5C167.688 71.8381 168.314 73.7708 169.738 75.1047C171.15 76.4272 173.174 77 175.625 77V75C173.451 75 172.007 74.4895 171.106 73.6453C170.217 72.8125 169.688 71.4952 169.688 69.5H167.688ZM273.812 71.5H274.812V70.0845L273.478 70.5575L273.812 71.5ZM273.812 89.3125L274.208 90.231L274.812 89.9708V89.3125H273.812ZM264.375 92.3125L264.184 91.3309L264.176 91.3324L264.168 91.3341L264.375 92.3125ZM236.188 87.25L235.443 87.9177L235.447 87.9215L236.188 87.25ZM230.75 39.5H231.75V38.5H230.75V39.5ZM222.188 39.5H221.188V40.5H222.188V39.5ZM222.188 29.5625L221.61 28.7459L221.188 29.0448V29.5625H222.188ZM233.062 21.875L233.64 22.6916L233.872 22.5274L233.983 22.2656L233.062 21.875ZM239.375 7V6H238.713L238.454 6.60935L239.375 7ZM255.375 7H256.375V6H255.375V7ZM255.375 21.1875H254.375V22.1875H255.375V21.1875ZM272.75 21.1875H273.75V20.1875H272.75V21.1875ZM272.75 39.5V40.5H273.75V39.5H272.75ZM255.375 39.5V38.5H254.375V39.5H255.375ZM262 74.9375C265.446 74.9375 269.502 74.0891 274.147 72.4425L273.478 70.5575C268.956 72.1609 265.137 72.9375 262 72.9375V74.9375ZM272.812 71.5V89.3125H274.812V71.5H272.812ZM273.417 88.394C270.18 89.7871 267.103 90.7633 264.184 91.3309L264.566 93.2941C267.647 92.695 270.861 91.6713 274.208 90.231L273.417 88.394ZM264.168 91.3341C261.296 91.941 257.889 92.25 253.938 92.25V94.25C257.986 94.25 261.538 93.934 264.582 93.2909L264.168 91.3341ZM253.938 92.25C245.865 92.25 240.284 90.2809 236.928 86.5785L235.447 87.9215C239.341 92.2191 245.594 94.25 253.938 94.25V92.25ZM236.932 86.5823C233.54 82.8007 231.75 76.9014 231.75 68.6875H229.75C229.75 77.1402 231.585 83.616 235.443 87.9177L236.932 86.5823ZM231.75 68.6875V39.5H229.75V68.6875H231.75ZM230.75 38.5H222.188V40.5H230.75V38.5ZM223.188 39.5V29.5625H221.188V39.5H223.188ZM222.765 30.3791L233.64 22.6916L232.485 21.0584L221.61 28.7459L222.765 30.3791ZM233.983 22.2656L240.296 7.39065L238.454 6.60935L232.142 21.4844L233.983 22.2656ZM239.375 8H255.375V6H239.375V8ZM254.375 7V21.1875H256.375V7H254.375ZM255.375 22.1875H272.75V20.1875H255.375V22.1875ZM271.75 21.1875V39.5H273.75V21.1875H271.75ZM272.75 38.5H255.375V40.5H272.75V38.5ZM254.375 39.5V67.0625H256.375V39.5H254.375ZM254.375 67.0625C254.375 69.4992 254.962 71.5121 256.311 72.9126C257.667 74.3201 259.628 74.9375 262 74.9375V72.9375C259.955 72.9375 258.603 72.4091 257.751 71.5249C256.893 70.6338 256.375 69.2091 256.375 67.0625H254.375ZM336.625 92L335.68 92.3283L335.914 93H336.625V92ZM333.562 83.1875L334.507 82.8592L334.274 82.1875H333.562V83.1875ZM332.125 83.1875V82.1875H331.572L331.278 82.6555L332.125 83.1875ZM323.562 90.6875L323.989 91.5921L323.993 91.59L323.562 90.6875ZM292.562 86.5L291.839 87.1903L291.842 87.1936L292.562 86.5ZM286.062 21.1875V20.1875H285.062V21.1875H286.062ZM310.5 21.1875H311.5V20.1875H310.5V21.1875ZM312.438 70.375L311.559 70.8528L311.566 70.8645L312.438 70.375ZM327.938 69L328.816 69.4781L328.818 69.4734L327.938 69ZM330.625 21.1875V20.1875H329.625V21.1875H330.625ZM355.062 21.1875H356.062V20.1875H355.062V21.1875ZM355.062 92V93H356.062V92H355.062ZM337.57 91.6717L334.507 82.8592L332.618 83.5158L335.68 92.3283L337.57 91.6717ZM333.562 82.1875H332.125V84.1875H333.562V82.1875ZM331.278 82.6555C329.343 85.7356 326.638 88.1116 323.132 89.785L323.993 91.59C327.82 89.7634 330.823 87.1394 332.972 83.7195L331.278 82.6555ZM323.136 89.7829C319.671 91.4158 315.552 92.25 310.75 92.25V94.25C315.781 94.25 320.204 93.3759 323.989 91.5921L323.136 89.7829ZM310.75 92.25C303.159 92.25 297.383 90.0645 293.283 85.8064L291.842 87.1936C296.408 91.9355 302.758 94.25 310.75 94.25V92.25ZM293.286 85.8097C289.18 81.5066 287.062 75.3887 287.062 67.3125H285.062C285.062 75.7363 287.278 82.41 291.839 87.1903L293.286 85.8097ZM287.062 67.3125V21.1875H285.062V67.3125H287.062ZM286.062 22.1875H310.5V20.1875H286.062V22.1875ZM309.5 21.1875V59.875H311.5V21.1875H309.5ZM309.5 59.875C309.5 64.5634 310.15 68.2613 311.559 70.8528L313.316 69.8972C312.142 67.7387 311.5 64.4366 311.5 59.875H309.5ZM311.566 70.8645C313.097 73.592 315.621 74.9375 318.938 74.9375V72.9375C316.254 72.9375 314.445 71.908 313.309 69.8855L311.566 70.8645ZM318.938 74.9375C323.457 74.9375 326.824 73.1369 328.816 69.4781L327.059 68.5219C325.467 71.4464 322.834 72.9375 318.938 72.9375V74.9375ZM328.818 69.4734C330.735 65.9067 331.625 60.0856 331.625 52.1875H329.625C329.625 60.0394 328.723 65.4267 327.057 68.5266L328.818 69.4734ZM331.625 52.1875V21.1875H329.625V52.1875H331.625ZM330.625 22.1875H355.062V20.1875H330.625V22.1875ZM354.062 21.1875V92H356.062V21.1875H354.062ZM355.062 91H336.625V93H355.062V91ZM420.75 20.4375L420.929 19.4536L420.921 19.4523L420.75 20.4375ZM422.125 20.6875L423.121 20.7819L423.207 19.8679L422.304 19.7036L422.125 20.6875ZM419.938 43.75L419.695 44.7201L420.823 45.0022L420.933 43.8444L419.938 43.75ZM400 46.6875L400.707 47.3946L400.713 47.3885L400 46.6875ZM396.375 92V93H397.375V92H396.375ZM371.938 92H370.938V93H371.938V92ZM371.938 21.1875V20.1875H370.938V21.1875H371.938ZM390.125 21.1875L391.073 20.8681L390.843 20.1875H390.125V21.1875ZM393.938 32.5L392.99 32.8194L393.219 33.5H393.938V32.5ZM395.125 32.5V33.5H395.719L396.003 32.9782L395.125 32.5ZM403.625 23.4375L404.159 24.2828L404.162 24.2812L403.625 23.4375ZM414.688 20.9375C416.76 20.9375 418.723 21.1001 420.579 21.4227L420.921 19.4523C418.943 19.1083 416.865 18.9375 414.688 18.9375V20.9375ZM420.571 21.4214L421.946 21.6714L422.304 19.7036L420.929 19.4536L420.571 21.4214ZM421.129 20.5931L418.942 43.6556L420.933 43.8444L423.121 20.7819L421.129 20.5931ZM420.18 42.7799C418.064 42.2508 415.199 42 411.625 42V44C415.134 44 417.811 44.2492 419.695 44.7201L420.18 42.7799ZM411.625 42C406.167 42 401.973 43.2543 399.287 45.9865L400.713 47.3885C402.861 45.204 406.416 44 411.625 44V42ZM399.293 45.9804C396.632 48.6416 395.375 52.4322 395.375 57.1875H397.375C397.375 52.7761 398.535 49.5667 400.707 47.3946L399.293 45.9804ZM395.375 57.1875V92H397.375V57.1875H395.375ZM396.375 91H371.938V93H396.375V91ZM372.938 92V21.1875H370.938V92H372.938ZM371.938 22.1875H390.125V20.1875H371.938V22.1875ZM389.177 21.5069L392.99 32.8194L394.885 32.1806L391.073 20.8681L389.177 21.5069ZM393.938 33.5H395.125V31.5H393.938V33.5ZM396.003 32.9782C397.963 29.3785 400.678 26.4838 404.159 24.2828L403.091 22.5922C399.322 24.9745 396.37 28.1215 394.247 32.0218L396.003 32.9782ZM404.162 24.2812C407.696 22.0321 411.2 20.9375 414.688 20.9375V18.9375C410.758 18.9375 406.887 20.1763 403.088 22.5938L404.162 24.2812ZM438.75 83.875L438.054 84.5935L438.059 84.598L438.75 83.875ZM438.062 29.5625L438.788 30.2504L438.791 30.248L438.062 29.5625ZM488.625 28.3125L487.931 29.0325L487.936 29.0375L488.625 28.3125ZM497.375 63.1875V64.1875H498.375V63.1875H497.375ZM453.688 63.1875V62.1875H452.645L452.688 63.2296L453.688 63.1875ZM458 72.5L457.361 73.2692L457.367 73.274L458 72.5ZM481 74.6875L481.216 75.664L481.224 75.6621L481 74.6875ZM492.75 70.5H493.75V68.9317L492.328 69.5934L492.75 70.5ZM492.75 88.0625L493.205 88.953L493.75 88.6746V88.0625H492.75ZM457.562 39.3125L458.245 40.043L458.246 40.0425L457.562 39.3125ZM454.188 47.8125L453.191 47.7268L453.098 48.8125H454.188V47.8125ZM475.188 47.8125V48.8125H476.212L476.187 47.7881L475.188 47.8125ZM472.25 39.625L471.506 40.2932L471.513 40.3014L472.25 39.625ZM466.25 92.25C454.635 92.25 445.745 89.1753 439.441 83.152L438.059 84.598C444.838 91.0747 454.282 94.25 466.25 94.25V92.25ZM439.445 83.1565C433.191 77.1024 430 68.455 430 57.0625H428C428 68.8367 431.309 78.0643 438.055 84.5935L439.445 83.1565ZM430 57.0625C430 45.266 432.978 36.381 438.788 30.2504L437.337 28.8746C431.063 35.494 428 44.9423 428 57.0625H430ZM438.791 30.248C444.595 24.0833 452.925 20.9375 463.938 20.9375V18.9375C452.533 18.9375 443.613 22.2083 437.334 28.877L438.791 30.248ZM463.938 20.9375C474.432 20.9375 482.38 23.6812 487.931 29.0324L489.319 27.5926C483.287 21.7772 474.776 18.9375 463.938 18.9375V20.9375ZM487.936 29.0375C493.516 34.3382 496.375 42.0419 496.375 52.3125H498.375C498.375 41.6664 495.401 33.3702 489.314 27.5875L487.936 29.0375ZM496.375 52.3125V63.1875H498.375V52.3125H496.375ZM497.375 62.1875H453.688V64.1875H497.375V62.1875ZM452.688 63.2296C452.865 67.4311 454.407 70.8149 457.361 73.2692L458.639 71.7308C456.177 69.6851 454.843 66.8606 454.687 63.1454L452.688 63.2296ZM457.367 73.274C460.346 75.7117 464.324 76.875 469.188 76.875V74.875C464.634 74.875 461.154 73.7883 458.633 71.726L457.367 73.274ZM469.188 76.875C473.54 76.875 477.551 76.4736 481.216 75.664L480.784 73.711C477.283 74.4847 473.418 74.875 469.188 74.875V76.875ZM481.224 75.6621C484.932 74.8098 488.915 73.3876 493.172 71.4066L492.328 69.5934C488.168 71.5291 484.318 72.8985 480.776 73.7129L481.224 75.6621ZM491.75 70.5V88.0625H493.75V70.5H491.75ZM492.295 87.172C488.545 89.0878 484.679 90.4096 480.694 91.1414L481.056 93.1086C485.238 92.3404 489.288 90.9539 493.205 88.953L492.295 87.172ZM480.694 91.1414C476.688 91.8774 471.876 92.25 466.25 92.25V94.25C471.957 94.25 476.896 93.8726 481.056 93.1086L480.694 91.1414ZM464.812 35.5625C461.704 35.5625 459.037 36.5625 456.879 38.5825L458.246 40.0425C460.005 38.3958 462.171 37.5625 464.812 37.5625V35.5625ZM456.88 38.582C454.712 40.608 453.536 43.7217 453.191 47.7268L455.184 47.8982C455.506 44.1533 456.579 41.6003 458.245 40.043L456.88 38.582ZM454.188 48.8125H475.188V46.8125H454.188V48.8125ZM476.187 47.7881C476.099 44.1881 475.061 41.2075 472.987 38.9486L471.513 40.3014C473.189 42.1258 474.109 44.6036 474.188 47.8369L476.187 47.7881ZM472.994 38.9569C470.944 36.6736 468.178 35.5625 464.812 35.5625V37.5625C467.697 37.5625 469.89 38.4931 471.506 40.2931L472.994 38.9569ZM522.188 92.375L522.336 91.3861L522.326 91.3846L522.188 92.375ZM510.312 89.3125H509.312V90.008L509.965 90.25L510.312 89.3125ZM510.312 69.75L510.715 68.8345L509.312 68.2181V69.75H510.312ZM522.75 73.875L522.516 74.8472L522.518 74.8477L522.75 73.875ZM540.562 68.5625L539.997 69.3872L540.01 69.3964L540.024 69.4052L540.562 68.5625ZM527.688 62.8125L527.308 63.7377L527.318 63.7417L527.688 62.8125ZM514.062 53.75L513.265 54.3531L513.268 54.3578L514.062 53.75ZM517.812 25.4375L518.398 26.2485L517.812 25.4375ZM552.5 21.5L552.253 22.469L552.264 22.4718L552.5 21.5ZM565.312 25.9375L566.234 26.3252L566.615 25.421L565.718 25.0233L565.312 25.9375ZM558.688 41.6875L558.278 42.5999L559.212 43.019L559.609 42.0752L558.688 41.6875ZM548.375 38L548.099 38.9612L548.109 38.964L548.375 38ZM535.562 42.5L535.026 43.3437L535.04 43.3531L535.055 43.3619L535.562 42.5ZM547.688 47.6875L548.068 46.7628L548.061 46.7599L548.054 46.757L547.688 47.6875ZM558.75 53.6875L558.12 54.4645L558.127 54.4697L558.75 53.6875ZM564.125 60.625L563.204 61.0137L563.207 61.0225L563.211 61.0311L564.125 60.625ZM564.875 70.25C564.875 77.5806 562.394 82.9857 557.525 86.6375L558.725 88.2375C564.189 84.1393 566.875 78.086 566.875 70.25H564.875ZM557.525 86.6375C552.598 90.3324 545.428 92.25 535.875 92.25V94.25C545.656 94.25 553.318 92.2926 558.725 88.2375L557.525 86.6375ZM535.875 92.25C530.659 92.25 526.149 91.9601 522.336 91.3861L522.039 93.3639C525.976 93.9566 530.591 94.25 535.875 94.25V92.25ZM522.326 91.3846C518.529 90.8539 514.641 89.8524 510.66 88.375L509.965 90.25C514.067 91.7726 518.096 92.8127 522.049 93.3654L522.326 91.3846ZM511.312 89.3125V69.75H509.312V89.3125H511.312ZM509.91 70.6655C513.762 72.3586 517.965 73.7516 522.516 74.8472L522.984 72.9028C518.535 71.8317 514.446 70.4747 510.715 68.8345L509.91 70.6655ZM522.518 74.8477C527.113 75.9438 531.235 76.5 534.875 76.5V74.5C531.432 74.5 527.47 73.9729 522.982 72.9023L522.518 74.8477ZM534.875 76.5C537.566 76.5 539.723 76.1977 541.244 75.5034C542.016 75.1506 542.667 74.6773 543.124 74.0505C543.59 73.4128 543.812 72.6738 543.812 71.875H541.812C541.812 72.2845 541.705 72.6029 541.509 72.8714C541.305 73.1508 540.963 73.4327 540.413 73.6841C539.287 74.1982 537.476 74.5 534.875 74.5V76.5ZM543.812 71.875C543.812 70.1514 542.756 68.777 541.101 67.7198L540.024 69.4052C541.369 70.2647 541.812 71.0986 541.812 71.875H543.812ZM541.128 67.7378C540.314 67.1795 538.797 66.4174 536.658 65.4619C534.494 64.4956 531.625 63.3023 528.057 61.8833L527.318 63.7417C530.875 65.156 533.714 66.3378 535.842 67.2881C537.995 68.2493 539.353 68.9455 539.997 69.3872L541.128 67.7378ZM528.067 61.8873C521.636 59.2488 517.283 56.3127 514.857 53.1422L513.268 54.3578C516.008 57.9373 520.739 61.0429 527.308 63.7377L528.067 61.8873ZM514.86 53.1469C512.435 49.9388 511.188 45.8513 511.188 40.8125H509.188C509.188 46.1903 510.524 50.7279 513.265 54.3531L514.86 53.1469ZM511.188 40.8125C511.188 34.5314 513.59 29.7164 518.398 26.2485L517.227 24.6265C511.868 28.492 509.188 33.9269 509.188 40.8125H511.188ZM518.398 26.2485C523.246 22.7511 530.197 20.9375 539.375 20.9375V18.9375C529.97 18.9375 522.545 20.7906 517.227 24.6265L518.398 26.2485ZM539.375 20.9375C543.967 20.9375 548.258 21.45 552.253 22.469L552.747 20.531C548.575 19.4667 544.116 18.9375 539.375 18.9375V20.9375ZM552.264 22.4718C556.324 23.456 560.538 24.9143 564.907 26.8517L565.718 25.0233C561.254 23.044 556.926 21.544 552.736 20.5282L552.264 22.4718ZM564.391 25.5498L557.766 41.2998L559.609 42.0752L566.234 26.3252L564.391 25.5498ZM559.097 40.7751C555.798 39.2949 552.312 38.0488 548.641 37.036L548.109 38.964C551.688 39.9512 555.077 41.1635 558.278 42.5999L559.097 40.7751ZM548.651 37.0389C544.986 35.9858 541.926 35.4375 539.5 35.4375V37.4375C541.658 37.4375 544.514 37.9309 548.099 38.9611L548.651 37.0389ZM539.5 35.4375C537.451 35.4375 535.767 35.6832 534.56 36.2737C533.943 36.5758 533.418 36.9844 533.048 37.5271C532.674 38.077 532.5 38.7061 532.5 39.375H534.5C534.5 39.0648 534.576 38.837 534.702 38.6526C534.832 38.4609 535.057 38.2575 535.44 38.07C536.233 37.6814 537.549 37.4375 539.5 37.4375V35.4375ZM532.5 39.375C532.5 41.0397 533.474 42.3564 535.026 43.3437L536.099 41.6563C534.901 40.8936 534.5 40.127 534.5 39.375H532.5ZM535.055 43.3619C536.556 44.2446 540.686 46.0054 547.321 48.618L548.054 46.757C541.356 44.1196 537.402 42.422 536.07 41.6381L535.055 43.3619ZM547.307 48.6122C552.23 50.6395 555.814 52.5957 558.12 54.4644L559.38 52.9106C556.852 50.8626 553.061 48.8188 548.068 46.7628L547.307 48.6122ZM558.127 54.4697C560.466 56.333 562.149 58.5141 563.204 61.0137L565.046 60.2363C563.851 57.4026 561.951 54.9586 559.373 52.9053L558.127 54.4697ZM563.211 61.0311C564.306 63.4944 564.875 66.5556 564.875 70.25H566.875C566.875 66.361 566.277 63.0056 565.039 60.2189L563.211 61.0311Z" fill="#00DB81"/>
</svg>
