<svg width="54" height="64" viewBox="0 0 54 64" fill="none" xmlns="http://www.w3.org/2000/svg">
<path d="M52.8243 49.8754C51.8564 52.1114 50.7108 54.1696 49.3834 56.0619C47.5741 58.6416 46.0927 60.4272 44.951 61.4188C43.1811 63.0464 41.2849 63.8799 39.2543 63.9273C37.7966 63.9273 36.0386 63.5126 33.9923 62.6711C31.9392 61.8336 30.0524 61.4188 28.3273 61.4188C26.5179 61.4188 24.5775 61.8336 22.5019 62.6711C20.4231 63.5126 18.7485 63.9511 17.4681 63.9945C15.5209 64.0775 13.5801 63.2202 11.6427 61.4188C10.4062 60.3403 8.85961 58.4915 7.00683 55.8723C5.01894 53.0753 3.38461 49.832 2.10426 46.1343C0.733041 42.1404 0.0456543 38.2728 0.0456543 34.5285C0.0456543 30.2395 0.972441 26.5402 2.82878 23.4403C4.2877 20.9503 6.22858 18.9861 8.65774 17.5442C11.0869 16.1022 13.7116 15.3674 16.5382 15.3204C18.0848 15.3204 20.113 15.7988 22.6334 16.739C25.1467 17.6824 26.7605 18.1608 27.468 18.1608C27.997 18.1608 29.7897 17.6014 32.8289 16.4862C35.7028 15.452 38.1285 15.0237 40.1156 15.1924C45.5001 15.627 49.5454 17.7496 52.2357 21.5737C47.42 24.4915 45.0379 28.5783 45.0853 33.821C45.1287 37.9046 46.6102 41.3028 49.5217 44.001C50.8412 45.2533 52.3147 46.2212 53.9542 46.9086C53.5986 47.9397 53.2233 48.9273 52.8243 49.8754ZM40.475 1.28036C40.475 4.48109 39.3057 7.4696 36.9749 10.2357C34.1622 13.5241 30.76 15.4243 27.0706 15.1245C27.0236 14.7405 26.9963 14.3364 26.9963 13.9117C26.9963 10.839 28.334 7.55059 30.7094 4.86188C31.8954 3.50054 33.4037 2.3686 35.2327 1.46563C37.0579 0.576141 38.7842 0.0842246 40.4079 0C40.4553 0.427878 40.475 0.855796 40.475 1.28032V1.28036Z" fill="url(#paint0_linear_390_1140)"/>
<defs>
<linearGradient id="paint0_linear_390_1140" x1="23.0788" y1="41.3168" x2="22.8982" y2="-11.2195" gradientUnits="userSpaceOnUse">
<stop/>
<stop offset="1" stop-opacity="0"/>
</linearGradient>
</defs>
</svg>
