<svg width="56" height="64" viewBox="0 0 56 64" fill="none" xmlns="http://www.w3.org/2000/svg">
<path d="M55.056 24.6054C55.056 22.432 53.3013 20.664 51.12 20.664C48.9387 20.664 47.1734 22.424 47.1734 24.6107V41.1174C47.1734 43.2774 48.9414 45.064 51.128 45.064C53.2987 45.064 55.064 43.2774 55.064 41.1174V24.584H55.0373L55.056 24.6054ZM10.3814 21.4187L10.392 47.0187C10.392 49.3787 12.2694 51.2587 14.5867 51.2587H17.4214V60.0054C17.4214 62.192 19.1814 63.9574 21.3414 63.9574C23.5014 63.9574 25.2533 62.1974 25.288 60.0427V51.296H30.6027V60.0427C30.6027 62.2374 32.3627 63.9974 34.5227 63.9974C36.7174 63.9974 38.4747 62.2374 38.4747 60.024V51.2774H41.3493C43.6693 51.2774 45.544 49.384 45.544 47.0694V21.3894L10.2667 21.4134L10.3734 21.4187H10.3814ZM36.1094 13.6054C35.2827 13.6054 34.616 12.9387 34.616 12.112C34.616 11.2987 35.2827 10.624 36.1094 10.6187C36.936 10.6187 37.6027 11.2987 37.6027 12.112C37.6027 12.9387 36.936 13.6054 36.1094 13.6054ZM19.9494 13.6054C19.1227 13.6054 18.456 12.9387 18.456 12.112C18.456 11.2934 19.1227 10.624 19.9494 10.624C20.776 10.624 21.4427 11.304 21.4427 12.144C21.4427 12.984 20.848 13.6054 20 13.6054H19.9494ZM39.44 0.880023C39.6 0.600023 39.4773 0.277356 39.2374 0.120023C38.96 2.29478e-05 38.64 0.0800231 38.48 0.360023L35.68 5.42669C33.3653 4.34669 30.7307 3.74669 27.9733 3.74669C25.216 3.74669 22.592 4.32002 20.2613 5.35469L17.504 0.280023C17.3627 0.0186898 17.024 -0.079977 16.7627 0.0666897C16.496 0.18669 16.4 0.54669 16.5493 0.78669L19.296 5.78669C13.8827 8.57869 10.2294 13.8934 10.2294 20H45.7707C45.7707 13.8934 42.104 8.71469 36.696 5.92269L39.44 0.880023ZM4.88002 20.6454C2.70135 20.6454 0.93335 22.4187 0.93335 24.6V41.112C0.93335 43.2987 2.70402 45.0587 4.89068 45.0587C7.06135 45.0587 8.82935 43.2987 8.82935 41.112V24.6054C8.82935 22.432 7.06935 20.664 4.90935 20.664L4.88002 20.6454Z" fill="#A4C639"/>
</svg>
